<svg width="42" height="42" viewBox="0 0 42 42" fill="none" xmlns="http://www.w3.org/2000/svg">
<path d="M20.8341 1.28489e-08C24.576 8.45472e-05 28.2487 1.00794 31.4665 2.91769C34.6843 4.82743 37.3283 7.56856 39.1209 10.8531C40.9134 14.1376 41.7882 17.8443 41.6535 21.5837C41.5187 25.3231 40.3793 28.9572 38.355 32.1042L25.0008 18.75L29.1675 14.5833H14.5841V29.1667L18.7508 25L32.105 38.3542C29.3819 40.106 26.288 41.199 23.0688 41.5464C19.8496 41.8938 16.5937 41.4861 13.5596 40.3556C10.5255 39.2251 7.79659 37.403 5.58957 35.0338C3.38255 32.6646 1.75813 29.8136 0.845237 26.7071C-0.0676561 23.6006 -0.243892 20.324 0.330515 17.1375C0.904923 13.9509 2.21416 10.9421 4.15432 8.3499C6.09449 5.75765 8.61216 3.65332 11.5075 2.2039C14.4029 0.754483 17.5962 -0.000113696 20.8341 1.28489e-08Z" fill="#54AEDF"/>
</svg>
