<svg width="430" height="356" viewBox="0 0 430 356" fill="none" xmlns="http://www.w3.org/2000/svg">
<path d="M362.949 188.304C399.87 188.304 429.8 158.374 429.8 121.453C429.8 84.5322 399.87 54.602 362.949 54.602C326.029 54.602 296.099 84.5322 296.099 121.453C296.099 158.374 326.029 188.304 362.949 188.304Z" fill="#2E95D1"/>
<path d="M381.241 151.517C372.22 151.517 364.817 144.115 364.817 135.094V81.8905H374.07V134.862C374.07 138.795 377.308 142.033 381.241 142.033C385.173 142.033 388.412 138.795 388.412 134.862H397.664C397.664 144.115 390.262 151.517 381.241 151.517Z" fill="#282D33"/>
<path d="M355.784 103.409H386.55V112.662H355.784V103.409ZM145.748 178.819L114.751 150.829H37.0283V71.0249H164.484V150.829H145.748V178.819ZM46.281 141.577H118.452L136.495 158V141.577H155.232V80.2776H46.281V141.577Z" fill="#282D33"/>
<path d="M64.7549 97.8488H136.695V107.101H64.7549V97.8488ZM64.7549 115.892H136.695V125.144H64.7549V115.892Z" fill="#282D33"/>
<path d="M339.342 123.982H234.093V171.171H252.829V193.377L277.349 171.171H339.342V123.982Z" fill="white"/>
<path d="M251.919 143.647H323.859V152.9H251.919V143.647ZM357.4 326.851C329.411 326.851 306.741 304.181 306.741 276.192C306.741 248.203 329.411 225.534 357.4 225.534C385.389 225.534 408.058 248.203 408.058 276.192C408.058 304.181 385.389 326.851 357.4 326.851ZM357.4 234.786C334.499 234.786 315.994 253.292 315.994 276.192C315.994 299.093 334.499 317.598 357.4 317.598C380.3 317.598 398.806 299.093 398.806 276.192C398.806 253.292 380.3 234.786 357.4 234.786Z" fill="#282D33"/>
<path d="M377.963 276.193L362.234 285.215L346.273 294.467V257.919L362.234 266.941L377.963 276.193Z" fill="white"/>
<path d="M235.927 341.669H176.709C164.681 341.669 153.809 336.58 146.175 327.328H130.446V318.075H150.57L151.958 319.925C157.741 327.79 166.763 332.417 176.709 332.417H250.037C256.283 332.417 261.372 327.328 261.372 321.082C261.372 314.836 256.283 309.747 250.037 309.747V300.495H262.991C269.236 300.495 274.325 295.406 274.325 289.16C274.325 282.914 269.236 277.825 262.991 277.825V268.573H267.386C273.631 268.573 278.72 263.484 278.72 257.238C278.72 250.993 273.631 245.904 267.386 245.904V236.651H275.945C282.19 236.651 287.279 231.562 287.279 225.316C287.279 219.071 282.19 213.982 275.945 213.982H231.069C230.375 213.982 229.912 213.982 229.218 214.213H204.467L211.638 188.999V167.024C211.638 158.465 204.699 151.526 196.14 151.526H193.133V179.284L184.112 192.006L154.965 223.928C151.264 227.861 148.72 232.718 147.332 237.807L146.407 241.277H130.908V232.024H139.236C141.086 226.704 144.094 221.615 148.026 217.451L176.941 185.761L183.649 176.277V142.504L188.044 142.273H195.677C209.325 142.273 220.428 153.376 220.428 167.024V190.387L216.265 205.192H227.831C228.987 204.96 229.912 204.96 230.838 204.96H275.713C287.048 204.96 296.301 214.213 296.301 225.548C296.301 234.338 290.98 241.74 283.116 244.747C285.891 248.217 287.742 252.843 287.742 257.701C287.742 265.334 283.578 271.811 277.564 275.512C281.265 279.213 283.347 284.302 283.347 289.854C283.347 299.801 276.176 308.128 266.692 310.21C269.005 313.68 270.393 317.612 270.393 322.007C270.393 333.342 261.14 342.595 249.806 342.595L235.927 341.669Z" fill="#282D33"/>
<path d="M56.0063 229.227H123.088V355.527H56.0063V229.227Z" fill="#2E95D1"/>
<path d="M99.9111 333.785H108.239V340.725H99.9111V333.785Z" fill="white"/>
<path d="M15.7295 245.196C6.9395 245.196 0 238.025 0 229.466C0 220.676 7.17081 213.737 15.7295 213.737C24.5196 213.737 31.4591 220.908 31.4591 229.466C31.4591 238.025 24.5196 245.196 15.7295 245.196ZM15.7295 222.758C12.0285 222.758 9.25267 225.765 9.25267 229.235C9.25267 232.936 12.2598 235.712 15.7295 235.712C19.4306 235.712 22.2064 232.705 22.2064 229.235C22.2064 225.765 19.4306 222.758 15.7295 222.758ZM77.7224 211.886C68.9324 211.886 61.9928 204.715 61.9928 196.156C61.9928 187.366 69.1637 180.427 77.7224 180.427C86.5124 180.427 93.4519 187.598 93.4519 196.156C93.4519 204.715 86.2811 211.886 77.7224 211.886ZM77.7224 189.448C74.0213 189.448 71.2455 192.455 71.2455 195.925C71.2455 199.626 74.2526 202.402 77.7224 202.402C81.4235 202.402 84.1993 199.395 84.1993 195.925C84.1993 192.455 81.1921 189.448 77.7224 189.448ZM77.7224 278.274C68.9324 278.274 61.9928 271.104 61.9928 262.545C61.9928 253.755 69.1637 246.815 77.7224 246.815C86.5124 246.815 93.4519 253.986 93.4519 262.545C93.4519 271.335 86.2811 278.274 77.7224 278.274ZM77.7224 256.068C74.0213 256.068 71.2455 259.075 71.2455 262.545C71.2455 266.015 74.2526 269.022 77.7224 269.022C81.4235 269.022 84.1993 266.015 84.1993 262.545C84.1993 259.075 81.1921 256.068 77.7224 256.068Z" fill="#282D33"/>
<path d="M28.7231 229.72L68.3871 252.62L63.7608 260.631L24.0968 237.73L28.7231 229.72ZM63.7145 198.004L68.3409 206.017L28.6699 228.913L24.0459 220.9L63.7145 198.004Z" fill="#282D33"/>
<path d="M339.821 101.086H220.229V0H339.821V101.086ZM229.482 91.8335H330.568V9.25274H229.482V91.8335Z" fill="#282D33"/>
<path d="M333.793 86.043L307.885 63.8366L282.672 80.7227L250.287 45.7938L228.081 68.6943L221.604 62.2174L250.287 32.3774L284.06 68.6943L308.811 52.2707L339.807 79.1035L333.793 86.043Z" fill="#282D33"/>
<path d="M299.085 31.6993C299.085 38.8701 293.302 44.8844 285.899 44.8844C278.729 44.8844 272.714 39.1014 272.714 31.6993C272.714 24.5284 278.497 18.5142 285.899 18.5142C293.302 18.5142 299.085 24.2971 299.085 31.6993Z" fill="white"/>
</svg>
