<svg width="333" height="343" viewBox="0 0 333 343" fill="none" xmlns="http://www.w3.org/2000/svg">
<path d="M316.74 29.1763C317.271 29.2386 317.805 29.2696 318.34 29.269C320.206 29.2703 322.054 28.8931 323.779 28.1589C325.503 27.4247 327.07 26.3479 328.391 24.9899C329.711 23.6319 330.759 22.0194 331.474 20.2444C332.19 18.4694 332.559 16.5666 332.56 14.6448C332.558 13.841 332.494 13.0387 332.37 12.2452C331.865 9.11458 330.386 6.23796 328.154 4.04948C325.923 1.86099 323.061 0.479424 320 0.113286C319.436 0.0390011 318.868 0.00116503 318.3 0C316.434 0.00135197 314.586 0.381223 312.863 1.11792C311.139 1.85463 309.573 2.93373 308.255 4.29362C306.936 5.65352 305.891 7.26757 305.178 9.04363C304.465 10.8197 304.099 12.723 304.1 14.6448C304.098 15.2231 304.132 15.801 304.2 16.375L15.87 313.349C15.3229 313.275 14.7718 313.237 14.22 313.236C12.3531 313.234 10.5042 313.612 8.779 314.347C7.05381 315.082 5.48613 316.159 4.16555 317.518C2.84497 318.877 1.79737 320.491 1.08263 322.267C0.367883 324.044 -4.62284e-07 325.948 0 327.87C0.00271689 328.435 0.0394541 328.999 0.11 329.559C0.473638 332.704 1.81874 335.642 3.94307 337.932C6.0674 340.222 8.85614 341.74 11.89 342.258C12.12 342.258 12.36 342.34 12.61 342.361C14.5984 342.593 16.612 342.389 18.5189 341.765C20.4258 341.14 22.183 340.107 23.6755 338.734C25.1681 337.361 26.3622 335.679 27.1798 333.798C27.9974 331.917 28.42 329.88 28.42 327.819C28.4211 327.268 28.391 326.718 28.33 326.171L316.74 29.1763ZM326.68 14.6448C326.678 16.3415 326.188 17.9995 325.271 19.4092C324.354 20.8188 323.051 21.9168 321.528 22.5642C320.006 23.2117 318.331 23.3795 316.715 23.0465C315.1 22.7135 313.616 21.8946 312.453 20.6934C311.289 19.4921 310.498 17.9626 310.178 16.298C309.859 14.6335 310.026 12.9088 310.658 11.342C311.29 9.7752 312.359 8.43669 313.73 7.49573C315.101 6.55476 316.712 6.05361 318.36 6.05565C319.454 6.057 320.537 6.28024 321.547 6.71262C322.557 7.14499 323.475 7.77804 324.247 8.57561C325.02 9.37319 325.632 10.3197 326.05 11.361C326.467 12.4024 326.681 13.5182 326.68 14.6448ZM5.88 327.881C5.87802 326.184 6.36464 324.525 7.2783 323.113C8.19197 321.701 9.49166 320.6 11.013 319.948C12.5344 319.297 14.209 319.125 15.8253 319.454C17.4415 319.783 18.9267 320.598 20.0931 321.797C21.2595 322.995 22.0546 324.523 22.378 326.186C22.7013 327.85 22.5384 329.575 21.9097 331.144C21.2811 332.712 20.215 334.053 18.8462 334.998C17.4774 335.942 15.8675 336.447 14.22 336.449C12.0124 336.446 9.8956 335.543 8.3327 333.938C6.76979 332.332 5.88793 330.154 5.88 327.881Z" fill="#54AEDF"/>
<path d="M319.93 68.7131C319.41 68.7131 318.88 68.6307 318.34 68.6307C316.475 68.6307 314.629 69.0089 312.906 69.7439C311.183 70.4788 309.618 71.556 308.299 72.914C306.981 74.272 305.935 75.8841 305.221 77.6584C304.507 79.4327 304.14 81.3344 304.14 83.2549C304.14 83.8213 304.14 84.3568 304.22 84.8924L82.4301 313.318C81.9101 313.318 81.4301 313.236 80.8401 313.236C77.0731 313.238 73.4613 314.781 70.7986 317.526C68.1359 320.27 66.6401 323.991 66.6401 327.87C66.6401 328.426 66.6401 328.972 66.7201 329.497C67.0791 332.774 68.5003 335.829 70.754 338.171C73.0077 340.513 75.9622 342.003 79.1401 342.402C79.7008 342.473 80.2653 342.507 80.8301 342.505C82.6971 342.506 84.5459 342.128 86.2711 341.394C87.9963 340.659 89.564 339.581 90.8846 338.222C92.2052 336.863 93.2528 335.249 93.9675 333.473C94.6822 331.697 95.0501 329.793 95.0501 327.87C95.0523 327.285 95.0189 326.7 94.9501 326.119L316.65 97.8379C317.211 97.9087 317.775 97.9431 318.34 97.9408C320.208 97.9422 322.058 97.5643 323.783 96.8288C325.509 96.0934 327.077 95.0147 328.398 93.6545C329.719 92.2943 330.766 90.6794 331.48 88.902C332.195 87.1246 332.561 85.2196 332.56 83.2961C332.562 82.7143 332.529 82.133 332.46 81.5556C332.084 78.2735 330.641 75.2188 328.366 72.8875C326.092 70.5561 323.119 69.0851 319.93 68.7131ZM72.5201 327.88C72.5182 326.183 73.0053 324.523 73.9198 323.11C74.8344 321.698 76.1352 320.597 77.6578 319.946C79.1803 319.296 80.856 319.125 82.4728 319.456C84.0896 319.786 85.5748 320.604 86.7403 321.804C87.9059 323.004 88.6995 324.534 89.0206 326.199C89.3417 327.864 89.1759 329.59 88.5441 331.158C87.9124 332.726 86.8432 334.066 85.4718 335.008C84.1004 335.949 82.4885 336.451 80.8401 336.449C78.6352 336.444 76.522 335.539 74.9628 333.933C73.4037 332.328 72.5254 330.151 72.5201 327.88ZM326.68 83.2549C326.682 84.9525 326.195 86.6125 325.28 88.0249C324.366 89.4372 323.065 90.5384 321.542 91.189C320.02 91.8396 318.344 92.0103 316.727 91.6797C315.111 91.349 313.625 90.5317 312.46 89.3313C311.294 88.1309 310.501 86.6014 310.18 84.9363C309.859 83.2712 310.024 81.5454 310.656 79.9774C311.288 78.4094 312.357 77.0697 313.728 76.1278C315.1 75.186 316.712 74.6843 318.36 74.6863C320.565 74.6918 322.678 75.5963 324.237 77.202C325.797 78.8077 326.675 80.984 326.68 83.2549Z" fill="#54AEDF"/>
<path d="M319.83 137.333C319.335 137.284 318.838 137.26 318.34 137.261C314.574 137.261 310.962 138.802 308.299 141.545C305.636 144.287 304.14 148.007 304.14 151.886C304.139 152.398 304.162 152.91 304.21 153.42L149 313.308C147.023 313.105 145.026 313.331 143.138 313.97C141.25 314.609 139.512 315.647 138.037 317.019C136.561 318.39 135.38 320.063 134.57 321.932C133.759 323.801 133.337 325.823 133.33 327.87C133.329 328.376 133.352 328.881 133.4 329.384C133.736 332.662 135.134 335.727 137.369 338.085C139.605 340.443 142.547 341.957 145.72 342.381C146.32 342.46 146.925 342.498 147.53 342.494C149.397 342.496 151.246 342.118 152.971 341.383C154.696 340.648 156.264 339.571 157.585 338.212C158.905 336.853 159.953 335.239 160.668 333.463C161.382 331.686 161.75 329.783 161.75 327.86C161.751 327.233 161.711 326.607 161.63 325.985L316.58 166.355C317.18 166.438 317.785 166.479 318.39 166.479C320.258 166.48 322.108 166.102 323.833 165.367C325.559 164.631 327.127 163.553 328.448 162.193C329.769 160.832 330.816 159.217 331.53 157.44C332.245 155.663 332.611 153.758 332.61 151.834C332.616 151.21 332.576 150.587 332.49 149.97C332.069 146.703 330.591 143.679 328.293 141.385C325.995 139.092 323.014 137.664 319.83 137.333ZM139.16 327.86C139.158 326.162 139.645 324.502 140.56 323.09C141.474 321.677 142.775 320.576 144.298 319.926C145.82 319.275 147.496 319.104 149.113 319.435C150.73 319.766 152.215 320.583 153.38 321.783C154.546 322.984 155.339 324.513 155.661 326.178C155.982 327.844 155.816 329.569 155.184 331.137C154.552 332.705 153.483 334.045 152.112 334.987C150.74 335.929 149.128 336.43 147.48 336.428C145.279 336.423 143.168 335.521 141.61 333.92C140.051 332.319 139.171 330.148 139.16 327.88V327.86ZM310 151.886C310.002 150.19 310.492 148.532 311.408 147.123C312.324 145.714 313.625 144.616 315.147 143.968C316.669 143.32 318.343 143.151 319.958 143.482C321.573 143.814 323.056 144.631 324.22 145.83C325.385 147.029 326.178 148.557 326.5 150.22C326.821 151.883 326.657 153.607 326.028 155.174C325.399 156.741 324.333 158.081 322.964 159.025C321.596 159.968 319.987 160.473 318.34 160.475C316.128 160.475 314.007 159.57 312.443 157.959C310.879 156.348 310 154.164 310 151.886Z" fill="#54AEDF"/>
<path d="M319.72 205.974C319.261 205.925 318.801 205.901 318.34 205.902C314.573 205.905 310.961 207.448 308.298 210.192C305.635 212.937 304.14 216.657 304.14 220.537C304.138 221.008 304.161 221.479 304.21 221.948L215.49 313.328C215.041 313.278 214.591 313.254 214.14 313.256C210.371 313.256 206.757 314.798 204.092 317.543C201.427 320.287 199.93 324.009 199.93 327.891C199.928 328.359 199.952 328.826 200 329.291C200.308 332.57 201.68 335.646 203.896 338.021C206.112 340.397 209.041 341.933 212.21 342.381C212.839 342.472 213.474 342.517 214.11 342.515C217.878 342.515 221.493 340.973 224.158 338.229C226.823 335.484 228.32 331.762 228.32 327.88C228.317 327.226 228.274 326.572 228.19 325.924L316.44 235.048C317.066 235.134 317.698 235.179 318.33 235.182C320.197 235.183 322.046 234.805 323.771 234.071C325.496 233.336 327.064 232.258 328.384 230.899C329.705 229.54 330.752 227.926 331.467 226.15C332.182 224.374 332.55 222.47 332.55 220.547C332.547 219.893 332.504 219.239 332.42 218.59C331.995 215.321 330.509 212.295 328.203 210.004C325.898 207.714 322.908 206.294 319.72 205.974ZM205.79 327.88C205.788 326.183 206.275 324.524 207.189 323.112C208.103 321.699 209.403 320.598 210.925 319.947C212.447 319.296 214.122 319.125 215.739 319.455C217.355 319.785 218.84 320.601 220.006 321.8C221.172 323 221.967 324.528 222.289 326.193C222.611 327.857 222.447 329.583 221.817 331.151C221.186 332.719 220.119 334.059 218.749 335.002C217.379 335.946 215.768 336.449 214.12 336.449C211.913 336.446 209.797 335.543 208.236 333.937C206.675 332.331 205.795 330.153 205.79 327.88ZM310 220.516C310 218.82 310.488 217.162 311.403 215.751C312.318 214.341 313.618 213.241 315.14 212.591C316.661 211.942 318.336 211.771 319.951 212.102C321.567 212.432 323.051 213.248 324.216 214.446C325.382 215.645 326.176 217.173 326.498 218.836C326.821 220.5 326.657 222.224 326.029 223.792C325.4 225.36 324.333 226.7 322.965 227.644C321.596 228.588 319.987 229.093 318.34 229.095C316.13 229.095 314.01 228.192 312.446 226.583C310.882 224.974 310.002 222.792 310 220.516Z" fill="#54AEDF"/>
<path d="M319.61 274.564C319.19 274.564 318.77 274.502 318.34 274.502C314.573 274.505 310.961 276.048 308.298 278.792C305.636 281.536 304.14 285.257 304.14 289.137C304.14 289.569 304.14 290.012 304.2 290.445L282 313.297C281.58 313.256 281.16 313.236 280.74 313.236C276.973 313.238 273.361 314.781 270.699 317.526C268.036 320.27 266.54 323.991 266.54 327.87C266.54 328.303 266.54 328.725 266.59 329.158C266.877 332.441 268.232 335.529 270.435 337.922C272.638 340.314 275.561 341.871 278.73 342.34C279.392 342.439 280.061 342.487 280.73 342.484C282.599 342.492 284.452 342.12 286.182 341.39C287.911 340.659 289.484 339.584 290.81 338.227C292.135 336.869 293.188 335.256 293.907 333.479C294.626 331.701 294.997 329.795 295 327.87C294.999 327.181 294.952 326.493 294.86 325.81L316.36 303.648C317.023 303.743 317.691 303.791 318.36 303.792C320.228 303.793 322.077 303.415 323.803 302.68C325.529 301.944 327.097 300.866 328.418 299.505C329.739 298.145 330.786 296.53 331.5 294.753C332.214 292.975 332.581 291.071 332.58 289.147C332.578 288.458 332.532 287.77 332.44 287.087C331.987 283.815 330.473 280.797 328.144 278.523C325.815 276.249 322.807 274.854 319.61 274.564ZM272.42 327.88C272.416 326.18 272.902 324.517 273.817 323.102C274.731 321.687 276.033 320.582 277.557 319.93C279.081 319.277 280.759 319.104 282.378 319.434C283.998 319.764 285.486 320.581 286.654 321.783C287.822 322.984 288.617 324.516 288.94 326.183C289.262 327.85 289.096 329.579 288.464 331.149C287.832 332.72 286.762 334.062 285.388 335.005C284.015 335.949 282.401 336.451 280.75 336.449C278.544 336.444 276.43 335.539 274.869 333.934C273.308 332.329 272.428 330.152 272.42 327.88ZM310 289.137C310.002 287.441 310.492 285.784 311.408 284.374C312.324 282.965 313.625 281.867 315.147 281.219C316.669 280.571 318.343 280.402 319.958 280.733C321.573 281.065 323.056 281.882 324.22 283.081C325.385 284.28 326.178 285.808 326.499 287.471C326.821 289.134 326.657 290.858 326.028 292.425C325.399 293.992 324.332 295.332 322.964 296.276C321.596 297.219 319.987 297.724 318.34 297.726C316.129 297.723 314.009 296.817 312.446 295.207C310.882 293.597 310.003 291.414 310 289.137Z" fill="#54AEDF"/>
</svg>
