<svg width="134" height="171" viewBox="0 0 134 171" fill="none" xmlns="http://www.w3.org/2000/svg">
<path d="M67.06 12.9701C67.06 13.3901 67 13.8101 67 14.2401C67.0027 18.0071 68.5009 21.6189 71.1655 24.2816C73.8301 26.9443 77.443 28.44 81.21 28.44C81.63 28.44 82.06 28.44 82.48 28.38L104.67 50.58C104.63 51 104.61 51.4201 104.61 51.8401C104.613 55.6071 106.111 59.2188 108.776 61.8816C111.44 64.5443 115.053 66.04 118.82 66.04C119.24 66.04 119.65 66.0401 120.07 65.9901C123.259 65.7029 126.257 64.3481 128.58 62.1449C130.903 59.9417 132.415 57.0191 132.87 53.85C132.967 53.1878 133.013 52.5193 133.01 51.85C133.018 49.9806 132.657 48.128 131.947 46.3983C131.238 44.6687 130.194 43.0959 128.876 41.7703C127.558 40.4447 125.991 39.3922 124.266 38.6732C122.54 37.9541 120.689 37.5827 118.82 37.5801C118.151 37.5808 117.483 37.6276 116.82 37.7201L95.3 16.2201C95.3929 15.5574 95.4397 14.8892 95.44 14.2201C95.4413 12.3523 95.0744 10.5026 94.3602 8.77674C93.6461 7.0509 92.5987 5.48277 91.278 4.16206C89.9573 2.84134 88.3891 1.79397 86.6633 1.07981C84.9375 0.365655 83.0878 -0.00124596 81.22 6.89077e-05C80.5509 0.00165813 79.8828 0.0484153 79.22 0.140053C76.0427 0.592599 73.1119 2.10664 70.9042 4.43601C68.6965 6.76538 67.3416 9.77309 67.06 12.9701ZM118.83 60.16C117.179 60.164 115.564 59.678 114.19 58.7636C112.816 57.8491 111.744 56.5474 111.11 55.0232C110.476 53.499 110.308 51.821 110.629 50.2016C110.949 48.5822 111.743 47.0943 112.909 45.9263C114.076 44.7584 115.563 43.9629 117.182 43.6406C118.801 43.3183 120.479 43.4837 122.004 44.1159C123.529 44.7481 124.832 45.8186 125.748 47.1918C126.664 48.5651 127.152 50.1793 127.15 51.83C127.145 54.036 126.267 56.1502 124.708 57.7109C123.149 59.2717 121.036 60.1521 118.83 60.16ZM81.21 22.5801C79.5633 22.5781 77.9542 22.0881 76.5858 21.172C75.2175 20.256 74.1514 18.9549 73.5222 17.4332C72.8929 15.9115 72.7288 14.2374 73.0505 12.6225C73.3723 11.0076 74.1654 9.52424 75.3298 8.35987C76.4942 7.1955 77.9775 6.40234 79.5924 6.0806C81.2074 5.75887 82.8814 5.92298 84.4031 6.55222C85.9248 7.18146 87.2259 8.24758 88.142 9.61591C89.058 10.9842 89.548 12.5934 89.55 14.2401C89.5473 16.4512 88.6678 18.5709 87.1043 20.1344C85.5409 21.6979 83.4211 22.5774 81.21 22.5801Z" fill="#54AEDF"/>
<path d="M119.79 38.0701C119.332 38.0218 118.871 37.9985 118.41 38.0001C114.643 38.0027 111.031 39.501 108.369 42.1656C105.706 44.8302 104.21 48.4431 104.21 52.2101C104.208 52.6677 104.232 53.125 104.28 53.5801L15.5601 142.31C15.1117 142.261 14.661 142.238 14.2101 142.24C10.4413 142.24 6.82696 143.737 4.16207 146.402C1.49718 149.067 5.58228e-05 152.681 5.58228e-05 156.45C-0.00130091 156.904 0.0220743 157.358 0.0700631 157.81C0.377921 160.994 1.75077 163.98 3.96655 166.287C6.18232 168.593 9.11145 170.085 12.2801 170.52C12.9095 170.609 13.5444 170.652 14.1801 170.65C17.9488 170.65 21.5632 169.153 24.228 166.488C26.8929 163.823 28.3901 160.209 28.3901 156.44C28.3873 155.805 28.3438 155.17 28.2601 154.54L116.51 66.3001C117.137 66.3839 117.768 66.4273 118.4 66.4301C120.267 66.4314 122.116 66.0648 123.841 65.3513C125.566 64.6378 127.134 63.5913 128.455 62.2716C129.775 60.952 130.823 59.385 131.537 57.6603C132.252 55.9356 132.62 54.087 132.62 52.2201C132.617 51.5846 132.574 50.95 132.49 50.3201C132.065 47.145 130.579 44.2069 128.274 41.9831C125.968 39.7592 122.978 38.3802 119.79 38.0701ZM5.86006 156.44C5.85808 154.792 6.34495 153.181 7.25906 151.809C8.17317 150.438 9.47344 149.369 10.9954 148.737C12.5173 148.105 14.1925 147.939 15.809 148.259C17.4255 148.579 18.9107 149.372 20.0767 150.536C21.2427 151.701 22.037 153.185 22.3593 154.801C22.6815 156.417 22.5171 158.093 21.8869 159.616C21.2567 161.138 20.1891 162.44 18.819 163.355C17.4489 164.271 15.838 164.76 14.1901 164.76C11.9833 164.757 9.86763 163.88 8.30631 162.321C6.745 160.761 5.86535 158.647 5.86006 156.44ZM110.07 52.1901C110.07 50.543 110.558 48.9329 111.473 47.5632C112.388 46.1936 113.688 45.1259 115.21 44.4951C116.732 43.8644 118.406 43.6988 120.021 44.0194C121.637 44.34 123.121 45.1324 124.287 46.2964C125.452 47.4603 126.246 48.9437 126.569 50.5589C126.891 52.1741 126.728 53.8486 126.099 55.3709C125.47 56.8932 124.404 58.1949 123.035 59.1114C121.667 60.0279 120.057 60.5181 118.41 60.5201C116.2 60.5201 114.08 59.6428 112.516 58.0809C110.953 56.519 110.073 54.4003 110.07 52.1901Z" fill="#54AEDF"/>
</svg>
