<svg width="639" height="333" viewBox="0 0 639 333" fill="none" xmlns="http://www.w3.org/2000/svg">
<path d="M316.818 28.3925C317.349 28.453 317.883 28.4831 318.418 28.4825C320.284 28.4838 322.132 28.1176 323.856 27.4047C325.581 26.6917 327.148 25.6462 328.469 24.3276C329.789 23.009 330.837 21.4432 331.552 19.7197C332.267 17.9961 332.636 16.1486 332.638 14.2825C332.636 13.502 332.572 12.723 332.448 11.9525C331.943 8.91271 330.463 6.11952 328.232 3.99452C326.001 1.86951 323.138 0.528018 320.078 0.1725C319.514 0.10037 318.946 0.0636312 318.378 0.0625C316.512 0.0638128 314.664 0.432665 312.94 1.148C311.217 1.86333 309.651 2.91113 308.333 4.23158C307.014 5.55203 305.968 7.11927 305.255 8.84381C304.543 10.5683 304.176 12.4164 304.178 14.2825C304.176 14.844 304.209 15.4051 304.278 15.9625L15.9476 304.323C15.4005 304.251 14.8494 304.214 14.2976 304.212C12.4307 304.211 10.5818 304.578 8.85663 305.291C7.13144 306.005 5.56376 307.051 4.24318 308.371C2.9226 309.691 1.87501 311.258 1.16026 312.982C0.44552 314.707 0.0776363 316.556 0.0776367 318.422C0.0803536 318.971 0.117091 319.519 0.187637 320.062C0.551275 323.116 1.89638 325.969 4.02071 328.193C6.14504 330.416 8.93378 331.89 11.9676 332.392C12.1976 332.392 12.4376 332.472 12.6876 332.492C14.676 332.718 16.6896 332.521 18.5965 331.914C20.5034 331.307 22.2607 330.304 23.7532 328.971C25.2457 327.638 26.4399 326.005 27.2575 324.179C28.0751 322.352 28.4977 320.374 28.4976 318.372C28.4987 317.838 28.4686 317.304 28.4076 316.772L316.818 28.3925ZM326.758 14.2825C326.756 15.93 326.265 17.5399 325.348 18.9087C324.431 20.2775 323.129 21.3436 321.606 21.9722C320.083 22.6009 318.408 22.7638 316.793 22.4405C315.177 22.1171 313.694 21.322 312.53 20.1556C311.367 18.9892 310.575 17.504 310.256 15.8878C309.936 14.2715 310.103 12.5969 310.736 11.0755C311.368 9.55416 312.437 8.25447 313.808 7.3408C315.179 6.42714 316.79 5.94052 318.438 5.9425C319.532 5.94381 320.614 6.16057 321.625 6.58041C322.635 7.00024 323.552 7.61493 324.325 8.38937C325.098 9.16381 325.71 10.0828 326.127 11.094C326.545 12.1051 326.759 13.1886 326.758 14.2825ZM5.95764 318.432C5.95566 316.785 6.44227 315.174 7.35594 313.803C8.26961 312.432 9.56929 311.363 11.0906 310.73C12.612 310.098 14.2867 309.931 15.9029 310.251C17.5192 310.57 19.0044 311.362 20.1708 312.525C21.3371 313.689 22.1323 315.172 22.4556 316.788C22.779 318.403 22.616 320.078 21.9874 321.601C21.3587 323.124 20.2926 324.426 18.9238 325.343C17.5551 326.26 15.9452 326.751 14.2976 326.753C12.09 326.75 9.97324 325.873 8.41033 324.314C6.84742 322.755 5.96557 320.64 5.95764 318.432Z" fill="#54AEDF"/>
<path d="M320.008 66.7825C319.488 66.7825 318.958 66.7025 318.418 66.7025C316.553 66.7025 314.706 67.0698 312.983 67.7834C311.261 68.497 309.695 69.543 308.377 70.8616C307.058 72.1802 306.012 73.7456 305.298 75.4684C304.585 77.1912 304.218 79.0377 304.218 80.9025C304.218 81.4525 304.218 81.9725 304.298 82.4925L82.5075 304.293C81.9875 304.293 81.5075 304.213 80.9175 304.213C77.1505 304.215 73.5387 305.713 70.876 308.378C68.2133 311.043 66.7175 314.656 66.7175 318.423C66.7175 318.963 66.7175 319.493 66.7975 320.003C67.1565 323.184 68.5777 326.151 70.8314 328.425C73.0851 330.698 76.0396 332.146 79.2175 332.533C79.7782 332.601 80.3427 332.635 80.9075 332.633C82.7745 332.634 84.6233 332.267 86.3485 331.554C88.0737 330.84 89.6414 329.794 90.962 328.474C92.2826 327.154 93.3302 325.587 94.0449 323.863C94.7596 322.138 95.1275 320.289 95.1275 318.423C95.1297 317.854 95.0963 317.287 95.0275 316.723L316.728 95.0625C317.288 95.1313 317.853 95.1647 318.418 95.1625C320.285 95.1638 322.135 94.7969 323.861 94.0828C325.587 93.3686 327.155 92.3212 328.476 91.0005C329.796 89.6798 330.844 88.1117 331.558 86.3858C332.272 84.66 332.639 82.8103 332.638 80.9425C332.64 80.3776 332.606 79.8132 332.538 79.2525C332.161 76.0656 330.718 73.0995 328.444 70.8358C326.169 68.5721 323.196 67.1437 320.008 66.7825ZM72.5975 318.433C72.5955 316.784 73.0827 315.172 73.9972 313.801C74.9118 312.429 76.2126 311.36 77.7352 310.729C79.2577 310.097 80.9334 309.931 82.5502 310.252C84.167 310.573 85.6522 311.367 86.8177 312.532C87.9833 313.698 88.7769 315.183 89.098 316.8C89.419 318.417 89.2532 320.092 88.6215 321.615C87.9898 323.137 86.9206 324.438 85.5492 325.353C84.1778 326.267 82.5659 326.754 80.9175 326.753C78.7125 326.747 76.5994 325.869 75.0402 324.31C73.4811 322.751 72.6028 320.637 72.5975 318.433ZM326.758 80.9025C326.76 82.5509 326.272 84.1628 325.358 85.5342C324.443 86.9056 323.142 87.9748 321.62 88.6065C320.097 89.2382 318.422 89.404 316.805 89.0829C315.188 88.7618 313.703 87.9683 312.537 86.8027C311.372 85.6371 310.578 84.152 310.257 82.5352C309.936 80.9184 310.102 79.2427 310.734 77.7201C311.365 76.1976 312.434 74.8968 313.806 73.9822C315.177 73.0677 316.789 72.5805 318.438 72.5825C320.642 72.5878 322.756 73.4661 324.315 75.0252C325.874 76.5844 326.752 78.6975 326.758 80.9025Z" fill="#54AEDF"/>
<path d="M319.908 133.412C319.412 133.364 318.915 133.341 318.418 133.342C314.651 133.342 311.04 134.839 308.377 137.502C305.714 140.165 304.218 143.776 304.218 147.542C304.216 148.04 304.239 148.537 304.288 149.032L149.078 304.282C147.1 304.086 145.103 304.305 143.215 304.925C141.327 305.546 139.59 306.554 138.114 307.886C136.639 309.217 135.458 310.842 134.647 312.657C133.837 314.471 133.415 316.435 133.408 318.422C133.406 318.913 133.429 319.404 133.478 319.892C133.813 323.075 135.211 326.051 137.447 328.341C139.682 330.631 142.624 332.101 145.798 332.512C146.398 332.59 147.002 332.626 147.608 332.622C149.474 332.624 151.323 332.257 153.049 331.544C154.774 330.83 156.341 329.784 157.662 328.464C158.983 327.144 160.03 325.577 160.745 323.853C161.46 322.128 161.828 320.279 161.828 318.412C161.828 317.804 161.788 317.196 161.708 316.592L316.658 161.592C317.257 161.673 317.862 161.713 318.468 161.712C320.335 161.714 322.185 161.347 323.911 160.633C325.637 159.919 327.205 158.871 328.526 157.55C329.846 156.23 330.894 154.662 331.608 152.936C332.322 151.21 332.689 149.36 332.688 147.492C332.693 146.887 332.653 146.282 332.568 145.682C332.147 142.511 330.668 139.574 328.37 137.347C326.073 135.12 323.091 133.734 319.908 133.412ZM139.238 318.412C139.236 316.764 139.723 315.152 140.637 313.781C141.552 312.409 142.853 311.34 144.375 310.708C145.898 310.077 147.573 309.911 149.19 310.232C150.807 310.553 152.292 311.347 153.458 312.512C154.623 313.678 155.417 315.163 155.738 316.78C156.059 318.397 155.893 320.072 155.262 321.595C154.63 323.117 153.561 324.418 152.189 325.333C150.818 326.247 149.206 326.734 147.558 326.732C145.356 326.727 143.246 325.852 141.687 324.297C140.129 322.742 139.248 320.634 139.238 318.432V318.412ZM310.078 147.542C310.08 145.896 310.569 144.287 311.486 142.918C312.402 141.55 313.703 140.484 315.224 139.855C316.746 139.225 318.42 139.061 320.035 139.383C321.65 139.705 323.133 140.498 324.298 141.662C325.462 142.827 326.255 144.31 326.577 145.925C326.899 147.54 326.735 149.214 326.105 150.736C325.476 152.257 324.41 153.558 323.042 154.474C321.673 155.391 320.064 155.881 318.418 155.882C316.206 155.882 314.084 155.004 312.52 153.44C310.956 151.876 310.078 149.754 310.078 147.542Z" fill="#54AEDF"/>
<path d="M319.798 200.063C319.339 200.014 318.879 199.991 318.418 199.993C314.651 199.995 311.039 201.493 308.376 204.158C305.713 206.823 304.218 210.436 304.218 214.203C304.216 214.66 304.239 215.117 304.288 215.573L215.568 304.303C215.119 304.254 214.669 304.23 214.218 304.233C210.449 304.233 206.835 305.73 204.17 308.395C201.505 311.059 200.008 314.674 200.008 318.443C200.006 318.897 200.03 319.351 200.078 319.803C200.385 322.986 201.758 325.973 203.974 328.279C206.19 330.586 209.119 332.077 212.288 332.513C212.917 332.601 213.552 332.645 214.188 332.643C217.956 332.643 221.571 331.145 224.236 328.481C226.901 325.816 228.398 322.201 228.398 318.433C228.395 317.797 228.351 317.162 228.268 316.533L316.518 228.293C317.144 228.376 317.775 228.42 318.408 228.423C320.275 228.424 322.123 228.057 323.849 227.344C325.574 226.63 327.142 225.584 328.462 224.264C329.783 222.944 330.83 221.377 331.545 219.653C332.26 217.928 332.628 216.079 332.628 214.213C332.625 213.577 332.581 212.942 332.498 212.313C332.073 209.137 330.587 206.199 328.281 203.975C325.976 201.752 322.986 200.373 319.798 200.063ZM205.868 318.433C205.866 316.785 206.353 315.173 207.267 313.802C208.181 312.431 209.481 311.361 211.003 310.729C212.525 310.097 214.2 309.931 215.817 310.251C217.433 310.572 218.918 311.364 220.084 312.529C221.25 313.693 222.045 315.178 222.367 316.794C222.689 318.41 222.525 320.085 221.894 321.608C221.264 323.131 220.197 324.432 218.827 325.348C217.456 326.264 215.846 326.753 214.198 326.753C211.991 326.75 209.875 325.873 208.314 324.313C206.753 322.754 205.873 320.639 205.868 318.433ZM310.078 214.183C310.078 212.535 310.566 210.925 311.481 209.556C312.396 208.186 313.696 207.118 315.218 206.488C316.739 205.857 318.413 205.691 320.029 206.012C321.645 206.332 323.129 207.125 324.294 208.289C325.46 209.453 326.254 210.936 326.576 212.551C326.899 214.166 326.735 215.841 326.106 217.363C325.477 218.886 324.411 220.187 323.043 221.104C321.674 222.02 320.065 222.511 318.418 222.513C316.207 222.513 314.088 221.635 312.524 220.073C310.96 218.511 310.08 216.393 310.078 214.183Z" fill="#54AEDF"/>
<path d="M319.688 266.663C319.268 266.663 318.848 266.603 318.418 266.603C314.651 266.605 311.039 268.103 308.376 270.768C305.713 273.433 304.218 277.046 304.218 280.813C304.218 281.233 304.218 281.663 304.278 282.083L282.078 304.273C281.658 304.233 281.238 304.213 280.818 304.213C277.051 304.215 273.439 305.713 270.776 308.378C268.113 311.043 266.618 314.656 266.618 318.423C266.618 318.843 266.618 319.253 266.668 319.673C266.955 322.861 268.31 325.86 270.513 328.183C272.716 330.506 275.639 332.017 278.808 332.473C279.47 332.569 280.138 332.616 280.808 332.613C282.677 332.62 284.53 332.259 286.259 331.55C287.989 330.841 289.562 329.797 290.887 328.479C292.213 327.161 293.265 325.594 293.985 323.868C294.704 322.143 295.075 320.292 295.078 318.423C295.077 317.753 295.03 317.085 294.938 316.423L316.438 294.903C317.1 294.995 317.769 295.042 318.438 295.043C320.305 295.044 322.155 294.677 323.881 293.963C325.607 293.249 327.175 292.201 328.496 290.881C329.816 289.56 330.864 287.992 331.578 286.266C332.292 284.54 332.659 282.69 332.658 280.823C332.656 280.153 332.609 279.485 332.518 278.823C332.065 275.645 330.551 272.714 328.222 270.507C325.892 268.299 322.885 266.944 319.688 266.663ZM272.498 318.433C272.494 316.782 272.98 315.167 273.894 313.793C274.809 312.418 276.11 311.346 277.635 310.712C279.159 310.078 280.837 309.911 282.456 310.231C284.076 310.551 285.563 311.345 286.731 312.512C287.899 313.678 288.695 315.165 289.017 316.784C289.339 318.403 289.174 320.081 288.542 321.606C287.91 323.131 286.839 324.434 285.466 325.35C284.093 326.267 282.478 326.755 280.828 326.753C278.622 326.747 276.508 325.869 274.947 324.31C273.386 322.752 272.506 320.638 272.498 318.433ZM310.078 280.813C310.08 279.166 310.57 277.557 311.486 276.188C312.402 274.82 313.703 273.754 315.225 273.125C316.746 272.495 318.42 272.331 320.035 272.653C321.65 272.975 323.133 273.768 324.298 274.932C325.462 276.097 326.255 277.58 326.577 279.195C326.899 280.81 326.735 282.484 326.105 284.006C325.476 285.527 324.41 286.828 323.042 287.745C321.673 288.661 320.064 289.151 318.418 289.153C316.207 289.15 314.087 288.27 312.523 286.707C310.96 285.143 310.08 283.024 310.078 280.813Z" fill="#54AEDF"/>
<path d="M610.328 316.802C610.267 317.334 610.237 317.868 610.238 318.402C610.236 320.269 610.603 322.117 611.316 323.841C612.028 325.566 613.074 327.133 614.393 328.453C615.711 329.774 617.277 330.822 619.001 331.537C620.724 332.252 622.572 332.621 624.438 332.622C625.218 332.62 625.997 332.557 626.768 332.432C629.808 331.928 632.601 330.448 634.726 328.217C636.851 325.985 638.192 323.123 638.548 320.062C638.62 319.499 638.657 318.931 638.658 318.362C638.656 316.496 638.288 314.649 637.572 312.925C636.857 311.202 635.809 309.636 634.489 308.317C633.168 306.999 631.601 305.953 629.876 305.24C628.152 304.527 626.304 304.161 624.438 304.162C623.876 304.161 623.315 304.194 622.758 304.262L334.398 15.9325C334.47 15.3854 334.506 14.8343 334.508 14.2825C334.509 12.4156 334.142 10.5667 333.429 8.8415C332.715 7.11631 331.669 5.54863 330.349 4.22805C329.03 2.90747 327.463 1.85987 325.738 1.14513C324.013 0.430383 322.165 0.0624995 320.298 0.0625C319.749 0.0652169 319.202 0.101954 318.658 0.1725C315.604 0.536138 312.751 1.88124 310.528 4.00557C308.304 6.1299 306.83 8.91864 306.328 11.9525C306.328 12.1825 306.248 12.4225 306.228 12.6725C306.002 14.6609 306.2 16.6745 306.806 18.5814C307.413 20.4883 308.416 22.2455 309.749 23.738C311.082 25.2306 312.715 26.4247 314.542 27.2423C316.368 28.0599 318.347 28.4825 320.348 28.4825C320.882 28.4836 321.417 28.4535 321.948 28.3925L610.328 316.802ZM624.438 326.742C622.79 326.74 621.18 326.25 619.812 325.333C618.443 324.416 617.377 323.114 616.748 321.591C616.119 320.068 615.956 318.393 616.28 316.778C616.603 315.162 617.398 313.679 618.565 312.515C619.731 311.352 621.216 310.56 622.832 310.241C624.449 309.921 626.123 310.088 627.645 310.72C629.166 311.353 630.466 312.422 631.379 313.793C632.293 315.164 632.78 316.775 632.778 318.422C632.776 319.516 632.56 320.599 632.14 321.609C631.72 322.62 631.105 323.537 630.331 324.31C629.556 325.082 628.637 325.695 627.626 326.112C626.615 326.53 625.532 326.744 624.438 326.742ZM320.288 5.9425C321.935 5.94052 323.546 6.42714 324.917 7.3408C326.288 8.25447 327.358 9.55416 327.99 11.0755C328.622 12.5969 328.789 14.2715 328.47 15.8878C328.15 17.504 327.359 18.9892 326.195 20.1556C325.031 21.322 323.548 22.1171 321.933 22.4405C320.317 22.7638 318.642 22.6009 317.119 21.9722C315.596 21.3436 314.294 20.2775 313.377 18.9087C312.46 17.5399 311.97 15.93 311.968 14.2825C311.97 12.0749 312.847 9.95811 314.406 8.3952C315.965 6.83229 318.08 5.95043 320.288 5.9425Z" fill="#54AEDF"/>
<path d="M571.938 319.992C571.938 319.472 572.018 318.942 572.018 318.402C572.018 316.538 571.651 314.691 570.937 312.968C570.223 311.246 569.177 309.68 567.859 308.362C566.54 307.043 564.975 305.997 563.252 305.283C561.529 304.57 559.683 304.203 557.818 304.203C557.268 304.203 556.748 304.203 556.228 304.283L334.428 82.4925C334.428 81.9725 334.508 81.4925 334.508 80.9025C334.505 77.1355 333.007 73.5237 330.342 70.861C327.678 68.1983 324.065 66.7025 320.298 66.7025C319.758 66.7025 319.228 66.7025 318.718 66.7825C315.537 67.1415 312.569 68.5627 310.296 70.8164C308.022 73.0701 306.575 76.0246 306.188 79.2025C306.119 79.7632 306.086 80.3276 306.088 80.8925C306.087 82.7594 306.453 84.6083 307.167 86.3335C307.88 88.0587 308.927 89.6264 310.246 90.947C311.566 92.2675 313.133 93.3151 314.858 94.0299C316.582 94.7446 318.431 95.1125 320.298 95.1125C320.866 95.1147 321.434 95.0813 321.998 95.0125L543.658 316.712C543.589 317.273 543.556 317.838 543.558 318.402C543.557 320.27 543.923 322.12 544.638 323.846C545.352 325.572 546.399 327.14 547.72 328.46C549.041 329.781 550.609 330.829 552.335 331.543C554.06 332.257 555.91 332.624 557.778 332.623C558.343 332.625 558.907 332.591 559.468 332.523C562.655 332.146 565.621 330.703 567.885 328.429C570.148 326.154 571.577 323.181 571.938 319.992ZM320.288 72.5825C321.936 72.5805 323.548 73.0677 324.919 73.9822C326.291 74.8968 327.36 76.1976 327.992 77.7201C328.624 79.2427 328.789 80.9184 328.468 82.5352C328.147 84.152 327.354 85.6371 326.188 86.8027C325.022 87.9683 323.537 88.7618 321.92 89.0829C320.304 89.404 318.628 89.2382 317.105 88.6065C315.583 87.9748 314.282 86.9056 313.368 85.5342C312.453 84.1628 311.966 82.5509 311.968 80.9025C311.973 78.6975 312.851 76.5844 314.411 75.0252C315.97 73.4661 318.083 72.5878 320.288 72.5825ZM557.818 326.743C556.169 326.744 554.558 326.257 553.186 325.343C551.815 324.428 550.746 323.127 550.114 321.605C549.482 320.082 549.316 318.407 549.637 316.79C549.958 315.173 550.752 313.688 551.918 312.522C553.083 311.357 554.568 310.563 556.185 310.242C557.802 309.921 559.478 310.087 561 310.719C562.523 311.35 563.824 312.419 564.738 313.791C565.653 315.162 566.14 316.774 566.138 318.422C566.133 320.627 565.254 322.741 563.695 324.3C562.136 325.859 560.023 326.737 557.818 326.743Z" fill="#54AEDF"/>
<path d="M505.308 319.892C505.356 319.397 505.379 318.9 505.378 318.403C505.378 314.636 503.882 311.025 501.219 308.362C498.556 305.699 494.944 304.203 491.178 304.203C490.68 304.201 490.183 304.224 489.688 304.272L334.438 149.063C334.634 147.085 334.415 145.088 333.795 143.2C333.174 141.312 332.166 139.575 330.834 138.099C329.503 136.624 327.878 135.443 326.063 134.632C324.249 133.822 322.285 133.399 320.298 133.393C319.807 133.391 319.316 133.414 318.828 133.463C315.645 133.798 312.669 135.196 310.379 137.432C308.089 139.667 306.62 142.609 306.208 145.783C306.131 146.383 306.094 146.987 306.098 147.593C306.096 149.459 306.463 151.308 307.176 153.034C307.89 154.759 308.936 156.326 310.256 157.647C311.576 158.968 313.143 160.015 314.867 160.73C316.592 161.445 318.441 161.813 320.308 161.813C320.916 161.813 321.524 161.773 322.128 161.693L477.128 316.642C477.047 317.242 477.007 317.847 477.008 318.453C477.006 320.32 477.373 322.17 478.087 323.896C478.802 325.622 479.849 327.19 481.17 328.511C482.49 329.831 484.058 330.879 485.784 331.593C487.51 332.307 489.36 332.674 491.228 332.672C491.833 332.678 492.438 332.638 493.038 332.552C496.209 332.132 499.147 330.653 501.373 328.355C503.6 326.058 504.986 323.076 505.308 319.892ZM320.308 139.223C321.956 139.221 323.568 139.708 324.939 140.622C326.311 141.537 327.38 142.838 328.012 144.36C328.643 145.883 328.809 147.558 328.488 149.175C328.167 150.792 327.373 152.277 326.208 153.443C325.042 154.608 323.557 155.402 321.94 155.723C320.323 156.044 318.648 155.878 317.125 155.247C315.603 154.615 314.302 153.546 313.387 152.174C312.473 150.803 311.986 149.191 311.988 147.543C311.993 145.341 312.868 143.231 314.423 141.672C315.978 140.114 318.086 139.233 320.288 139.223H320.308ZM491.178 310.063C492.824 310.064 494.433 310.554 495.802 311.471C497.17 312.387 498.236 313.688 498.865 315.209C499.495 316.731 499.659 318.405 499.337 320.02C499.015 321.635 498.222 323.118 497.058 324.283C495.893 325.447 494.41 326.24 492.795 326.562C491.18 326.884 489.506 326.72 487.984 326.09C486.463 325.461 485.162 324.395 484.246 323.027C483.33 321.658 482.84 320.049 482.838 318.403C482.838 316.191 483.716 314.069 485.28 312.505C486.844 310.941 488.966 310.063 491.178 310.063Z" fill="#54AEDF"/>
<path d="M438.658 319.782C438.706 319.324 438.729 318.863 438.728 318.402C438.725 314.635 437.227 311.024 434.562 308.361C431.898 305.698 428.285 304.202 424.518 304.203C424.06 304.201 423.603 304.224 423.148 304.272L334.418 215.552C334.466 215.104 334.49 214.653 334.488 214.202C334.488 210.434 332.991 206.819 330.326 204.155C327.661 201.49 324.046 199.992 320.278 199.992C319.823 199.991 319.369 200.015 318.918 200.062C315.734 200.37 312.748 201.743 310.441 203.959C308.135 206.175 306.643 209.104 306.208 212.273C306.119 212.902 306.076 213.537 306.078 214.172C306.078 217.941 307.575 221.556 310.24 224.22C312.905 226.885 316.519 228.382 320.288 228.382C320.923 228.38 321.558 228.336 322.188 228.252L410.428 316.502C410.344 317.129 410.3 317.76 410.298 318.392C410.296 320.259 410.663 322.108 411.376 323.833C412.09 325.559 413.137 327.126 414.456 328.447C415.776 329.768 417.343 330.815 419.067 331.53C420.792 332.245 422.641 332.612 424.508 332.612C425.143 332.61 425.778 332.566 426.408 332.483C429.583 332.058 432.521 330.572 434.745 328.266C436.969 325.961 438.348 322.971 438.658 319.782ZM320.288 205.852C321.936 205.851 323.547 206.337 324.918 207.251C326.29 208.166 327.359 209.466 327.991 210.988C328.623 212.51 328.789 214.185 328.469 215.801C328.149 217.418 327.356 218.903 326.191 220.069C325.027 221.235 323.543 222.029 321.927 222.352C320.31 222.674 318.635 222.51 317.112 221.879C315.59 221.249 314.288 220.182 313.372 218.811C312.457 217.441 311.968 215.83 311.968 214.182C311.97 211.976 312.847 209.86 314.407 208.299C315.966 206.737 318.081 205.858 320.288 205.852ZM424.538 310.062C426.185 310.062 427.795 310.551 429.165 311.466C430.534 312.381 431.602 313.681 432.233 315.202C432.863 316.724 433.029 318.398 432.708 320.014C432.388 321.629 431.595 323.114 430.431 324.279C429.267 325.445 427.784 326.239 426.169 326.561C424.554 326.884 422.879 326.72 421.357 326.091C419.835 325.462 418.533 324.396 417.616 323.028C416.7 321.659 416.21 320.05 416.208 318.402C416.208 316.192 417.085 314.073 418.647 312.509C420.209 310.945 422.328 310.065 424.538 310.062Z" fill="#54AEDF"/>
<path d="M372.058 319.673C372.058 319.253 372.118 318.833 372.118 318.403C372.115 314.636 370.617 311.024 367.952 308.361C365.288 305.698 361.675 304.203 357.908 304.203C357.488 304.203 357.058 304.203 356.638 304.263L334.448 282.063C334.488 281.643 334.508 281.223 334.508 280.803C334.505 277.036 333.007 273.424 330.342 270.761C327.678 268.098 324.065 266.603 320.298 266.603C319.878 266.603 319.468 266.603 319.048 266.653C315.859 266.94 312.861 268.294 310.538 270.498C308.215 272.701 306.703 275.624 306.248 278.793C306.151 279.455 306.104 280.123 306.108 280.793C306.1 282.662 306.461 284.515 307.17 286.244C307.88 287.974 308.923 289.547 310.241 290.872C311.56 292.198 313.126 293.25 314.852 293.969C316.578 294.688 318.428 295.06 320.298 295.063C320.967 295.062 321.635 295.015 322.298 294.923L343.818 316.423C343.725 317.085 343.678 317.753 343.678 318.423C343.676 320.29 344.043 322.14 344.757 323.866C345.472 325.592 346.519 327.16 347.84 328.481C349.16 329.801 350.729 330.849 352.454 331.563C354.18 332.277 356.03 332.644 357.898 332.643C358.567 332.641 359.235 332.594 359.898 332.503C363.075 332.05 366.006 330.536 368.213 328.207C370.421 325.877 371.776 322.869 372.058 319.673ZM320.288 272.483C321.938 272.479 323.553 272.965 324.928 273.879C326.302 274.793 327.374 276.095 328.008 277.619C328.642 279.144 328.809 280.822 328.489 282.441C328.169 284.06 327.375 285.548 326.208 286.716C325.042 287.884 323.555 288.68 321.936 289.002C320.317 289.324 318.639 289.159 317.114 288.527C315.589 287.895 314.286 286.824 313.37 285.451C312.454 284.078 311.966 282.463 311.968 280.813C311.973 278.607 312.851 276.492 314.41 274.932C315.969 273.371 318.082 272.49 320.288 272.483ZM357.908 310.063C359.554 310.065 361.164 310.554 362.532 311.471C363.9 312.387 364.966 313.688 365.596 315.209C366.225 316.731 366.389 318.405 366.067 320.02C365.745 321.635 364.952 323.118 363.788 324.283C362.624 325.447 361.14 326.24 359.525 326.562C357.91 326.884 356.236 326.72 354.715 326.09C353.193 325.461 351.892 324.395 350.976 323.027C350.06 321.658 349.57 320.049 349.568 318.403C349.57 316.191 350.45 314.072 352.013 312.508C353.577 310.945 355.697 310.065 357.908 310.063Z" fill="#54AEDF"/>
</svg>
