<svg width="67" height="67" viewBox="0 0 67 67" fill="none" xmlns="http://www.w3.org/2000/svg">
<path d="M0.0599976 12.9701C0.0599976 13.3901 0 13.8101 0 14.2401C0.00265095 18.007 1.50092 21.6189 4.16553 24.2816C6.83013 26.9443 10.443 28.44 14.21 28.44C14.63 28.44 15.06 28.44 15.48 28.38L37.67 50.58C37.63 51 37.61 51.4201 37.61 51.8401C37.6126 55.6071 39.1109 59.2188 41.7755 61.8816C44.4401 64.5443 48.053 66.04 51.82 66.04C52.24 66.04 52.65 66.0401 53.07 65.9901C56.2587 65.7029 59.2571 64.3481 61.5801 62.1449C63.9031 59.9417 65.4146 57.0191 65.87 53.85C65.9665 53.1878 66.0133 52.5193 66.01 51.85C66.0179 49.9806 65.6568 48.128 64.9475 46.3983C64.2381 44.6687 63.1945 43.0959 61.8763 41.7703C60.5581 40.4447 58.9913 39.3922 57.2657 38.6732C55.54 37.9541 53.6894 37.5827 51.82 37.58C51.1509 37.5808 50.4826 37.6276 49.82 37.7201L28.3 16.2201C28.3929 15.5574 28.4397 14.8892 28.44 14.2201C28.4413 12.3523 28.0744 10.5026 27.3602 8.77673C26.6461 7.05089 25.5987 5.48276 24.278 4.16205C22.9573 2.84134 21.3891 1.79396 19.6633 1.0798C17.9375 0.365647 16.0878 -0.00125383 14.22 6.10352e-05C13.5509 0.00165026 12.8828 0.0484075 12.22 0.140045C9.04271 0.592591 6.11193 2.10664 3.90421 4.436C1.69648 6.76537 0.341645 9.77308 0.0599976 12.9701ZM51.83 60.16C50.1792 60.164 48.5644 59.678 47.1901 58.7635C45.8157 57.8491 44.7437 56.5474 44.1096 55.0232C43.4756 53.499 43.3082 51.821 43.6285 50.2016C43.9489 48.5822 44.7426 47.0943 45.9092 45.9263C47.0758 44.7584 48.5627 43.9629 50.1817 43.6406C51.8007 43.3183 53.4789 43.4837 55.0039 44.1159C56.5288 44.7481 57.8318 45.8186 58.7479 47.1918C59.664 48.5651 60.152 50.1793 60.15 51.83C60.1447 54.036 59.2668 56.1502 57.7079 57.7109C56.149 59.2717 54.0359 60.1521 51.83 60.16ZM14.21 22.58C12.5633 22.5781 10.9542 22.0881 9.58585 21.172C8.21752 20.256 7.15139 18.9549 6.52216 17.4332C5.89292 15.9115 5.7288 14.2374 6.05054 12.6225C6.37227 11.0076 7.16543 9.52423 8.3298 8.35986C9.49417 7.19549 10.9775 6.40233 12.5924 6.0806C14.2074 5.75886 15.8814 5.92298 17.4031 6.55222C18.9248 7.18145 20.2259 8.24758 21.142 9.61591C22.058 10.9842 22.548 12.5934 22.55 14.2401C22.5473 16.4511 21.6678 18.5709 20.1043 20.1344C18.5409 21.6979 16.4211 22.5774 14.21 22.58Z" fill="#54AEDF"/>
</svg>
