<svg width="541" height="541" viewBox="0 0 541 541" fill="none" xmlns="http://www.w3.org/2000/svg">
<path d="M514.845 46.049C515.709 46.1474 516.577 46.1962 517.446 46.1953C520.479 46.1974 523.483 45.6021 526.286 44.4433C529.09 43.2845 531.637 41.5849 533.783 39.4416C535.93 37.2983 537.633 34.7533 538.796 31.9517C539.958 29.1502 540.558 26.1471 540.56 23.1139C540.557 21.8453 540.453 20.5789 540.251 19.3266C539.431 14.3856 537.026 9.84538 533.399 6.39129C529.772 2.93721 525.12 0.756676 520.144 0.178799C519.228 0.0615555 518.305 0.00183878 517.381 0C514.348 0.00213382 511.345 0.601685 508.543 1.76442C505.742 2.92716 503.197 4.63031 501.053 6.77663C498.91 8.92296 497.21 11.4704 496.052 14.2736C494.893 17.0767 494.298 20.0807 494.3 23.1139C494.297 24.0266 494.351 24.9387 494.462 25.8446L25.7959 494.559C24.9066 494.442 24.0108 494.383 23.1139 494.38C20.0793 494.378 17.074 494.974 14.2698 496.134C11.4656 497.294 8.91743 498.995 6.77089 501.14C4.62436 503.285 2.92154 505.832 1.75976 508.635C0.597976 511.439 -7.51419e-07 514.443 0 517.478C0.00441618 518.369 0.0641308 519.26 0.1788 520.144C0.769876 525.107 2.95628 529.745 6.40927 533.359C9.86227 536.973 14.3952 539.369 19.3266 540.186C19.7005 540.186 20.0906 540.316 20.4969 540.348C23.729 540.714 27.0019 540.394 30.1015 539.407C33.2011 538.421 36.0574 536.791 38.4834 534.625C40.9095 532.458 42.8505 529.803 44.1795 526.834C45.5085 523.866 46.1954 520.649 46.1953 517.397C46.197 516.528 46.1482 515.659 46.049 514.796L514.845 46.049ZM531.002 23.1139C530.999 25.7918 530.202 28.4087 528.711 30.6336C527.221 32.8584 525.104 34.5913 522.629 35.6132C520.154 36.635 517.431 36.8999 514.805 36.3743C512.179 35.8487 509.768 34.5562 507.877 32.6603C505.985 30.7645 504.699 28.3503 504.179 25.7232C503.66 23.0961 503.931 20.374 504.959 17.9011C505.987 15.4282 507.725 13.3156 509.953 11.8305C512.182 10.3454 514.801 9.55443 517.479 9.55764C519.257 9.55978 521.017 9.91211 522.659 10.5945C524.301 11.2769 525.792 12.2761 527.048 13.5349C528.304 14.7937 529.299 16.2876 529.978 17.9311C530.656 19.5747 531.004 21.3358 531.002 23.1139ZM9.55765 517.494C9.55444 514.816 10.3454 512.198 11.8305 509.969C13.3156 507.741 15.4282 506.003 17.9011 504.975C20.374 503.947 23.0961 503.676 25.7232 504.195C28.3504 504.714 30.7645 506.001 32.6604 507.892C34.5563 509.784 35.8487 512.195 36.3743 514.821C36.8999 517.446 36.635 520.169 35.6132 522.645C34.5914 525.12 32.8584 527.237 30.6336 528.727C28.4087 530.218 25.7919 531.015 23.1139 531.018C19.5255 531.014 16.0848 529.589 13.5444 527.054C11.004 524.52 9.57054 521.083 9.55765 517.494Z" fill="#54AEDF"/>
</svg>
