<svg width="471" height="515" viewBox="0 0 471 515" fill="none" xmlns="http://www.w3.org/2000/svg">
<path d="M439.134 244.646C439.467 245.065 439.824 245.464 440.202 245.841C441.521 247.162 443.086 248.21 444.81 248.925C446.534 249.64 448.381 250.009 450.247 250.01C452.113 250.012 453.961 249.645 455.686 248.933C457.41 248.22 458.978 247.174 460.298 245.856C460.849 245.302 461.355 244.706 461.811 244.074C463.604 241.567 464.533 238.546 464.458 235.466C464.382 232.385 463.307 229.413 461.394 226.997C461.046 226.547 460.671 226.12 460.27 225.717C458.949 224.399 457.382 223.353 455.658 222.64C453.933 221.927 452.085 221.561 450.219 221.562C448.353 221.563 446.505 221.932 444.782 222.648C443.058 223.363 441.492 224.411 440.174 225.731C439.775 226.127 439.402 226.547 439.057 226.99L31.2752 227.011C30.9391 226.573 30.5754 226.158 30.1863 225.767C28.8671 224.446 27.3005 223.397 25.5761 222.682C23.8517 221.967 22.0032 221.598 20.1362 221.598C18.2693 221.597 16.4205 221.964 14.6956 222.678C12.9707 223.392 11.4034 224.439 10.0833 225.76C9.69739 226.149 9.33606 226.563 9.00137 226.997C7.09927 229.413 6.03298 232.382 5.96285 235.456C5.89272 238.531 6.82254 241.545 8.61247 244.045C8.77511 244.208 8.88824 244.434 9.05087 244.625C10.2976 246.19 11.8608 247.475 13.6383 248.394C15.4157 249.313 17.3673 249.847 19.3652 249.96C21.3632 250.073 23.3624 249.762 25.2321 249.049C27.1017 248.335 28.7996 247.235 30.2146 245.82C30.5934 245.443 30.9499 245.044 31.2823 244.625L439.134 244.646ZM456.14 241.698C454.974 242.861 453.489 243.653 451.873 243.972C450.256 244.292 448.582 244.125 447.06 243.493C445.539 242.86 444.239 241.791 443.326 240.42C442.412 239.049 441.925 237.438 441.927 235.79C441.929 234.143 442.42 232.533 443.337 231.164C444.254 229.795 445.556 228.729 447.079 228.101C448.602 227.472 450.277 227.309 451.892 227.632C453.508 227.956 454.991 228.751 456.154 229.917C456.927 230.692 457.54 231.611 457.957 232.622C458.374 233.633 458.589 234.717 458.587 235.81C458.586 236.904 458.369 237.987 457.949 238.997C457.529 240.008 456.915 240.925 456.14 241.698ZM14.234 229.924C15.3975 228.758 16.8808 227.963 18.4963 227.64C20.1118 227.316 21.7869 227.479 23.3097 228.108C24.8326 228.736 26.1349 229.803 27.0518 231.171C27.9688 232.54 28.4592 234.15 28.4612 235.798C28.4632 237.445 27.9766 239.056 27.0629 240.427C26.1492 241.798 24.8496 242.867 23.3282 243.5C21.8069 244.132 20.1322 244.299 18.5159 243.979C16.8997 243.66 15.4145 242.868 14.2481 241.705C12.6889 240.142 11.8121 238.025 11.8095 235.818C11.8068 233.61 12.6785 231.491 14.234 229.924Z" fill="#54AEDF"/>
<path d="M414.244 274.048C413.877 273.68 413.558 273.249 413.177 272.867C411.858 271.548 410.293 270.502 408.57 269.789C406.847 269.075 405 268.708 403.136 268.708C401.271 268.708 399.424 269.075 397.702 269.789C395.979 270.502 394.413 271.548 393.095 272.867C392.706 273.256 392.338 273.624 392.027 274.048L78.3615 274.055C77.9938 273.687 77.7109 273.291 77.2937 272.874C74.6282 270.212 71.0148 268.718 67.2478 268.719C63.4808 268.72 59.8685 270.217 57.2048 272.881C56.823 273.263 56.4482 273.638 56.1442 274.055C54.1486 276.558 53.0554 279.661 53.0413 282.863C53.0271 286.064 54.0929 289.176 56.0664 291.697C56.4142 292.142 56.7897 292.565 57.1907 292.963C58.5099 294.284 60.0765 295.332 61.8009 296.047C63.5253 296.763 65.3738 297.131 67.2407 297.132C69.1077 297.133 70.9565 296.765 72.6814 296.051C74.4063 295.337 75.9736 294.29 77.2938 292.97C77.6971 292.57 78.0749 292.145 78.4251 291.697L391.928 291.725C392.276 292.171 392.651 292.593 393.052 292.991C394.372 294.313 395.939 295.361 397.665 296.077C399.39 296.792 401.24 297.16 403.107 297.16C404.975 297.16 406.825 296.792 408.55 296.077C410.275 295.361 411.843 294.313 413.162 292.991C413.563 292.593 413.939 292.171 414.287 291.726C416.274 289.206 417.351 286.088 417.343 282.879C417.336 279.67 416.244 276.558 414.244 274.048ZM61.3556 277.046C62.5197 275.879 64.004 275.084 65.6204 274.761C67.2368 274.438 68.9127 274.601 70.4359 275.231C71.9592 275.861 73.2614 276.929 74.1776 278.299C75.0938 279.669 75.5828 281.281 75.5828 282.929C75.5828 284.577 75.0938 286.189 74.1776 287.559C73.2614 288.929 71.9592 289.997 70.436 290.627C68.9127 291.257 67.2368 291.421 65.6203 291.098C64.0039 290.775 62.5197 289.979 61.3556 288.812C59.8001 287.249 58.9269 285.134 58.9269 282.929C58.9269 280.724 59.8001 278.609 61.3556 277.046ZM409.033 288.805C407.869 289.972 406.384 290.767 404.768 291.09C403.152 291.414 401.476 291.25 399.952 290.62C398.429 289.99 397.127 288.922 396.211 287.552C395.295 286.182 394.806 284.57 394.806 282.922C394.806 281.274 395.295 279.662 396.211 278.292C397.127 276.922 398.429 275.854 399.952 275.224C401.476 274.594 403.152 274.431 404.768 274.754C406.384 275.077 407.869 275.872 409.033 277.039C410.588 278.602 411.462 280.717 411.462 282.922C411.462 285.127 410.588 287.242 409.033 288.805Z" fill="#54AEDF"/>
<path d="M367.059 321.092C366.743 320.707 366.408 320.339 366.055 319.989C363.392 317.326 359.78 315.83 356.014 315.83C352.248 315.83 348.636 317.326 345.973 319.989C345.62 320.339 345.285 320.707 344.969 321.092L125.44 321.12C124.181 319.583 122.614 318.326 120.84 317.429C119.067 316.533 117.125 316.017 115.14 315.916C113.156 315.814 111.172 316.128 109.315 316.838C107.459 317.548 105.772 318.638 104.362 320.038C104.014 320.384 103.683 320.748 103.372 321.127C101.359 323.615 100.243 326.708 100.204 329.908C100.166 333.108 101.207 336.227 103.159 338.762C103.529 339.241 103.931 339.695 104.362 340.12C105.681 341.441 107.247 342.489 108.972 343.205C110.696 343.92 112.545 344.288 114.412 344.289C116.279 344.29 118.127 343.923 119.852 343.208C121.577 342.494 123.145 341.447 124.465 340.127C124.896 339.697 125.297 339.239 125.667 338.755L344.834 338.72C345.202 339.201 345.601 339.657 346.029 340.085C347.349 341.406 348.917 342.455 350.642 343.17C352.367 343.886 354.217 344.254 356.085 344.254C357.952 344.254 359.802 343.886 361.527 343.17C363.252 342.455 364.82 341.406 366.14 340.085C366.572 339.66 366.971 339.204 367.335 338.72C369.28 336.18 370.311 333.057 370.261 329.858C370.211 326.659 369.083 323.57 367.059 321.092ZM108.491 324.154C109.655 322.987 111.139 322.191 112.756 321.868C114.372 321.545 116.048 321.709 117.571 322.339C119.095 322.969 120.397 324.036 121.313 325.407C122.229 326.777 122.718 328.388 122.718 330.037C122.718 331.685 122.229 333.296 121.313 334.667C120.397 336.037 119.095 337.105 117.571 337.734C116.048 338.364 114.372 338.528 112.756 338.205C111.139 337.882 109.655 337.087 108.491 335.92C106.938 334.359 106.065 332.248 106.062 330.047C106.06 327.845 106.928 325.732 108.477 324.168L108.491 324.154ZM350.117 324.132C351.282 322.969 352.767 322.178 354.382 321.858C355.997 321.538 357.671 321.705 359.192 322.336C360.713 322.967 362.013 324.034 362.927 325.404C363.842 326.773 364.33 328.383 364.33 330.03C364.33 331.676 363.842 333.286 362.927 334.655C362.013 336.025 360.713 337.093 359.192 337.724C357.671 338.355 355.997 338.521 354.382 338.201C352.767 337.881 351.282 337.09 350.117 335.927C348.552 334.363 347.674 332.241 347.674 330.03C347.674 327.818 348.552 325.696 350.117 324.132Z" fill="#54AEDF"/>
<path d="M319.853 368.143C319.563 367.784 319.253 367.442 318.926 367.117C316.261 364.455 312.647 362.961 308.88 362.962C305.113 362.964 301.501 364.461 298.837 367.124C298.512 367.447 298.206 367.787 297.918 368.143L172.442 368.15C172.159 367.798 171.857 367.463 171.537 367.146C168.872 364.481 165.258 362.984 161.489 362.984C157.72 362.984 154.106 364.481 151.441 367.146C151.119 367.466 150.814 367.803 150.529 368.157C148.495 370.626 147.354 373.708 147.29 376.906C147.226 380.104 148.242 383.229 150.175 385.778C150.558 386.286 150.976 386.765 151.427 387.213C154.092 389.878 157.706 391.375 161.475 391.375C165.244 391.375 168.858 389.878 171.523 387.213C171.97 386.762 172.388 386.282 172.774 385.778L297.572 385.785C297.955 386.287 298.371 386.764 298.816 387.213C300.135 388.534 301.702 389.582 303.426 390.298C305.151 391.013 306.999 391.382 308.866 391.382C310.733 391.383 312.582 391.016 314.307 390.302C316.032 389.588 317.599 388.54 318.919 387.22C319.367 386.769 319.785 386.29 320.171 385.785C322.115 383.239 323.142 380.111 323.085 376.908C323.027 373.706 321.888 370.616 319.853 368.143ZM155.592 371.282C156.756 370.115 158.239 369.32 159.855 368.997C161.471 368.674 163.147 368.837 164.67 369.466C166.193 370.096 167.495 371.163 168.412 372.532C169.328 373.902 169.818 375.512 169.819 377.16C169.82 378.808 169.332 380.419 168.417 381.79C167.502 383.161 166.201 384.229 164.679 384.86C163.157 385.491 161.481 385.657 159.865 385.335C158.249 385.014 156.764 384.221 155.599 383.055C154.04 381.493 153.164 379.377 153.163 377.17C153.162 374.964 154.035 372.846 155.592 371.282ZM302.995 371.254C304.16 370.089 305.644 369.296 307.259 368.974C308.874 368.653 310.549 368.817 312.071 369.447C313.593 370.077 314.894 371.144 315.809 372.513C316.725 373.882 317.214 375.492 317.215 377.139C317.216 378.786 316.729 380.397 315.815 381.767C314.901 383.137 313.601 384.205 312.08 384.837C310.559 385.469 308.885 385.635 307.269 385.316C305.653 384.996 304.168 384.205 303.002 383.041C301.439 381.479 300.561 379.359 300.559 377.149C300.558 374.939 301.434 372.819 302.995 371.254Z" fill="#54AEDF"/>
<path d="M272.681 415.158C272.384 414.861 272.13 414.522 271.826 414.217C269.16 411.556 265.547 410.061 261.78 410.063C258.013 410.064 254.401 411.561 251.737 414.225C251.44 414.522 251.136 414.826 250.881 415.165L219.493 415.158C219.224 414.833 218.941 414.522 218.644 414.225C215.979 411.563 212.365 410.068 208.598 410.07C204.831 410.071 201.219 411.568 198.555 414.232C198.259 414.529 197.969 414.819 197.707 415.151C195.655 417.609 194.493 420.687 194.408 423.887C194.324 427.088 195.321 430.223 197.24 432.786C197.64 433.323 198.08 433.828 198.555 434.299C199.872 435.627 201.437 436.681 203.162 437.403C204.886 438.124 206.736 438.499 208.606 438.504C210.475 438.509 212.327 438.145 214.056 437.434C215.785 436.722 217.356 435.676 218.68 434.356C219.152 433.882 219.592 433.377 219.995 432.843L250.415 432.829C250.818 433.363 251.257 433.868 251.73 434.342C253.05 435.663 254.617 436.712 256.342 437.427C258.068 438.143 259.917 438.511 261.785 438.511C263.653 438.511 265.502 438.143 267.228 437.427C268.953 436.712 270.52 435.663 271.84 434.342C272.312 433.868 272.751 433.362 273.155 432.829C275.082 430.262 276.084 427.119 275.998 423.911C275.912 420.702 274.743 417.618 272.681 415.158ZM202.706 418.396C203.871 417.226 205.356 416.428 206.975 416.103C208.593 415.778 210.272 415.94 211.798 416.57C213.324 417.199 214.629 418.267 215.547 419.639C216.466 421.01 216.957 422.624 216.958 424.275C216.959 425.925 216.47 427.539 215.553 428.912C214.636 430.285 213.332 431.354 211.807 431.986C210.282 432.617 208.603 432.781 206.984 432.458C205.366 432.135 203.879 431.338 202.713 430.17C201.157 428.606 200.283 426.491 200.282 424.285C200.28 422.079 201.152 419.962 202.706 418.396ZM255.881 418.368C257.046 417.205 258.531 416.414 260.146 416.094C261.761 415.774 263.435 415.94 264.956 416.571C266.477 417.203 267.777 418.27 268.691 419.64C269.606 421.009 270.094 422.619 270.094 424.265C270.094 425.912 269.606 427.522 268.691 428.891C267.777 430.261 266.477 431.328 264.956 431.959C263.435 432.591 261.761 432.757 260.146 432.437C258.531 432.117 257.046 431.326 255.881 430.163C254.319 428.597 253.442 426.477 253.442 424.265C253.442 422.054 254.319 419.934 255.881 418.368Z" fill="#54AEDF"/>
<path d="M179.323 456.535H290.323V475.195C290.323 478.908 288.849 482.469 286.223 485.095C283.597 487.72 280.037 489.195 276.323 489.195H193.323C189.61 489.195 186.05 487.72 183.424 485.095C180.798 482.469 179.323 478.908 179.323 475.195V456.535Z" fill="#41A5DC"/>
<path d="M320.754 500.945H148.904C145.038 500.945 141.904 504.077 141.904 507.94C141.904 511.804 145.038 514.935 148.904 514.935H320.754C324.62 514.935 327.754 511.804 327.754 507.94C327.754 504.077 324.62 500.945 320.754 500.945Z" fill="#41A5DC"/>
</svg>
