<svg width="457" height="350" viewBox="0 0 457 350" fill="none" xmlns="http://www.w3.org/2000/svg">
<path d="M32 0C23.5131 0 15.3737 3.37142 9.37258 9.37258C3.37142 15.3737 0 23.5131 0 32L0 317.29C0.0132473 325.768 3.39051 333.895 9.39024 339.885C15.39 345.875 23.5217 349.24 32 349.24H107.54L456.73 0H32ZM100.24 331.6H32C28.2064 331.595 24.5696 330.085 21.8871 327.403C19.2046 324.72 17.6953 321.084 17.69 317.29V32C17.6861 30.1173 18.0531 28.2523 18.7703 26.5115C19.4874 24.7708 20.5405 23.1884 21.8695 21.8548C23.1984 20.5213 24.7771 19.4626 26.5154 18.7394C28.2536 18.0162 30.1173 17.6426 32 17.64H414.2L100.24 331.6Z" fill="#F5F5F5"/>
</svg>
