<svg width="194" height="172" viewBox="0 0 194 172" fill="none" xmlns="http://www.w3.org/2000/svg">
<path d="M13.939 113.63L13.939 21.6135C13.939 17.3678 17.4127 13.894 21.6585 13.894H150.188C154.434 13.894 157.908 17.3678 157.908 21.6135V113.63C157.908 117.875 154.434 121.349 150.188 121.349H21.6585C17.3741 121.349 13.939 117.914 13.939 113.63Z" fill="#83E1E5"/>
<path d="M127.294 171.797H44.5028C43.4221 171.797 42.5729 170.948 42.5729 169.867V166.432C42.5729 158.751 48.8257 152.498 56.5066 152.498H65.0366C68.163 152.498 70.6718 149.951 70.6718 146.863V142.231C70.6718 138.41 67.5454 135.284 63.7243 135.284H12.1968C5.48083 135.284 0 129.803 0 123.087L0 12.1968C0 5.48083 5.48083 0 12.1968 0L159.6 0C166.316 0 171.797 5.48083 171.797 12.1968V123.087C171.797 124.168 170.948 125.017 169.867 125.017C168.786 125.017 167.937 124.168 167.937 123.087V12.1968C167.937 7.60369 164.193 3.85974 159.6 3.85974L12.1968 3.85974C7.60369 3.82114 3.85974 7.56509 3.85974 12.1968L3.85974 123.087C3.85974 127.68 7.60369 131.424 12.1968 131.424H63.7243C69.6683 131.424 74.5316 136.287 74.5316 142.231V146.863C74.5316 152.112 70.2473 156.358 65.0366 156.358H56.5066C50.9486 156.358 46.4327 160.874 46.4327 166.432V167.937H125.364V166.432C125.364 160.874 120.848 156.358 115.29 156.358H105.487C104.406 156.358 103.557 155.509 103.557 154.428C103.557 153.347 104.406 152.498 105.487 152.498H115.29C122.971 152.498 129.224 158.751 129.224 166.432V169.867C129.224 170.909 128.375 171.797 127.294 171.797Z" fill="#1C1D21"/>
<path d="M77.1932 135.285H61.5612C60.4805 135.285 59.6313 134.436 59.6313 133.356C59.6313 132.275 60.4805 131.426 61.5612 131.426H77.1932C78.2739 131.426 79.123 132.275 79.123 133.356C79.123 134.436 78.2739 135.285 77.1932 135.285ZM109.113 156.36H90.1619C89.0812 156.36 88.232 155.511 88.232 154.43C88.232 153.349 89.0812 152.5 90.1619 152.5H109.113C110.194 152.5 111.043 153.349 111.043 154.43C111.043 155.511 110.155 156.36 109.113 156.36Z" fill="#1C1D21"/>
<path d="M127.294 171.797H44.5028C43.4221 171.797 42.5729 170.948 42.5729 169.867V166.432C42.5729 158.751 48.8257 152.498 56.5066 152.498H66.3103C67.391 152.498 68.2402 153.347 68.2402 154.428C68.2402 155.509 67.391 156.358 66.3103 156.358H56.5066C50.9486 156.358 46.4327 160.874 46.4327 166.432V167.937H125.364V166.432C125.364 160.874 120.848 156.358 115.29 156.358H106.76C101.511 156.358 97.2654 152.074 97.2654 146.863V142.231C97.2654 136.287 102.129 131.424 108.073 131.424H159.6C164.193 131.424 167.937 127.68 167.937 123.087V12.1968C167.937 7.60369 164.193 3.85974 159.6 3.85974L12.1968 3.85974C7.60369 3.82114 3.85974 7.56509 3.85974 12.1968L3.85974 123.087C3.85974 124.168 3.0106 125.017 1.92987 125.017C0.849143 125.017 0 124.168 0 123.087L0 12.1968C0 5.48083 5.48083 0 12.1968 0L159.6 0C166.316 0 171.797 5.48083 171.797 12.1968V123.087C171.797 129.803 166.316 135.284 159.6 135.284H108.073C104.252 135.284 101.125 138.41 101.125 142.231V146.863C101.125 149.989 103.673 152.498 106.76 152.498H115.29C122.971 152.498 129.224 158.751 129.224 166.432V169.867C129.224 170.909 128.375 171.797 127.294 171.797Z" fill="#1C1D21"/>
<path d="M85.9185 135.284H82.6763C81.5956 135.284 80.7464 134.435 80.7464 133.355C80.7464 132.274 81.5956 131.425 82.6763 131.425H85.9185C86.9992 131.425 87.8483 132.274 87.8483 133.355C87.8483 134.435 86.9606 135.284 85.9185 135.284ZM81.6728 156.359H62.7214C61.6407 156.359 60.7915 155.509 60.7915 154.429C60.7915 153.348 61.6407 152.499 62.7214 152.499H81.6728C82.7535 152.499 83.6026 153.348 83.6026 154.429C83.6026 155.509 82.7535 156.359 81.6728 156.359ZM13.9343 22.696C12.8535 22.696 12.0044 21.8469 12.0044 20.7662C12.0044 15.9029 15.9413 11.966 20.8046 11.966H26.7486C27.8293 11.966 28.6785 12.8151 28.6785 13.8958C28.6785 14.9766 27.8293 15.8257 26.7486 15.8257H20.766C18.0642 15.8257 15.8255 18.0257 15.8255 20.7662C15.8641 21.8083 14.9764 22.696 13.9343 22.696ZM13.9343 57.202C12.8535 57.202 12.0044 56.3529 12.0044 55.2722L12.0044 29.9137C12.0044 28.833 12.8535 27.9839 13.9343 27.9839C15.015 27.9839 15.8641 28.833 15.8641 29.9137L15.8641 55.2722C15.8641 56.3143 14.9764 57.202 13.9343 57.202ZM36.8997 15.8257H34.3137C33.233 15.8257 32.3838 14.9766 32.3838 13.8958C32.3838 12.8151 33.233 11.966 34.3137 11.966H36.8997C37.9805 11.966 38.8296 12.8151 38.8296 13.8958C38.8296 14.9766 37.9419 15.8257 36.8997 15.8257Z" fill="#1C1D21"/>
<path d="M119.111 70.5152V50.3674C119.111 46.0445 122.585 42.5707 126.908 42.5707H183.26C187.583 42.5707 191.057 46.0445 191.057 50.3674V162.068C191.057 166.391 187.583 169.865 183.26 169.865H126.908C122.585 169.865 119.111 166.391 119.111 162.068L119.111 70.5152Z" fill="#ECF4F7"/>
<path d="M143.692 44.5022H140.296C139.215 44.5022 138.366 43.653 138.366 42.5723C138.366 41.4916 139.215 40.6424 140.296 40.6424H143.692C144.773 40.6424 145.622 41.4916 145.622 42.5723C145.622 43.653 144.734 44.5022 143.692 44.5022ZM183.255 171.796H126.902C121.537 171.796 117.176 167.435 117.176 162.07L117.176 81.2855C117.176 80.2048 118.025 79.3556 119.106 79.3556C120.186 79.3556 121.036 80.2048 121.036 81.2855L121.036 162.07C121.036 165.312 123.66 167.937 126.902 167.937H183.293C186.535 167.937 189.16 165.312 189.16 162.07V50.369C189.16 47.1268 186.535 44.5022 183.293 44.5022H150.138C149.057 44.5022 148.208 43.653 148.208 42.5723C148.208 41.4916 149.057 40.6424 150.138 40.6424H183.293C188.658 40.6424 193.02 45.0039 193.02 50.369V162.07C192.981 167.435 188.62 171.796 183.255 171.796ZM119.106 72.4467C118.025 72.4467 117.176 71.5975 117.176 70.5168V50.369C117.176 45.0039 121.537 40.6424 126.902 40.6424H131.418C132.499 40.6424 133.348 41.4916 133.348 42.5723C133.348 43.653 132.499 44.5022 131.418 44.5022H126.902C123.66 44.5022 121.036 47.1268 121.036 50.369V70.5168C121.036 71.5975 120.148 72.4467 119.106 72.4467Z" fill="#1C1D21"/>
<path d="M128.683 144.932V60.3647C128.683 56.119 132.156 52.6452 136.402 52.6452H173.726C177.971 52.6452 181.445 56.119 181.445 60.3647V144.932C181.445 149.178 177.971 152.652 173.726 152.652H136.402C132.156 152.652 128.683 149.216 128.683 144.932Z" fill="#B5F2B4"/>
<path d="M173.721 154.583H136.397C131.071 154.583 126.748 150.26 126.748 144.933L126.748 60.3665C126.748 55.04 131.071 50.7171 136.397 50.7171H173.721C179.048 50.7171 183.371 55.04 183.371 60.3665V144.933C183.371 150.26 179.048 154.583 173.721 154.583ZM136.397 54.5769C133.194 54.5769 130.608 57.1629 130.608 60.3665V144.933C130.608 148.137 133.194 150.723 136.397 150.723H173.721C176.925 150.723 179.511 148.137 179.511 144.933V60.3665C179.511 57.1629 176.925 54.5769 173.721 54.5769H136.397Z" fill="#1C1D21"/>
</svg>
