<svg width="30" height="50" viewBox="0 0 30 50" fill="none" xmlns="http://www.w3.org/2000/svg">
<path opacity="0.75" fill-rule="evenodd" clip-rule="evenodd" d="M25.7806 12.5H21.8759C21.0122 12.5 20.3134 13.1988 20.3134 14.0625V17.1879C20.3134 18.05 21.0122 18.7488 21.8759 18.7488H26.3643C28.5767 18.7488 30.0172 20.6374 29.593 22.9007L28.7156 27.5802C28.3318 29.6317 26.3887 31.2507 24.3653 31.2507H21.8759C21.0122 31.2507 20.3134 31.9495 20.3134 32.8116V46.0943C20.3134 48.2512 18.5632 49.999 16.4063 49.999C16.3766 50.0012 13.8261 49.999 12.5001 49.999C11.638 49.999 10.9368 49.3002 10.9368 48.4365C10.9368 47.5744 11.638 46.874 12.5001 46.874H15.6251C16.4888 46.874 17.1876 46.1752 17.1876 45.3131V32.0319C17.1876 29.8735 18.9362 28.1249 21.0946 28.1249H23.9183C24.7315 28.1249 25.564 27.4757 25.7806 26.657L26.6091 23.5366C26.851 22.6275 26.3345 21.8742 25.4517 21.8742H21.0945C18.9361 21.8742 17.1875 20.126 17.1875 17.9677V13.2812C17.1875 11.1228 18.9361 9.3747 21.0945 9.3747H24.9992C25.8629 9.3747 26.5617 8.67548 26.5617 7.81181V4.68633C26.5617 3.82461 25.8629 3.12539 24.9992 3.12539H18.7508C14.4355 3.12539 10.9367 6.62236 10.9367 10.9371V17.9676C10.9367 20.1259 9.18886 21.8741 7.03203 21.8741H4.7249C3.84219 21.8741 3.125 22.6275 3.125 23.5365V26.6569C3.125 27.4756 3.78418 28.1248 4.59668 28.1248H7.03203C9.18886 28.1248 10.9367 29.8734 10.9367 32.0318V35.9364C10.9367 36.8001 10.2379 37.4997 9.37578 37.4997C8.51211 37.4997 7.81328 36.8001 7.81328 35.9364V32.8115C7.81328 31.9494 7.11289 31.2506 6.25078 31.2506H3.66289C1.63955 31.2506 0 29.6316 0 27.5801V22.9006C0 20.6373 1.79365 18.7487 4.00615 18.7487H6.25068C7.11279 18.7487 7.81318 18.0499 7.81318 17.1878V10.1558C7.81338 4.54638 12.3597 0 17.9688 0H25.7806C27.939 0 29.6876 1.74824 29.6876 3.90508V8.59296C29.6876 10.7513 27.939 12.5 25.7806 12.5ZM9.37588 40.6248C10.238 40.6248 10.9368 41.3236 10.9368 42.1873C10.9368 43.0494 10.238 43.7506 9.37588 43.7506C8.5122 43.7506 7.81338 43.0494 7.81338 42.1873C7.81338 41.3236 8.5122 40.6248 9.37588 40.6248Z" fill="#3B5998"/>
</svg>
