<svg width="648" height="648" viewBox="0 0 648 648" fill="none" xmlns="http://www.w3.org/2000/svg">
<path d="M620.254 115.986C621.183 116.092 622.117 116.145 623.052 116.144C626.314 116.146 629.546 115.506 632.561 114.259C635.576 113.012 638.317 111.184 640.625 108.878C642.934 106.573 644.766 103.835 646.017 100.821C647.268 97.8071 647.913 94.5765 647.915 91.3134C647.911 89.9487 647.8 88.5864 647.583 87.2392C646.701 81.9237 644.113 77.0395 640.212 73.3237C636.31 69.6079 631.306 67.2622 625.954 66.6405C624.968 66.5144 623.976 66.4502 622.982 66.4482C619.719 66.4505 616.489 67.0955 613.475 68.3463C610.461 69.5971 607.724 71.4293 605.418 73.7383C603.113 76.0472 601.284 78.7877 600.038 81.8033C598.791 84.8188 598.151 88.0504 598.153 91.3134C598.15 92.2953 598.208 93.2765 598.328 94.2511L94.1897 598.48C93.2332 598.355 92.2695 598.29 91.3048 598.288C88.0405 598.286 84.8077 598.927 81.7913 600.174C78.7748 601.422 76.0338 603.252 73.7248 605.559C71.4158 607.867 69.5841 610.607 68.3344 613.623C67.0846 616.639 66.4414 619.871 66.4414 623.136C66.4462 624.095 66.5104 625.052 66.6337 626.003C67.2696 631.343 69.6214 636.332 73.3358 640.22C77.0501 644.108 81.9262 646.685 87.2308 647.564C87.633 647.564 88.0526 647.704 88.4897 647.739C91.9664 648.133 95.487 647.788 98.8212 646.727C102.155 645.666 105.228 643.912 107.838 641.581C110.447 639.251 112.535 636.395 113.965 633.201C115.394 630.007 116.133 626.547 116.133 623.048C116.135 622.113 116.082 621.179 115.976 620.25L620.254 115.986ZM637.634 91.3134C637.63 94.1943 636.773 97.0094 635.17 99.4028C633.566 101.796 631.289 103.66 628.627 104.76C625.964 105.859 623.035 106.144 620.211 105.579C617.386 105.013 614.792 103.623 612.758 101.583C610.723 99.5437 609.339 96.9466 608.781 94.1204C608.222 91.2943 608.514 88.3659 609.62 85.7056C610.725 83.0454 612.595 80.7727 614.992 79.1751C617.389 77.5774 620.206 76.7266 623.087 76.73C624.999 76.7323 626.893 77.1113 628.659 77.8455C630.425 78.5796 632.03 79.6544 633.38 81.0086C634.731 82.3628 635.802 83.9698 636.532 85.7379C637.262 87.506 637.636 89.4006 637.634 91.3134ZM76.7225 623.153C76.719 620.272 77.5698 617.455 79.1674 615.058C80.7649 612.661 83.0374 610.791 85.6974 609.685C88.3574 608.58 91.2856 608.288 94.1116 608.846C96.9375 609.405 99.5344 610.789 101.574 612.824C103.613 614.858 105.003 617.452 105.569 620.277C106.134 623.102 105.849 626.031 104.75 628.694C103.651 631.357 101.787 633.634 99.3936 635.237C97.0003 636.84 94.1854 637.698 91.3048 637.702C87.4448 637.697 83.7436 636.164 81.0109 633.437C78.2782 630.711 76.7363 627.013 76.7225 623.153Z" fill="#B5F2B4"/>
<path d="M625.83 183.115C624.921 183.115 623.995 182.976 623.05 182.976C619.79 182.976 616.561 183.618 613.549 184.866C610.537 186.114 607.8 187.942 605.494 190.248C603.188 192.554 601.36 195.291 600.112 198.304C598.864 201.316 598.222 204.545 598.222 207.806C598.222 208.768 598.222 209.677 598.362 210.586L210.567 598.428C209.658 598.428 208.818 598.288 207.787 598.288C201.2 598.293 194.885 600.913 190.23 605.572C185.574 610.231 182.958 616.549 182.958 623.136C182.958 624.08 182.958 625.007 183.098 625.899C183.726 631.461 186.211 636.65 190.151 640.625C194.092 644.601 199.258 647.132 204.814 647.809C205.795 647.929 206.782 647.987 207.769 647.984C211.034 647.986 214.266 647.345 217.283 646.097C220.299 644.849 223.04 643.02 225.349 640.712C227.658 638.404 229.49 635.664 230.74 632.649C231.99 629.633 232.633 626.4 232.633 623.136C232.637 622.142 232.578 621.149 232.458 620.163L620.095 232.566C621.076 232.686 622.063 232.745 623.05 232.741C626.316 232.743 629.55 232.102 632.568 230.853C635.586 229.604 638.327 227.773 640.637 225.463C642.946 223.154 644.777 220.412 646.026 217.394C647.275 214.376 647.916 211.142 647.914 207.876C647.918 206.888 647.859 205.901 647.739 204.921C647.081 199.348 644.558 194.161 640.581 190.203C636.604 186.245 631.406 183.747 625.83 183.115ZM193.24 623.153C193.236 620.271 194.088 617.452 195.687 615.054C197.286 612.656 199.56 610.787 202.223 609.682C204.885 608.577 207.815 608.287 210.642 608.849C213.468 609.41 216.065 610.798 218.103 612.836C220.141 614.874 221.529 617.471 222.09 620.298C222.652 623.126 222.362 626.056 221.257 628.718C220.153 631.38 218.283 633.655 215.885 635.254C213.487 636.853 210.669 637.705 207.787 637.702C203.932 637.692 200.237 636.157 197.511 633.43C194.784 630.704 193.249 627.009 193.24 623.153ZM637.633 207.806C637.636 210.688 636.784 213.507 635.185 215.905C633.586 218.303 631.312 220.173 628.65 221.277C625.988 222.382 623.058 222.672 620.231 222.11C617.404 221.549 614.807 220.161 612.769 218.123C610.731 216.085 609.343 213.488 608.782 210.661C608.221 207.834 608.511 204.903 609.615 202.241C610.72 199.579 612.589 197.304 614.987 195.705C617.385 194.106 620.203 193.254 623.085 193.257C626.941 193.267 630.636 194.802 633.362 197.529C636.088 200.255 637.623 203.95 637.633 207.806Z" fill="#B5F2B4"/>
<path d="M625.654 299.624C624.788 299.54 623.918 299.499 623.048 299.502C616.463 299.502 610.148 302.118 605.492 306.775C600.836 311.431 598.22 317.747 598.22 324.332C598.217 325.202 598.258 326.072 598.342 326.938L326.961 598.409C323.503 598.066 320.012 598.449 316.711 599.534C313.41 600.619 310.372 602.382 307.792 604.71C305.212 607.038 303.148 609.88 301.73 613.053C300.313 616.226 299.575 619.66 299.563 623.135C299.56 623.993 299.601 624.851 299.685 625.705C300.271 631.27 302.716 636.475 306.625 640.479C310.534 644.483 315.678 647.052 321.226 647.773C322.276 647.907 323.333 647.972 324.391 647.965C327.655 647.967 330.888 647.326 333.904 646.079C336.921 644.831 339.662 643.001 341.971 640.693C344.28 638.386 346.112 635.646 347.361 632.63C348.611 629.614 349.254 626.382 349.254 623.117C349.256 622.053 349.186 620.99 349.045 619.935L619.971 348.9C621.02 349.041 622.077 349.111 623.136 349.11C626.402 349.112 629.636 348.471 632.653 347.222C635.671 345.973 638.413 344.142 640.722 341.832C643.031 339.523 644.863 336.781 646.111 333.763C647.36 330.745 648.001 327.511 647.999 324.245C648.009 323.186 647.939 322.128 647.789 321.08C647.054 315.533 644.468 310.398 640.451 306.504C636.434 302.61 631.22 300.186 625.654 299.624ZM309.756 623.117C309.753 620.235 310.604 617.416 312.204 615.018C313.803 612.62 316.077 610.751 318.739 609.646C321.401 608.541 324.331 608.251 327.158 608.813C329.985 609.374 332.582 610.762 334.62 612.8C336.658 614.838 338.045 617.435 338.607 620.262C339.168 623.089 338.878 626.02 337.774 628.682C336.669 631.344 334.8 633.619 332.402 635.218C330.004 636.817 327.186 637.669 324.304 637.666C320.454 637.657 316.765 636.126 314.04 633.407C311.314 630.688 309.775 627.002 309.756 623.152V623.117ZM608.466 324.332C608.47 321.453 609.326 318.639 610.928 316.246C612.53 313.854 614.805 311.99 617.465 310.889C620.126 309.789 623.053 309.502 625.877 310.065C628.7 310.627 631.294 312.014 633.33 314.05C635.366 316.086 636.752 318.68 637.315 321.504C637.878 324.328 637.591 327.255 636.49 329.916C635.39 332.577 633.526 334.852 631.134 336.454C628.741 338.055 625.928 338.912 623.048 338.916C619.181 338.916 615.472 337.379 612.737 334.644C610.002 331.909 608.466 328.2 608.466 324.332Z" fill="#B5F2B4"/>
<path d="M625.463 416.169C624.661 416.084 623.856 416.043 623.05 416.046C616.463 416.051 610.148 418.671 605.493 423.33C600.837 427.99 598.222 434.307 598.222 440.894C598.218 441.694 598.259 442.494 598.344 443.29L443.219 598.444C442.435 598.359 441.647 598.318 440.859 598.322C434.269 598.322 427.949 600.939 423.29 605.599C418.63 610.259 416.013 616.579 416.013 623.169C416.01 623.964 416.051 624.757 416.135 625.547C416.673 631.114 419.074 636.337 422.948 640.37C426.822 644.403 431.944 647.011 437.484 647.772C438.585 647.927 439.695 648.003 440.806 647.999C447.396 647.999 453.715 645.382 458.375 640.722C463.034 636.062 465.652 629.742 465.652 623.152C465.647 622.041 465.571 620.931 465.425 619.829L619.728 465.532C620.823 465.679 621.927 465.754 623.033 465.759C626.297 465.762 629.53 465.121 632.546 463.873C635.562 462.625 638.304 460.795 640.613 458.488C642.922 456.18 644.753 453.44 646.003 450.424C647.253 447.409 647.896 444.176 647.896 440.912C647.891 439.8 647.815 438.691 647.669 437.589C646.926 432.037 644.328 426.9 640.296 423.011C636.265 419.122 631.038 416.711 625.463 416.169ZM426.259 623.152C426.255 620.27 427.107 617.452 428.705 615.055C430.303 612.657 432.577 610.787 435.238 609.682C437.899 608.577 440.828 608.286 443.654 608.846C446.481 609.406 449.078 610.792 451.116 612.828C453.155 614.865 454.544 617.46 455.107 620.286C455.671 623.112 455.383 626.042 454.281 628.704C453.18 631.367 451.313 633.643 448.917 635.244C446.522 636.845 443.705 637.7 440.824 637.7C436.965 637.696 433.266 636.162 430.536 633.435C427.806 630.708 426.268 627.01 426.259 623.152ZM608.468 440.859C608.468 437.979 609.321 435.164 610.921 432.769C612.521 430.374 614.794 428.507 617.455 427.404C620.115 426.301 623.043 426.011 625.868 426.572C628.692 427.132 631.288 428.518 633.325 430.553C635.363 432.589 636.751 435.182 637.315 438.007C637.879 440.831 637.593 443.759 636.494 446.421C635.394 449.083 633.53 451.359 631.137 452.962C628.744 454.564 625.93 455.422 623.05 455.425C619.186 455.425 615.479 453.891 612.745 451.16C610.011 448.429 608.472 444.724 608.468 440.859Z" fill="#B5F2B4"/>
<path d="M625.271 532.627C624.536 532.627 623.802 532.522 623.05 532.522C616.464 532.526 610.148 535.146 605.493 539.806C600.837 544.465 598.222 550.782 598.222 557.369C598.222 558.104 598.222 558.856 598.327 559.59L559.51 598.392C558.776 598.322 558.042 598.287 557.307 598.287C550.721 598.292 544.406 600.911 539.75 605.571C535.094 610.23 532.479 616.548 532.479 623.135C532.479 623.869 532.479 624.586 532.566 625.32C533.068 630.896 535.437 636.139 539.29 640.201C543.142 644.263 548.252 646.906 553.793 647.703C554.951 647.871 556.12 647.953 557.29 647.947C560.559 647.961 563.798 647.33 566.822 646.09C569.846 644.849 572.596 643.024 574.914 640.719C577.232 638.414 579.072 635.674 580.329 632.657C581.587 629.64 582.236 626.404 582.241 623.135C582.239 621.965 582.157 620.796 581.996 619.637L619.588 582.007C620.747 582.17 621.915 582.252 623.085 582.252C626.351 582.254 629.585 581.613 632.603 580.364C635.62 579.115 638.362 577.284 640.671 574.974C642.981 572.665 644.812 569.923 646.061 566.905C647.309 563.887 647.951 560.653 647.948 557.387C647.946 556.217 647.864 555.049 647.704 553.89C646.912 548.334 644.265 543.209 640.192 539.349C636.119 535.488 630.861 533.119 625.271 532.627ZM542.76 623.152C542.753 620.266 543.603 617.442 545.202 615.039C546.801 612.636 549.077 610.761 551.742 609.652C554.407 608.544 557.341 608.251 560.172 608.811C563.004 609.371 565.605 610.759 567.647 612.799C569.69 614.839 571.08 617.439 571.644 620.27C572.208 623.101 571.918 626.036 570.813 628.702C569.708 631.369 567.836 633.647 565.435 635.249C563.034 636.851 560.211 637.704 557.325 637.701C553.468 637.691 549.771 636.156 547.042 633.43C544.313 630.704 542.774 627.009 542.76 623.152ZM608.468 557.369C608.471 554.49 609.328 551.676 610.93 549.284C612.531 546.891 614.806 545.027 617.467 543.926C620.128 542.826 623.055 542.539 625.878 543.102C628.702 543.664 631.296 545.051 633.331 547.087C635.367 549.123 636.754 551.717 637.317 554.541C637.879 557.365 637.592 560.292 636.492 562.953C635.392 565.614 633.528 567.889 631.135 569.491C628.743 571.093 625.929 571.949 623.05 571.953C619.184 571.948 615.478 570.41 612.744 567.676C610.01 564.942 608.472 561.236 608.468 557.369Z" fill="#B5F2B4"/>
<path d="M115.976 27.7514C116.082 26.8226 116.134 25.8884 116.133 24.9536C116.135 21.6906 115.495 18.459 114.249 15.4435C113.002 12.4279 111.174 9.68739 108.868 7.37844C106.563 5.06949 103.825 3.23734 100.812 1.9865C97.798 0.735663 94.5676 0.0906617 91.3048 0.0883662C89.9402 0.0918762 88.5779 0.20297 87.2308 0.420606C81.9158 1.30288 77.032 3.89021 73.3164 7.79211C69.6009 11.694 67.2554 16.6988 66.6337 22.0509C66.5076 23.0368 66.4434 24.0296 66.4414 25.0236C66.4437 28.2866 67.0886 31.5173 68.3394 34.5311C69.5901 37.5448 71.4222 40.2827 73.731 42.5884C76.0397 44.8941 78.78 46.7225 81.7953 47.9691C84.8106 49.2157 88.0419 49.8561 91.3048 49.8538C92.2866 49.8571 93.2677 49.7987 94.2422 49.6789L598.433 553.856C598.308 554.813 598.243 555.776 598.241 556.741C598.238 560.006 598.879 563.239 600.127 566.255C601.375 569.272 603.204 572.013 605.512 574.322C607.819 576.632 610.559 578.463 613.575 579.713C616.59 580.963 619.822 581.606 623.087 581.606C624.046 581.602 625.003 581.537 625.954 581.414C631.293 580.778 636.282 578.426 640.17 574.711C644.057 570.997 646.634 566.12 647.513 560.815C647.513 560.413 647.653 559.993 647.688 559.556C648.082 556.079 647.737 552.558 646.676 549.224C645.615 545.89 643.862 542.817 641.531 540.207C639.2 537.597 636.345 535.509 633.151 534.079C629.958 532.65 626.498 531.911 622.999 531.911C622.064 531.909 621.13 531.961 620.202 532.068L115.976 27.7514ZM91.3048 10.3702C94.1854 10.3737 97.0003 11.2313 99.3936 12.8347C101.787 14.4381 103.651 16.7153 104.75 19.3782C105.849 22.0411 106.134 24.9701 105.569 27.7949C105.003 30.6198 103.613 33.2135 101.574 35.2482C99.5344 37.2828 96.9375 38.6669 94.1116 39.2255C91.2856 39.7842 88.3574 39.4922 85.6974 38.3866C83.0374 37.2809 80.7649 35.4113 79.1674 33.014C77.5698 30.6167 76.719 27.7995 76.7225 24.9187C76.7247 23.0058 77.1038 21.1122 77.8378 19.3458C78.5719 17.5795 79.6467 15.975 81.0008 14.6241C82.3548 13.2731 83.9617 12.2021 85.7297 11.4723C87.4977 10.7424 89.3921 10.3679 91.3048 10.3702ZM623.104 571.324C620.223 571.328 617.407 570.477 615.009 568.879C612.612 567.282 610.743 565.009 609.637 562.349C608.532 559.689 608.24 556.76 608.798 553.934C609.357 551.108 610.741 548.511 612.775 546.471C614.81 544.432 617.403 543.041 620.228 542.476C623.053 541.911 625.982 542.195 628.644 543.295C631.307 544.394 633.584 546.258 635.187 548.652C636.79 551.045 637.648 553.86 637.651 556.741C637.647 560.601 636.114 564.303 633.388 567.036C630.662 569.769 626.964 571.311 623.104 571.324Z" fill="#B5F2B4"/>
<path d="M183.098 22.173C183.098 23.0823 182.958 24.0091 182.958 24.9533C182.958 28.2141 183.601 31.4429 184.848 34.4555C186.096 37.468 187.925 40.2053 190.231 42.511C192.536 44.8167 195.273 46.6456 198.285 47.8935C201.298 49.1413 204.526 49.7836 207.787 49.7836C208.749 49.7836 209.658 49.7836 210.567 49.6437L598.379 437.468C598.379 438.377 598.239 439.217 598.239 440.248C598.244 446.835 600.864 453.151 605.523 457.807C610.182 462.463 616.499 465.079 623.085 465.079C624.029 465.079 624.956 465.079 625.848 464.939C631.41 464.311 636.598 461.826 640.574 457.885C644.549 453.944 647.08 448.778 647.756 443.221C647.877 442.241 647.935 441.254 647.931 440.266C647.933 437.001 647.292 433.768 646.045 430.752C644.797 427.735 642.968 424.994 640.66 422.684C638.353 420.375 635.613 418.543 632.597 417.294C629.582 416.044 626.35 415.401 623.085 415.401C622.092 415.397 621.099 415.455 620.113 415.575L232.545 27.9085C232.666 26.9281 232.724 25.9411 232.72 24.9533C232.722 21.6873 232.081 18.4529 230.832 15.435C229.584 12.4172 227.752 9.6752 225.443 7.36579C223.134 5.05638 220.392 3.22488 217.374 1.97609C214.357 0.727313 211.123 0.0857461 207.857 0.0880453C206.869 0.0842649 205.882 0.142678 204.902 0.262917C199.33 0.921289 194.144 3.44391 190.186 7.42129C186.227 11.3987 183.73 16.5973 183.098 22.173ZM623.103 454.797C620.221 454.8 617.402 453.948 615.004 452.349C612.607 450.75 610.737 448.475 609.633 445.813C608.528 443.151 608.238 440.221 608.799 437.393C609.361 434.566 610.748 431.969 612.786 429.931C614.824 427.893 617.421 426.505 620.248 425.944C623.075 425.382 626.005 425.672 628.667 426.777C631.329 427.882 633.604 429.751 635.203 432.149C636.802 434.547 637.654 437.366 637.65 440.248C637.641 444.104 636.105 447.799 633.379 450.525C630.653 453.252 626.958 454.787 623.103 454.797ZM207.787 10.3699C210.669 10.3664 213.487 11.2182 215.885 12.8174C218.283 14.4166 220.153 16.6913 221.257 19.3536C222.362 22.0159 222.652 24.9461 222.09 27.7732C221.529 30.6003 220.141 33.1973 218.103 35.2355C216.065 37.2736 213.468 38.6613 210.642 39.2227C207.815 39.7842 204.885 39.4942 202.223 38.3896C199.56 37.285 197.286 35.4153 195.687 33.0173C194.088 30.6193 193.236 27.8007 193.24 24.9184C193.249 21.0627 194.784 17.3676 197.511 14.6412C200.237 11.9148 203.932 10.3791 207.787 10.3699Z" fill="#B5F2B4"/>
<path d="M299.6 22.3481C299.516 23.2139 299.475 24.0835 299.478 24.9535C299.478 31.5389 302.094 37.8546 306.75 42.5111C311.406 47.1677 317.721 49.7837 324.306 49.7837C325.176 49.7866 326.045 49.7457 326.911 49.6614L598.363 321.063C598.019 324.521 598.402 328.013 599.487 331.314C600.572 334.616 602.335 337.654 604.663 340.234C606.991 342.814 609.832 344.879 613.005 346.296C616.177 347.713 619.611 348.452 623.086 348.464C623.944 348.466 624.802 348.426 625.656 348.342C631.221 347.755 636.425 345.31 640.429 341.401C644.432 337.492 647.002 332.348 647.722 326.799C647.857 325.749 647.921 324.692 647.914 323.634C647.917 320.369 647.276 317.136 646.028 314.119C644.781 311.103 642.951 308.362 640.643 306.052C638.336 303.743 635.596 301.911 632.581 300.662C629.565 299.412 626.333 298.768 623.069 298.768C622.004 298.767 620.941 298.837 619.886 298.978L348.872 28.031C349.013 26.9819 349.083 25.9245 349.082 24.866C349.084 21.6 348.443 18.3656 347.194 15.3478C345.945 12.33 344.114 9.58792 341.805 7.27851C339.496 4.9691 336.754 3.13765 333.736 1.88887C330.719 0.640084 327.484 -0.00148302 324.219 0.000816166C323.16 -0.00885956 322.102 0.061275 321.054 0.210641C315.508 0.946208 310.373 3.53206 306.479 7.54965C302.586 11.5672 300.162 16.7814 299.6 22.3481ZM623.069 338.27C620.186 338.273 617.368 337.421 614.97 335.822C612.572 334.223 610.703 331.948 609.598 329.286C608.494 326.624 608.204 323.693 608.765 320.866C609.327 318.039 610.714 315.442 612.752 313.404C614.79 311.366 617.387 309.978 620.214 309.417C623.041 308.855 625.971 309.145 628.633 310.25C631.295 311.354 633.569 313.224 635.169 315.622C636.768 318.02 637.619 320.839 637.616 323.721C637.607 327.571 636.076 331.261 633.357 333.986C630.639 336.711 626.953 338.251 623.103 338.27H623.069ZM324.306 39.5369C321.427 39.5334 318.613 38.6767 316.221 37.0748C313.828 35.4729 311.964 33.1979 310.864 30.537C309.764 27.8762 309.477 24.9489 310.039 22.125C310.602 19.3011 311.989 16.7073 314.025 14.6713C316.061 12.6353 318.654 11.2483 321.478 10.6858C324.302 10.1232 327.229 10.4101 329.889 11.5104C332.55 12.6107 334.825 14.475 336.426 16.8676C338.028 19.2603 338.885 22.0741 338.888 24.9535C338.888 28.8212 337.352 32.5306 334.617 35.2655C331.883 38.0004 328.174 39.5369 324.306 39.5369Z" fill="#B5F2B4"/>
<path d="M416.135 22.5408C416.051 23.3423 416.01 24.1479 416.013 24.9539C416.017 31.5409 418.637 37.8565 423.296 42.5126C427.955 47.1687 434.272 49.7841 440.859 49.7841C441.659 49.7874 442.459 49.7466 443.254 49.6618L598.397 204.798C598.311 205.582 598.271 206.371 598.274 207.159C598.274 213.749 600.892 220.069 605.551 224.729C610.211 229.389 616.531 232.007 623.12 232.007C623.914 232.009 624.708 231.968 625.498 231.884C631.064 231.346 636.286 228.946 640.319 225.071C644.352 221.196 646.96 216.075 647.721 210.534C647.876 209.433 647.952 208.323 647.948 207.212C647.948 200.622 645.331 194.301 640.671 189.642C636.012 184.982 629.692 182.364 623.103 182.364C621.991 182.369 620.882 182.445 619.78 182.591L465.495 28.2762C465.641 27.1806 465.717 26.0767 465.722 24.9714C465.724 21.7069 465.083 18.4739 463.836 15.4572C462.588 12.4405 460.758 9.69919 458.451 7.39001C456.144 5.08083 453.404 3.249 450.388 1.99919C447.373 0.749385 444.14 0.106129 440.876 0.10613C439.765 0.111026 438.655 0.186909 437.554 0.333404C432.003 1.0763 426.865 3.67463 422.977 7.70619C419.089 11.7378 416.677 16.9657 416.135 22.5408ZM623.103 221.76C620.221 221.763 617.403 220.912 615.006 219.314C612.609 217.715 610.739 215.442 609.634 212.78C608.529 210.119 608.238 207.19 608.798 204.363C609.358 201.536 610.744 198.939 612.78 196.901C614.816 194.862 617.411 193.473 620.237 192.909C623.063 192.346 625.992 192.633 628.655 193.735C631.317 194.837 633.593 196.704 635.194 199.1C636.795 201.496 637.65 204.312 637.65 207.194C637.645 211.053 636.112 214.752 633.385 217.482C630.658 220.213 626.961 221.751 623.103 221.76ZM440.824 39.5373C437.944 39.5373 435.129 38.6834 432.734 37.0837C430.339 35.4839 428.472 33.2101 427.369 30.5495C426.266 27.889 425.977 24.9612 426.538 22.1361C427.098 19.3111 428.484 16.7156 430.519 14.6779C432.554 12.6401 435.147 11.2515 437.972 10.6875C440.796 10.1235 443.724 10.4094 446.385 11.5092C449.047 12.609 451.323 14.4732 452.925 16.8662C454.528 19.2593 455.385 22.0738 455.389 24.9539C455.389 28.8186 453.855 32.5253 451.124 35.2597C448.393 37.9942 444.688 39.5327 440.824 39.5373Z" fill="#B5F2B4"/>
<path d="M532.584 22.7324C532.584 23.4668 532.479 24.2012 532.479 24.9531C532.484 31.5401 535.104 37.8558 539.763 42.5119C544.422 47.168 550.739 49.7834 557.325 49.7834C558.06 49.7834 558.812 49.7834 559.546 49.6785L598.345 88.4977C598.275 89.2321 598.24 89.9665 598.24 90.7009C598.244 97.2879 600.864 103.604 605.523 108.26C610.182 112.916 616.499 115.531 623.086 115.531C623.82 115.531 624.537 115.531 625.271 115.444C630.847 114.942 636.089 112.573 640.151 108.72C644.213 104.868 646.855 99.757 647.652 94.2156C647.821 93.0576 647.902 91.8886 647.896 90.7184C647.91 87.4494 647.279 84.2099 646.039 81.1854C644.798 78.1609 642.974 75.4109 640.669 73.0929C638.364 70.7749 635.624 68.9345 632.607 67.6772C629.59 66.4199 626.354 65.7703 623.086 65.7657C621.916 65.7671 620.747 65.8489 619.589 66.0105L581.961 28.4154C582.124 27.2567 582.206 26.0882 582.206 24.9182C582.209 21.6522 581.567 18.4178 580.318 15.3999C579.07 12.3821 577.238 9.64005 574.929 7.33064C572.62 5.02123 569.878 3.18977 566.86 1.94099C563.843 0.692209 560.609 0.0506418 557.343 0.052941C556.173 0.0557199 555.005 0.13748 553.846 0.297719C548.29 1.08905 543.166 3.73652 539.306 7.80968C535.446 11.8828 533.077 17.1422 532.584 22.7324ZM623.103 105.249C620.217 105.256 617.393 104.406 614.99 102.807C612.587 101.208 610.713 98.9322 609.604 96.267C608.496 93.6018 608.203 90.6676 608.763 87.8359C609.323 85.0042 610.711 82.4024 612.751 80.3601C614.79 78.3178 617.39 76.9268 620.221 76.3632C623.052 75.7996 625.986 76.0889 628.653 77.1943C631.319 78.2998 633.597 80.1716 635.199 82.5729C636.801 84.9742 637.654 87.7969 637.65 90.6834C637.641 94.5407 636.106 98.2376 633.381 100.967C630.655 103.696 626.96 105.235 623.103 105.249ZM557.325 39.5365C554.446 39.5331 551.633 38.6763 549.24 37.0745C546.848 35.4726 544.984 33.1976 543.883 30.5367C542.783 27.8759 542.496 24.9486 543.059 22.1247C543.621 19.3008 545.008 16.707 547.044 14.671C549.08 12.635 551.673 11.248 554.497 10.6854C557.321 10.1228 560.248 10.4098 562.908 11.5101C565.569 12.6104 567.844 14.4746 569.446 16.8673C571.047 19.26 571.904 22.0738 571.908 24.9531C571.903 28.8195 570.365 32.5261 567.631 35.2601C564.898 37.994 561.191 39.5319 557.325 39.5365Z" fill="#B5F2B4"/>
<path d="M27.7463 532.015C26.8176 531.909 25.8835 531.856 24.9487 531.857C21.6859 531.855 18.4546 532.495 15.4393 533.742C12.424 534.989 9.68368 536.817 7.3749 539.123C5.06613 541.428 3.23412 544.166 1.98337 547.18C0.73263 550.194 0.0876782 553.425 0.0853829 556.688C0.0888926 558.052 0.199978 559.415 0.417598 560.762C1.29981 566.077 3.88693 570.961 7.78855 574.677C11.6902 578.393 16.6945 580.739 22.0463 581.36C23.0321 581.487 24.0248 581.551 25.0187 581.553C28.2815 581.55 31.5119 580.906 34.5255 579.655C37.539 578.404 40.2767 576.572 42.5822 574.263C44.8878 571.954 46.7159 569.213 47.9624 566.198C49.2089 563.182 49.8493 559.951 49.847 556.688C49.8503 555.706 49.7919 554.724 49.6722 553.75L553.811 49.5206C554.767 49.6462 555.731 49.7105 556.696 49.713C559.96 49.7153 563.193 49.0743 566.209 47.8266C569.226 46.5789 571.967 44.749 574.276 42.4414C576.585 40.1339 578.416 37.3939 579.666 34.3781C580.916 31.3623 581.559 28.1298 581.559 24.8653C581.554 23.9063 581.49 22.9485 581.367 21.9975C580.731 16.6579 578.379 11.669 574.665 7.78098C570.95 3.89292 566.074 1.31586 560.77 0.437172C560.368 0.437172 559.948 0.297272 559.511 0.2623C556.034 -0.131697 552.513 0.213125 549.179 1.27418C545.845 2.33523 542.773 4.08854 540.163 6.41942C537.553 8.75029 535.465 11.6061 534.036 14.7999C532.606 17.9937 531.867 21.4535 531.867 24.9527C531.865 25.8875 531.918 26.8217 532.025 27.7505L27.7463 532.015ZM10.3664 556.688C10.3699 553.807 11.2275 550.992 12.8307 548.598C14.434 546.205 16.711 544.34 19.3737 543.241C22.0364 542.142 24.9652 541.857 27.7899 542.422C30.6145 542.988 33.208 544.378 35.2425 546.418C37.277 548.457 38.661 551.054 39.2196 553.881C39.7782 556.707 39.4862 559.635 38.3807 562.295C37.2751 564.956 35.4056 567.228 33.0085 568.826C30.6114 570.424 27.7944 571.274 24.9138 571.271C23.0011 571.269 21.1076 570.89 19.3414 570.156C17.5752 569.421 15.9708 568.347 14.62 566.992C13.2691 565.638 12.1982 564.031 11.4684 562.263C10.7386 560.495 10.3641 558.6 10.3664 556.688ZM571.278 24.8478C571.281 27.7286 570.431 30.5458 568.833 32.9431C567.236 35.3404 564.963 37.2101 562.303 38.3157C559.643 39.4214 556.715 39.7133 553.889 39.1547C551.063 38.596 548.466 37.2119 546.427 35.1772C544.387 33.1426 542.997 30.5489 542.432 27.724C541.866 24.8992 542.151 21.9701 543.25 19.3073C544.35 16.6444 546.214 14.3672 548.607 12.7638C551 11.1604 553.815 10.3028 556.696 10.2993C560.556 10.3039 564.257 11.837 566.99 14.5634C569.722 17.2898 571.264 20.9875 571.278 24.8478Z" fill="#B5F2B4"/>
<path d="M22.169 464.886C23.0782 464.886 24.0049 465.026 24.9491 465.026C28.2096 465.026 31.4382 464.383 34.4505 463.136C37.4628 461.888 40.1999 460.059 42.5054 457.753C44.811 455.447 46.6398 452.71 47.8875 449.697C49.1353 446.685 49.7775 443.456 49.7775 440.195C49.7775 439.234 49.7775 438.324 49.6376 437.415L437.433 49.5732C438.342 49.5732 439.181 49.7131 440.213 49.7131C446.799 49.7085 453.114 47.0885 457.77 42.4292C462.426 37.7698 465.041 31.4524 465.041 24.8654C465.041 23.9211 465.041 22.9943 464.901 22.1025C464.273 16.5399 461.789 11.3514 457.848 7.37566C453.907 3.3999 448.742 0.869145 443.185 0.192413C442.205 0.0721743 441.218 0.0138145 440.23 0.0175948C436.966 0.0152975 433.733 0.656302 430.717 1.90399C427.7 3.15168 424.959 4.98154 422.65 7.2891C420.341 9.59666 418.509 12.3367 417.26 15.3525C416.01 18.3683 415.367 21.6008 415.367 24.8654C415.363 25.8589 415.421 26.8517 415.542 27.838L27.904 415.435C26.9237 415.315 25.9368 415.256 24.9491 415.26C21.6833 415.258 18.4491 415.899 15.4315 417.148C12.4139 418.397 9.67214 420.229 7.3629 422.538C5.05367 424.847 3.2223 427.589 1.97361 430.607C0.724927 433.625 0.0834087 436.859 0.0857078 440.125C0.0819277 441.113 0.140336 442.1 0.260566 443.081C0.918888 448.653 3.44132 453.84 7.4184 457.798C11.3955 461.756 16.5937 464.254 22.169 464.886ZM454.76 24.8479C454.763 27.7302 453.912 30.5488 452.313 32.9468C450.714 35.3449 448.439 37.2145 445.777 38.3191C443.115 39.4238 440.185 39.7137 437.358 39.1522C434.531 38.5908 431.934 37.2031 429.896 35.165C427.858 33.1268 426.471 30.5298 425.909 27.7027C425.348 24.8756 425.638 21.9454 426.742 19.2831C427.847 16.6208 429.716 14.3461 432.114 12.7469C434.512 11.1477 437.33 10.296 440.213 10.2994C444.068 10.3087 447.763 11.8444 450.489 14.5707C453.215 17.2971 454.751 20.9922 454.76 24.8479ZM10.3668 440.195C10.3633 437.313 11.215 434.494 12.8141 432.096C14.4132 429.698 16.6877 427.829 19.3498 426.724C22.0119 425.619 24.9418 425.33 27.7688 425.891C30.5957 426.452 33.1925 427.84 35.2305 429.878C37.2685 431.916 38.656 434.513 39.2174 437.34C39.7789 440.168 39.4889 443.098 38.3844 445.76C37.2798 448.422 35.4103 450.697 33.0125 452.296C30.6146 453.895 27.7963 454.747 24.9141 454.744C21.0588 454.735 17.3639 453.199 14.6378 450.472C11.9116 447.746 10.376 444.051 10.3668 440.195Z" fill="#B5F2B4"/>
<path d="M22.3464 348.376C23.2122 348.46 24.0817 348.501 24.9516 348.498C31.5365 348.498 37.8517 345.882 42.5079 341.226C47.1641 336.569 49.7799 330.253 49.7799 323.668C49.7828 322.798 49.7419 321.928 49.6576 321.063L321.039 49.5908C324.497 49.9344 327.988 49.5515 331.289 48.4665C334.59 47.3814 337.628 45.6183 340.208 43.2903C342.788 40.9622 344.852 38.1205 346.27 34.9476C347.687 31.7747 348.425 28.3406 348.437 24.8655C348.44 24.0072 348.399 23.1493 348.315 22.295C347.729 16.7302 345.284 11.5255 341.375 7.52144C337.466 3.51741 332.322 0.947769 326.774 0.227527C325.724 0.0927594 324.667 0.0285252 323.609 0.0352058C320.345 0.0329085 317.112 0.673912 314.096 1.9216C311.079 3.16929 308.338 4.99921 306.029 7.30676C303.72 9.61432 301.888 12.3543 300.639 15.3701C299.389 18.3859 298.746 21.6184 298.746 24.8829C298.744 25.9473 298.814 27.0105 298.955 28.0654L28.0289 299.1C26.9799 298.959 25.9225 298.889 24.8641 298.89C21.5984 298.888 18.3642 299.529 15.3466 300.778C12.329 302.027 9.58719 303.859 7.27795 306.168C4.96872 308.477 3.1374 311.219 1.88872 314.237C0.64003 317.255 -0.0014887 320.489 0.000810319 323.755C-0.00886467 324.814 0.0612646 325.872 0.210619 326.92C0.94613 332.467 3.53178 337.603 7.54907 341.496C11.5664 345.39 16.7801 347.814 22.3464 348.376ZM338.244 24.8829C338.247 27.7653 337.396 30.5839 335.796 32.9819C334.197 35.3799 331.923 37.2496 329.261 38.3543C326.599 39.4589 323.669 39.7488 320.842 39.1873C318.015 38.6258 315.418 37.2382 313.38 35.2001C311.342 33.162 309.955 30.565 309.393 27.7378C308.832 24.9107 309.122 21.9805 310.226 19.3182C311.331 16.6559 313.2 14.3813 315.598 12.7821C317.996 11.1829 320.814 10.331 323.696 10.3345C327.546 10.3437 331.235 11.8747 333.96 14.5935C336.686 17.3123 338.225 20.9984 338.244 24.848V24.8829ZM39.5339 323.668C39.5304 326.547 38.6737 329.361 37.072 331.754C35.4702 334.146 33.1954 336.011 30.5347 337.111C27.8741 338.211 24.947 338.498 22.1233 337.936C19.2996 337.373 16.7061 335.986 14.6702 333.95C12.6343 331.914 11.2475 329.32 10.6849 326.496C10.1224 323.673 10.4093 320.745 11.5096 318.084C12.6098 315.424 14.4739 313.149 16.8664 311.547C19.2588 309.945 22.0724 309.088 24.9516 309.085C28.819 309.085 32.5281 310.621 35.2628 313.356C37.9975 316.091 39.5339 319.8 39.5339 323.668Z" fill="#B5F2B4"/>
<path d="M22.5371 231.831C23.3385 231.915 24.144 231.956 24.95 231.953C31.5365 231.948 37.8516 229.328 42.5074 224.669C47.1631 220.01 49.7783 213.692 49.7783 207.105C49.7816 206.305 49.7408 205.505 49.656 204.71L204.781 49.5555C205.565 49.6406 206.353 49.6814 207.141 49.6778C213.731 49.6778 220.051 47.06 224.71 42.4002C229.37 37.7403 231.987 31.4201 231.987 24.8301C231.99 24.0358 231.949 23.2419 231.865 22.452C231.327 16.8853 228.926 11.6628 225.052 7.62965C221.178 3.59646 216.056 0.988326 210.516 0.22714C209.415 0.0719537 208.305 -0.00396989 207.194 -0.000134877C200.604 -0.000134877 194.285 2.6177 189.625 7.27756C184.966 11.9374 182.348 18.2576 182.348 24.8476C182.353 25.9588 182.429 27.0685 182.575 28.17L28.2721 182.467C27.1765 182.321 26.0727 182.245 24.9675 182.24C21.7032 182.238 18.4704 182.879 15.454 184.126C12.4375 185.374 9.69643 187.204 7.38743 189.512C5.07842 191.819 3.24673 194.559 1.99702 197.575C0.747301 200.591 0.104093 203.823 0.104094 207.088C0.10899 208.199 0.184868 209.309 0.331352 210.41C1.0742 215.962 3.67232 221.1 7.70358 224.988C11.7348 228.877 16.9624 231.288 22.5371 231.831ZM221.741 24.8476C221.745 27.7292 220.893 30.5471 219.295 32.9447C217.697 35.3424 215.423 37.2121 212.762 38.3172C210.101 39.4224 207.172 39.7133 204.346 39.1533C201.519 38.5932 198.922 37.2073 196.884 35.1709C194.845 33.1345 193.456 30.5392 192.893 27.7132C192.329 24.8872 192.617 21.9576 193.719 19.295C194.82 16.6324 196.687 14.3565 199.083 12.7552C201.478 11.1539 204.295 10.2992 207.176 10.2992C211.035 10.3038 214.734 11.8375 217.464 14.5643C220.194 17.2912 221.732 20.9889 221.741 24.8476ZM39.5323 207.14C39.5323 210.02 38.6785 212.836 37.0789 215.231C35.4792 217.626 33.2055 219.493 30.5452 220.596C27.8848 221.699 24.9572 221.988 22.1324 221.428C19.3076 220.867 16.7123 219.481 14.6747 217.446C12.6371 215.411 11.2486 212.817 10.6846 209.993C10.1207 207.168 10.4066 204.24 11.5063 201.578C12.606 198.916 14.4701 196.64 16.8629 195.038C19.2558 193.435 22.0701 192.578 24.95 192.574C28.8144 192.574 32.5208 194.108 35.255 196.84C37.9892 199.571 39.5276 203.276 39.5323 207.14Z" fill="#B5F2B4"/>
<path d="M22.7288 115.374C23.4632 115.374 24.1975 115.479 24.9494 115.479C31.5359 115.474 37.8511 112.854 42.5068 108.195C47.1625 103.535 49.7777 97.2178 49.7777 90.6308C49.7777 89.8964 49.7777 89.1445 49.6728 88.4101L88.4891 49.6084C89.2234 49.6784 89.9578 49.7133 90.6922 49.7133C97.2787 49.7087 103.594 47.0888 108.25 42.4294C112.905 37.7701 115.521 31.4526 115.521 24.8656C115.521 24.1312 115.521 23.4143 115.433 22.6798C114.931 17.1041 112.562 11.8609 108.71 7.79893C104.858 3.73697 99.7475 1.09391 94.2066 0.297588C93.0487 0.12877 91.8797 0.046967 90.7096 0.0528105C87.4409 0.0390045 84.2017 0.670363 81.1774 1.91071C78.1531 3.15106 75.4033 4.97599 73.0855 7.28099C70.7676 9.58598 68.9274 12.3257 67.6702 15.3432C66.4129 18.3607 65.7634 21.5966 65.7588 24.8656C65.7602 26.0356 65.842 27.2041 66.0037 28.3628L28.4114 65.9929C27.2528 65.8304 26.0843 65.7486 24.9144 65.7481C21.6487 65.7458 18.4145 66.3874 15.3969 67.6362C12.3793 68.885 9.63745 70.7164 7.32822 73.0258C5.01899 75.3352 3.18767 78.0773 1.93898 81.0951C0.690299 84.1129 0.0487801 87.3473 0.0510791 90.6133C0.0538578 91.7833 0.135612 92.9516 0.295838 94.1105C1.08711 99.6664 3.73438 104.791 7.80723 108.652C11.8801 112.512 17.139 114.881 22.7288 115.374ZM105.239 24.8481C105.246 27.7346 104.397 30.5583 102.798 32.9615C101.199 35.3647 98.9228 37.2393 96.2578 38.348C93.5928 39.4566 90.6588 39.7494 87.8273 39.1892C84.9959 38.6291 82.3943 37.2412 80.3521 35.2013C78.31 33.1614 76.9191 30.5613 76.3555 27.7303C75.792 24.8993 76.0812 21.9647 77.1866 19.2982C78.2919 16.6317 80.1637 14.3532 82.5648 12.7513C84.9659 11.1494 87.7883 10.2962 90.6747 10.2996C94.5316 10.3089 98.2283 11.844 100.957 14.5699C103.686 17.2958 105.226 20.9908 105.239 24.8481ZM39.5317 90.6308C39.5282 93.5102 38.6715 96.324 37.0698 98.7167C35.4681 101.109 33.1932 102.974 30.5325 104.074C27.8719 105.174 24.9448 105.461 22.1211 104.899C19.2975 104.336 16.7039 102.949 14.668 100.913C12.6321 98.877 11.2453 96.2832 10.6828 93.4593C10.1202 90.6354 10.4072 87.7081 11.5074 85.0473C12.6076 82.3864 14.4717 80.1114 16.8642 78.5095C19.2567 76.9076 22.0702 76.0509 24.9494 76.0474C28.8154 76.0521 32.5218 77.59 35.2555 80.3239C37.9892 83.0578 39.5271 86.7645 39.5317 90.6308Z" fill="#B5F2B4"/>
<path d="M532.025 620.249C531.919 621.178 531.866 622.112 531.867 623.047C531.865 626.31 532.505 629.542 533.752 632.557C534.998 635.573 536.827 638.313 539.132 640.622C541.438 642.931 544.175 644.763 547.189 646.014C550.203 647.265 553.433 647.91 556.696 647.912C558.06 647.909 559.423 647.798 560.77 647.58C566.085 646.698 570.969 644.11 574.684 640.209C578.4 636.307 580.745 631.302 581.367 625.95C581.493 624.964 581.557 623.971 581.559 622.977C581.557 619.714 580.912 616.483 579.661 613.47C578.41 610.456 576.578 607.718 574.27 605.412C571.961 603.106 569.22 601.278 566.205 600.032C563.19 598.785 559.959 598.145 556.696 598.147C555.714 598.144 554.733 598.202 553.758 598.322L49.5672 94.1447C49.6928 93.188 49.7571 92.2243 49.7596 91.2595C49.7619 87.9949 49.1209 84.762 47.8733 81.7453C46.6258 78.7286 44.796 75.9873 42.4886 73.6781C40.1812 71.369 37.4414 69.5371 34.4258 68.2873C31.4103 67.0375 28.178 66.3942 24.9137 66.3942C23.9549 66.399 22.9972 66.4632 22.0462 66.5866C16.707 67.2224 11.7185 69.5745 7.83077 73.2891C3.943 77.0038 1.36613 81.8802 0.487512 87.1852C0.487512 87.5874 0.347623 88.0071 0.312654 88.4442C-0.0813131 91.9211 0.263482 95.4421 1.32445 98.7765C2.38542 102.111 4.13861 105.184 6.4693 107.794C8.8 110.403 11.6556 112.492 14.8492 113.921C18.0427 115.351 21.5022 116.09 25.0012 116.09C25.9359 116.092 26.87 116.039 27.7987 115.932L532.025 620.249ZM556.696 637.63C553.815 637.627 551 636.769 548.607 635.166C546.214 633.563 544.35 631.285 543.25 628.622C542.151 625.96 541.866 623.031 542.432 620.206C542.997 617.381 544.387 614.787 546.427 612.752C548.466 610.718 551.063 609.334 553.889 608.775C556.715 608.216 559.643 608.508 562.303 609.614C564.963 610.72 567.236 612.589 568.833 614.987C570.431 617.384 571.281 620.201 571.278 623.082C571.276 624.995 570.897 626.888 570.163 628.655C569.429 630.421 568.354 632.026 567 633.377C565.646 634.728 564.039 635.799 562.271 636.528C560.503 637.258 558.608 637.633 556.696 637.63ZM24.8962 76.6761C27.7769 76.6726 30.5939 77.5235 32.991 79.1211C35.388 80.7188 37.2576 82.9914 38.3632 85.6517C39.4687 88.3119 39.7607 91.2403 39.2021 94.0665C38.6435 96.8927 37.2594 99.4897 35.225 101.529C33.1905 103.569 30.5969 104.959 27.7723 105.525C24.9477 106.09 22.0189 105.805 19.3562 104.706C16.6935 103.607 14.4165 101.742 12.8132 99.3489C11.21 96.9555 10.3524 94.1403 10.3489 91.2595C10.3535 87.3992 11.8865 83.6978 14.6127 80.9649C17.3388 78.232 21.0363 76.6899 24.8962 76.6761Z" fill="#B5F2B4"/>
<path d="M464.901 625.827C464.901 624.917 465.041 623.991 465.041 623.046C465.041 619.786 464.399 616.557 463.151 613.544C461.903 610.532 460.074 607.794 457.769 605.489C455.463 603.183 452.726 601.354 449.714 600.106C446.702 598.858 443.473 598.216 440.213 598.216C439.251 598.216 438.342 598.216 437.433 598.356L49.6201 210.532C49.6201 209.622 49.76 208.783 49.76 207.751C49.7554 201.164 47.1356 194.849 42.4766 190.193C37.8176 185.537 31.5007 182.921 24.9142 182.921C23.97 182.921 23.0433 182.921 22.1515 183.061C16.5893 183.689 11.4012 186.174 7.42579 190.115C3.45034 194.055 0.919776 199.222 0.243096 204.779C0.122866 205.759 0.0645109 206.746 0.068291 207.734C0.0659938 210.998 0.706949 214.231 1.95454 217.248C3.20214 220.265 5.03186 223.006 7.33924 225.315C9.64663 227.624 12.3865 229.456 15.402 230.706C18.4176 231.956 21.6499 232.599 24.9142 232.599C25.9077 232.603 26.9004 232.544 27.8866 232.424L415.454 620.091C415.334 621.072 415.276 622.059 415.279 623.046C415.277 626.312 415.919 629.547 417.167 632.565C418.416 635.582 420.247 638.324 422.557 640.634C424.866 642.943 427.608 644.775 430.625 646.024C433.643 647.272 436.877 647.914 440.143 647.912C441.13 647.915 442.117 647.857 443.098 647.737C448.67 647.078 453.856 644.556 457.814 640.578C461.772 636.601 464.27 631.402 464.901 625.827ZM24.8967 193.203C27.7788 193.199 30.5972 194.051 32.995 195.65C35.3929 197.25 37.2624 199.524 38.3669 202.187C39.4715 204.849 39.7614 207.779 39.2 210.606C38.6385 213.433 37.251 216.03 35.213 218.068C33.175 220.107 30.5782 221.494 27.7513 222.056C24.9244 222.617 21.9944 222.327 19.3324 221.223C16.6703 220.118 14.3957 218.248 12.7966 215.85C11.1975 213.452 10.3459 210.634 10.3493 207.751C10.3586 203.896 11.8942 200.201 14.6203 197.474C17.3465 194.748 21.0413 193.212 24.8967 193.203ZM440.213 637.63C437.33 637.633 434.512 636.781 432.114 635.182C429.716 633.583 427.847 631.308 426.742 628.646C425.638 625.984 425.348 623.054 425.909 620.226C426.471 617.399 427.858 614.802 429.896 612.764C431.934 610.726 434.531 609.338 437.358 608.777C440.185 608.215 443.115 608.505 445.777 609.61C448.439 610.715 450.714 612.584 452.313 614.982C453.912 617.38 454.763 620.199 454.76 623.081C454.751 626.937 453.215 630.632 450.489 633.358C447.763 636.085 444.068 637.621 440.213 637.63Z" fill="#B5F2B4"/>
<path d="M348.401 625.651C348.485 624.785 348.526 623.916 348.523 623.046C348.523 616.46 345.907 610.145 341.251 605.488C336.595 600.831 330.28 598.215 323.695 598.215C322.825 598.213 321.955 598.253 321.09 598.338L49.6384 326.936C49.982 323.478 49.599 319.986 48.5141 316.685C47.4292 313.383 45.6662 310.345 43.3383 307.765C41.0104 305.185 38.1689 303.12 34.9963 301.703C31.8236 300.286 28.3897 299.547 24.9149 299.535C24.0567 299.533 23.1988 299.574 22.3447 299.658C16.7802 300.244 11.5759 302.689 7.57218 306.598C3.56844 310.507 0.998999 315.651 0.278811 321.2C0.144054 322.25 0.0798243 323.307 0.0865044 324.365C0.0842072 327.63 0.725163 330.863 1.97276 333.88C3.22035 336.896 5.05013 339.638 7.35751 341.947C9.6649 344.256 12.4046 346.088 15.4202 347.338C18.4358 348.587 21.6681 349.231 24.9324 349.231C25.9966 349.232 27.0598 349.162 28.1146 349.021L299.129 619.968C298.988 621.017 298.918 622.075 298.919 623.133C298.917 626.399 299.558 629.634 300.807 632.651C302.056 635.669 303.887 638.411 306.196 640.721C308.505 643.03 311.247 644.861 314.265 646.11C317.282 647.359 320.517 648.001 323.782 647.998C324.841 648.008 325.899 647.938 326.947 647.789C332.493 647.053 337.628 644.467 341.522 640.449C345.415 636.432 347.839 631.218 348.401 625.651ZM24.9324 309.73C27.8145 309.726 30.6329 310.578 33.0307 312.177C35.4286 313.776 37.2981 316.051 38.4027 318.713C39.5072 321.376 39.7971 324.306 39.2357 327.133C38.6742 329.96 37.2867 332.557 35.2488 334.595C33.2108 336.633 30.614 338.021 27.787 338.582C24.9601 339.144 22.0301 338.854 19.3681 337.749C16.706 336.645 14.4315 334.775 12.8324 332.377C11.2333 329.979 10.3816 327.16 10.385 324.278C10.3942 320.428 11.9251 316.739 14.6437 314.013C17.3623 311.288 21.0481 309.748 24.8974 309.73H24.9324ZM323.695 608.462C326.574 608.466 329.388 609.322 331.78 610.924C334.173 612.526 336.037 614.801 337.137 617.462C338.237 620.123 338.524 623.05 337.962 625.874C337.399 628.698 336.012 631.292 333.976 633.328C331.94 635.364 329.347 636.751 326.523 637.313C323.699 637.876 320.772 637.589 318.112 636.489C315.451 635.388 313.176 633.524 311.574 631.132C309.973 628.739 309.116 625.925 309.113 623.046C309.113 619.178 310.649 615.469 313.384 612.734C316.118 609.999 319.827 608.462 323.695 608.462Z" fill="#B5F2B4"/>
<path d="M231.866 625.46C231.95 624.658 231.991 623.853 231.988 623.047C231.984 616.46 229.364 610.144 224.705 605.488C220.046 600.832 213.729 598.216 207.142 598.216C206.342 598.213 205.542 598.254 204.747 598.339L49.6044 443.202C49.6895 442.418 49.7303 441.63 49.7267 440.841C49.7267 434.251 47.1091 427.931 42.4496 423.271C37.7901 418.612 31.4704 415.994 24.8809 415.994C24.0866 415.991 23.2928 416.032 22.503 416.116C16.9366 416.654 11.7146 419.055 7.68174 422.93C3.64885 426.804 1.04091 431.926 0.279786 437.467C0.124612 438.567 0.048694 439.678 0.0525287 440.789C0.0525287 447.379 2.67017 453.699 7.32967 458.359C11.9892 463.019 18.3089 465.637 24.8984 465.637C26.0095 465.632 27.1191 465.556 28.2205 465.409L182.506 619.724C182.36 620.82 182.284 621.924 182.279 623.029C182.277 626.294 182.918 629.527 184.165 632.543C185.413 635.56 187.243 638.301 189.55 640.611C191.857 642.92 194.597 644.752 197.613 646.001C200.628 647.251 203.861 647.894 207.125 647.894C208.236 647.89 209.345 647.814 210.447 647.667C215.998 646.924 221.136 644.326 225.024 640.294C228.912 636.263 231.324 631.035 231.866 625.46ZM24.8984 426.241C27.7798 426.237 30.5974 427.088 32.9949 428.687C35.3924 430.285 37.2619 432.559 38.367 435.22C39.472 437.881 39.763 440.811 39.203 443.637C38.6429 446.464 37.2571 449.061 35.2209 451.1C33.1847 453.139 30.5896 454.528 27.7638 455.091C24.938 455.655 22.0086 455.367 19.3462 454.265C16.6838 453.163 14.4081 451.296 12.8069 448.901C11.2057 446.505 10.351 443.688 10.351 440.806C10.3557 436.948 11.8892 433.248 14.6159 430.518C17.3425 427.788 21.04 426.25 24.8984 426.241ZM207.177 608.463C210.057 608.463 212.872 609.317 215.267 610.917C217.662 612.517 219.529 614.791 220.632 617.451C221.735 620.112 222.024 623.039 221.463 625.864C220.903 628.689 219.517 631.285 217.482 633.323C215.447 635.361 212.854 636.749 210.029 637.313C207.205 637.877 204.277 637.591 201.616 636.491C198.954 635.392 196.678 633.527 195.075 631.134C193.473 628.741 192.616 625.927 192.612 623.047C192.612 619.182 194.146 615.475 196.877 612.741C199.608 610.006 203.313 608.468 207.177 608.463Z" fill="#B5F2B4"/>
<path d="M115.415 625.267C115.415 624.533 115.52 623.799 115.52 623.047C115.515 616.46 112.896 610.144 108.237 605.488C103.578 600.832 97.2607 598.216 90.6742 598.216C89.9398 598.216 89.188 598.216 88.4536 598.321L49.6549 559.502C49.7248 558.768 49.7598 558.033 49.7598 557.299C49.7551 550.712 47.1354 544.396 42.4764 539.74C37.8174 535.084 31.5004 532.469 24.9139 532.469C24.1795 532.469 23.4627 532.469 22.7283 532.556C17.153 533.058 11.9102 535.427 7.84853 539.28C3.78688 543.132 1.14402 548.243 0.347755 553.784C0.17895 554.942 0.0971528 556.111 0.102996 557.281C0.0891909 560.55 0.720501 563.79 1.96075 566.814C3.20101 569.839 5.0258 572.589 7.33062 574.907C9.63545 577.225 12.375 579.065 15.3923 580.323C18.4095 581.58 21.6452 582.229 24.9139 582.234C26.0838 582.233 27.2522 582.151 28.4109 581.989L66.0381 619.584C65.8756 620.743 65.7938 621.912 65.7933 623.082C65.791 626.348 66.4326 629.582 67.6812 632.6C68.9299 635.618 70.7613 638.36 73.0705 640.669C75.3797 642.979 78.1216 644.81 81.1392 646.059C84.1568 647.308 87.3909 647.949 90.6567 647.947C91.8265 647.944 92.9948 647.862 94.1536 647.702C99.709 646.911 104.833 644.263 108.694 640.19C112.554 636.117 114.923 630.858 115.415 625.267ZM24.8964 542.75C27.7827 542.743 30.6062 543.593 33.0092 545.192C35.4122 546.791 37.2867 549.068 38.3952 551.733C39.5038 554.398 39.7966 557.332 39.2365 560.164C38.6763 562.996 37.2885 565.597 35.2488 567.64C33.2091 569.682 30.6092 571.073 27.7784 571.637C24.9476 572.2 22.0132 571.911 19.3469 570.805C16.6806 569.7 14.4023 567.828 12.8005 565.427C11.1988 563.026 10.3456 560.203 10.3491 557.316C10.3583 553.459 11.8933 549.762 14.619 547.033C17.3446 544.304 21.0394 542.764 24.8964 542.75ZM90.6742 608.463C93.5533 608.467 96.3669 609.323 98.7594 610.925C101.152 612.527 103.016 614.802 104.116 617.463C105.216 620.124 105.503 623.051 104.941 625.875C104.378 628.699 102.991 631.293 100.956 633.329C98.9197 635.365 96.3261 636.752 93.5024 637.314C90.6787 637.877 87.7517 637.59 85.091 636.49C82.4304 635.389 80.1555 633.525 78.5537 631.132C76.952 628.74 76.0953 625.926 76.0919 623.047C76.0965 619.18 77.6343 615.474 80.368 612.74C83.1017 610.006 86.8081 608.468 90.6742 608.463Z" fill="#B5F2B4"/>
</svg>
