<svg width="50" height="50" viewBox="0 0 50 50" fill="none" xmlns="http://www.w3.org/2000/svg">
<path fill-rule="evenodd" clip-rule="evenodd" d="M37.5004 7.81357V10.937C37.5004 11.8007 38.2008 12.4995 39.063 12.4995H42.1881C43.0502 12.4995 43.7514 13.2003 43.7514 14.0624C43.7514 14.9261 43.0502 15.6253 42.1881 15.6253H38.2816C36.2331 15.6253 34.569 14.0414 34.4059 12.0338C34.3975 11.9285 34.3746 11.8271 34.3746 11.7184V7.81357C34.3746 6.94951 35.0758 6.25068 35.9371 6.25068C36.8008 6.25068 37.5004 6.94961 37.5004 7.81357ZM12.4996 26.5619C12.4996 25.7006 13.1985 24.9994 14.0621 24.9994C14.9243 24.9994 15.6246 25.7006 15.6246 26.5619C15.6246 27.4256 14.9242 28.1252 14.0621 28.1252C13.1985 28.1252 12.4996 27.4256 12.4996 26.5619ZM25 37.5009C21.6033 37.5009 18.5301 36.1437 16.2771 33.9448C15.9284 33.6587 15.6988 33.2276 15.6988 32.7394C15.6988 31.8772 16.3984 31.177 17.2598 31.177C17.6924 31.177 18.0814 31.3517 18.3653 31.6354L18.3707 31.63C20.0668 33.3283 22.4105 34.375 25.0001 34.375C29.7282 34.375 33.6245 30.8732 34.2693 26.3238L34.2815 26.3254C34.4166 25.4809 35.2001 24.8941 36.0493 25.017C36.9031 25.1413 37.4952 25.9333 37.3724 26.7886C37.3602 26.871 37.3373 26.9488 37.3129 27.0267C36.3423 32.9651 31.212 37.5009 25 37.5009ZM48.4374 28.1252C47.5753 28.1252 46.8765 27.4256 46.8765 26.5619C46.8765 25.7006 47.5753 24.9994 48.4374 24.9994C49.3012 24.9994 50 25.7006 50 26.5619C50 27.4256 49.3012 28.1252 48.4374 28.1252ZM40.6255 50H9.37451C4.19775 50 0 45.803 0 40.6243V24.9994C0 21.5483 2.79775 18.7502 6.24863 18.7502H12.4995C13.5227 18.7502 14.4321 18.2581 15.0036 17.4959C15.0174 17.4783 15.0349 17.4681 15.0509 17.4539C17.3313 14.4461 20.9333 12.4994 24.9999 12.4994C29.0658 12.4994 32.6684 14.4461 34.9489 17.4539C34.9649 17.4681 34.9825 17.4783 34.9962 17.4959C35.5677 18.2581 36.4771 18.7502 37.5003 18.7502H43.7513C45.4763 18.7502 46.8764 17.3506 46.8764 15.6252V9.37607C46.8764 5.92305 44.077 3.12539 40.6254 3.12539H9.37451C5.92285 3.12539 3.1251 5.92305 3.1251 9.37607V14.0624C3.1251 14.9261 2.42471 15.6253 1.5626 15.6253C0.698926 15.6253 9.76563e-05 14.9261 9.76563e-05 14.0624V9.37607C0 4.19766 4.19775 0 9.37451 0H40.6255C45.8021 0 50 4.19766 50 9.37607V15.6253C50 19.0764 47.2022 21.8756 43.7514 21.8756H37.5004C35.4571 21.8756 33.6443 20.8949 32.5037 19.3793C32.4945 19.3671 32.4823 19.3651 32.4739 19.3549C30.7657 17.0897 28.0571 15.6253 25 15.6253C21.9443 15.6253 19.232 17.0897 17.526 19.3549C17.5168 19.3651 17.5046 19.3671 17.4962 19.3793C16.357 20.8949 14.5428 21.8756 12.4995 21.8756H6.24854C4.52344 21.8756 3.125 23.2736 3.125 24.9994V40.6243C3.1251 44.0773 5.92285 46.875 9.37451 46.875H40.6255C44.0771 46.875 46.8765 44.0773 46.8765 40.6243V32.8126C46.8765 31.9489 47.5753 31.2502 48.4374 31.2502C49.3012 31.2502 50 31.9489 50 32.8126V40.6243C50 45.803 45.8021 50 40.6255 50Z" fill="url(#paint0_linear_62_182)"/>
<defs>
<linearGradient id="paint0_linear_62_182" x1="5.57303e-07" y1="2" x2="53" y2="48.75" gradientUnits="userSpaceOnUse">
<stop stop-color="#F9CE34"/>
<stop offset="0.542476" stop-color="#EE2A7B"/>
<stop offset="1" stop-color="#6228D7"/>
</linearGradient>
</defs>
</svg>
