<svg width="98" height="86" viewBox="0 0 98 86" fill="none" xmlns="http://www.w3.org/2000/svg">
<path d="M94.8524 8.82175C94.9551 8.8338 95.0583 8.83978 95.1617 8.83967C95.5224 8.83993 95.8796 8.76702 96.2129 8.62511C96.5463 8.48319 96.8492 8.27505 97.1044 8.01256C97.3597 7.75007 97.5622 7.43838 97.7005 7.09529C97.8387 6.75219 97.91 6.3844 97.9103 6.01293C97.9099 5.85757 97.8976 5.70248 97.8736 5.5491C97.776 4.94398 97.49 4.38795 97.0587 3.96494C96.6274 3.54192 96.0742 3.27487 95.4825 3.2041C95.3735 3.18974 95.2638 3.18243 95.1539 3.18221C94.7932 3.18247 94.4361 3.25589 94.103 3.39829C93.7698 3.54069 93.4672 3.74927 93.2123 4.01213C92.9574 4.27499 92.7553 4.58697 92.6175 4.93027C92.4797 5.27356 92.4089 5.64145 92.4092 6.01293C92.4088 6.12471 92.4153 6.23641 92.4285 6.34736L36.6965 63.7501C36.5907 63.7358 36.4842 63.7285 36.3775 63.7282C36.0167 63.728 35.6593 63.8009 35.3258 63.943C34.9924 64.085 34.6893 64.2933 34.4341 64.556C34.1788 64.8187 33.9763 65.1307 33.8382 65.474C33.7 65.8173 33.6289 66.1853 33.6289 66.5569C33.6294 66.6661 33.6365 66.7751 33.6502 66.8834C33.7205 67.4913 33.9805 68.0592 34.3911 68.5019C34.8017 68.9445 35.3407 69.2379 35.9272 69.3379C35.9716 69.3379 36.018 69.3538 36.0663 69.3578C36.4507 69.4027 36.8399 69.3634 37.2085 69.2426C37.5771 69.1218 37.9167 68.9222 38.2052 68.6569C38.4937 68.3915 38.7245 68.0664 38.8826 67.7028C39.0406 67.3392 39.1223 66.9453 39.1223 66.547C39.1225 66.4406 39.1167 66.3342 39.1049 66.2285L94.8524 8.82175ZM96.7737 6.01293C96.7733 6.34089 96.6785 6.66138 96.5013 6.93385C96.3241 7.20632 96.0723 7.41855 95.778 7.54369C95.4836 7.66884 95.1598 7.70127 94.8476 7.63691C94.5353 7.57254 94.2486 7.41425 94.0237 7.18207C93.7988 6.94988 93.6458 6.65423 93.584 6.33249C93.5223 6.01075 93.5546 5.67737 93.6768 5.37452C93.799 5.07167 94.0057 4.81295 94.2707 4.63107C94.5357 4.44919 94.8471 4.35232 95.1655 4.35271C95.377 4.35298 95.5863 4.39613 95.7816 4.4797C95.9768 4.56328 96.1542 4.68564 96.3035 4.8398C96.4528 4.99397 96.5712 5.17692 96.6519 5.3782C96.7326 5.57949 96.774 5.79517 96.7737 6.01293ZM34.7655 66.5589C34.7651 66.231 34.8591 65.9103 35.0357 65.6373C35.2124 65.3644 35.4636 65.1516 35.7576 65.0257C36.0517 64.8998 36.3754 64.8666 36.6878 64.9302C37.0002 64.9938 37.2873 65.1514 37.5128 65.383C37.7382 65.6146 37.8919 65.9099 37.9544 66.2315C38.0169 66.5531 37.9854 66.8865 37.8639 67.1897C37.7424 67.4928 37.5363 67.7521 37.2717 67.9346C37.0072 68.1171 36.696 68.2148 36.3775 68.2152C35.9508 68.2146 35.5417 68.0401 35.2396 67.7297C34.9375 67.4194 34.767 66.9984 34.7655 66.5589Z" fill="#CE84AD"/>
<path d="M95.4736 16.4692C95.3731 16.4692 95.2707 16.4532 95.1663 16.4532C94.8059 16.4532 94.4489 16.5264 94.1159 16.6684C93.7829 16.8105 93.4804 17.0187 93.2255 17.2812C92.9706 17.5437 92.7684 17.8553 92.6305 18.1982C92.4926 18.5412 92.4216 18.9088 92.4216 19.28C92.4216 19.3895 92.4216 19.493 92.437 19.5965L49.5667 63.7494C49.4662 63.7494 49.3734 63.7335 49.2594 63.7335C48.5313 63.734 47.8331 64.0323 47.3185 64.5627C46.8038 65.0931 46.5146 65.8123 46.5146 66.5622C46.5146 66.6697 46.5146 66.7752 46.5301 66.8767C46.5995 67.51 46.8742 68.1007 47.3098 68.5533C47.7454 69.0059 48.3165 69.294 48.9308 69.371C49.0392 69.3847 49.1483 69.3914 49.2575 69.3909C49.6183 69.3912 49.9757 69.3182 50.3092 69.1762C50.6426 69.0341 50.9457 68.8258 51.2009 68.5631C51.4562 68.3004 51.6587 67.9885 51.7968 67.6452C51.935 67.3018 52.0061 66.9338 52.0061 66.5622C52.0065 66.4491 52 66.3361 51.9868 66.2238L94.8396 22.0988C94.948 22.1125 95.0571 22.1191 95.1663 22.1187C95.5273 22.1189 95.8849 22.0459 96.2185 21.9037C96.5521 21.7616 96.8552 21.5531 97.1104 21.2902C97.3657 21.0272 97.5682 20.7151 97.7062 20.3715C97.8443 20.028 97.9152 19.6598 97.9149 19.2879C97.9153 19.1755 97.9089 19.0631 97.8956 18.9515C97.8228 18.3171 97.544 17.7267 97.1043 17.2761C96.6646 16.8254 96.09 16.5411 95.4736 16.4692ZM47.6512 66.5642C47.6508 66.2361 47.745 65.9152 47.9218 65.6422C48.0985 65.3692 48.35 65.1563 48.6443 65.0306C48.9386 64.9048 49.2625 64.8718 49.575 64.9357C49.8875 64.9997 50.1746 65.1576 50.3999 65.3897C50.6252 65.6217 50.7785 65.9173 50.8406 66.2392C50.9027 66.561 50.8706 66.8946 50.7485 67.1977C50.6264 67.5008 50.4197 67.7597 50.1547 67.9418C49.8896 68.1239 49.578 68.2208 49.2594 68.2204C48.8332 68.2194 48.4247 68.0445 48.1234 67.7342C47.822 67.4238 47.6522 67.0031 47.6512 66.5642ZM96.7784 19.28C96.7788 19.6081 96.6846 19.929 96.5078 20.202C96.331 20.475 96.0796 20.6878 95.7853 20.8136C95.491 20.9393 95.1671 20.9724 94.8546 20.9084C94.5421 20.8445 94.255 20.6865 94.0297 20.4545C93.8044 20.2225 93.651 19.9268 93.589 19.605C93.5269 19.2831 93.5589 18.9496 93.6811 18.6465C93.8032 18.3434 94.0098 18.0844 94.2749 17.9024C94.54 17.7203 94.8516 17.6234 95.1702 17.6238C95.5964 17.6248 96.0048 17.7996 96.3062 18.11C96.6076 18.4204 96.7773 18.8411 96.7784 19.28Z" fill="#CE84AD"/>
<path d="M95.4495 29.7281C95.3537 29.7185 95.2576 29.7138 95.1615 29.7142C94.4335 29.7142 93.7354 30.012 93.2206 30.5421C92.7059 31.0722 92.4167 31.7912 92.4167 32.5409C92.4164 32.64 92.4209 32.739 92.4302 32.8375L62.4293 63.7426C62.047 63.7035 61.6611 63.7471 61.2961 63.8706C60.9312 63.9941 60.5954 64.1948 60.3102 64.4599C60.025 64.7249 59.7967 65.0484 59.6401 65.4096C59.4834 65.7708 59.4018 66.1618 59.4004 66.5574C59.4001 66.6551 59.4046 66.7528 59.4139 66.85C59.4788 67.4835 59.7491 68.076 60.1811 68.5319C60.6132 68.9877 61.1819 69.2802 61.7953 69.3622C61.9113 69.3776 62.0282 69.3849 62.1452 69.3841C62.506 69.3844 62.8634 69.3114 63.1969 69.1694C63.5303 69.0273 63.8333 68.819 64.0886 68.5563C64.3439 68.2936 64.5464 67.9817 64.6845 67.6384C64.8227 67.295 64.8938 66.927 64.8938 66.5554C64.8939 66.4342 64.8862 66.3132 64.8706 66.1931L94.8213 35.3378C94.9372 35.3538 95.0541 35.3618 95.1711 35.3617C95.5321 35.3619 95.8897 35.2889 96.2233 35.1467C96.5569 35.0046 96.86 34.7961 97.1153 34.5332C97.3705 34.2703 97.573 33.9581 97.711 33.6145C97.8491 33.271 97.92 32.9028 97.9197 32.531C97.9208 32.4104 97.9131 32.29 97.8965 32.1707C97.8152 31.5392 97.5294 30.9546 97.0853 30.5113C96.6412 30.068 96.0648 29.7921 95.4495 29.7281ZM60.5273 66.5554C60.5269 66.2273 60.6211 65.9064 60.7978 65.6334C60.9746 65.3604 61.2261 65.1475 61.5204 65.0218C61.8147 64.896 62.1386 64.863 62.4511 64.9269C62.7636 64.9909 63.0507 65.1488 63.276 65.3809C63.5012 65.6129 63.6546 65.9085 63.7167 66.2304C63.7788 66.5522 63.7467 66.8858 63.6246 67.1889C63.5025 67.492 63.2958 67.7509 63.0308 67.933C62.7657 68.115 62.4541 68.212 62.1355 68.2116C61.71 68.2106 61.3021 68.0363 61.0008 67.7268C60.6995 67.4172 60.5293 66.9976 60.5273 66.5594V66.5554ZM93.5494 32.5409C93.5498 32.2131 93.6445 31.8928 93.8216 31.6204C93.9986 31.348 94.2501 31.1358 94.5442 31.0105C94.8384 30.8853 95.162 30.8526 95.4741 30.9166C95.7863 30.9807 96.073 31.1386 96.298 31.3704C96.5231 31.6022 96.6764 31.8974 96.7386 32.2189C96.8008 32.5404 96.7691 32.8736 96.6475 33.1766C96.5258 33.4795 96.3198 33.7385 96.0553 33.9208C95.7908 34.1032 95.4797 34.2007 95.1615 34.2011C94.7339 34.2011 94.3239 34.0262 94.0216 33.7149C93.7192 33.4035 93.5494 32.9812 93.5494 32.5409Z" fill="#CE84AD"/>
<path d="M95.4344 42.9964C95.3457 42.9868 95.2567 42.9821 95.1676 42.9825C94.4395 42.983 93.7413 43.2813 93.2267 43.8117C92.712 44.3421 92.4229 45.0613 92.4229 45.8112C92.4225 45.9023 92.427 45.9933 92.4364 46.0839L75.2874 63.7471C75.2008 63.7374 75.1137 63.7327 75.0265 63.7332C74.298 63.7332 73.5994 64.0312 73.0843 64.5617C72.5692 65.0922 72.2798 65.8117 72.2798 66.5619C72.2795 66.6523 72.2841 66.7427 72.2933 66.8326C72.3528 67.4664 72.6182 68.0609 73.0465 68.52C73.4748 68.9792 74.041 69.2761 74.6534 69.3628C74.7751 69.3804 74.8978 69.3891 75.0207 69.3886C75.7492 69.3886 76.4478 69.0906 76.9629 68.5601C77.478 68.0296 77.7674 67.3101 77.7674 66.5599C77.7668 66.4334 77.7584 66.3071 77.7423 66.1817L94.8004 48.616C94.9215 48.6327 95.0435 48.6414 95.1657 48.6419C95.5265 48.6422 95.8839 48.5692 96.2174 48.4272C96.5508 48.2851 96.8539 48.0768 97.1091 47.8141C97.3644 47.5514 97.5669 47.2395 97.705 46.8962C97.8432 46.5528 97.9143 46.1848 97.9143 45.8132C97.9138 45.6867 97.9054 45.5604 97.8892 45.435C97.8071 44.8029 97.5198 44.218 97.0742 43.7753C96.6285 43.3326 96.0506 43.0581 95.4344 42.9964ZM73.4125 66.5599C73.4121 66.2318 73.5062 65.9111 73.6829 65.6381C73.8596 65.3651 74.1109 65.1523 74.4051 65.0265C74.6993 64.9007 75.0231 64.8675 75.3356 64.9313C75.648 64.9951 75.9351 65.1528 76.1605 65.3847C76.3858 65.6165 76.5394 65.912 76.6017 66.2337C76.664 66.5554 76.6322 66.8889 76.5104 67.192C76.3886 67.4951 76.1822 67.7542 75.9174 67.9365C75.6525 68.1188 75.3412 68.2161 75.0226 68.2161C74.5961 68.2156 74.1871 68.041 73.8853 67.7306C73.5835 67.4201 73.4135 66.9992 73.4125 66.5599ZM93.5555 45.8072C93.5555 45.4793 93.6499 45.1588 93.8268 44.8862C94.0036 44.6135 94.255 44.401 94.5491 44.2754C94.8432 44.1499 95.1668 44.1169 95.4791 44.1807C95.7914 44.2445 96.0783 44.4023 96.3035 44.634C96.5288 44.8657 96.6823 45.161 96.7446 45.4825C96.807 45.804 96.7754 46.1374 96.6538 46.4404C96.5322 46.7435 96.3262 47.0026 96.0616 47.185C95.7971 47.3675 95.486 47.4651 95.1676 47.4654C94.7404 47.4654 94.3307 47.2908 94.0284 46.9799C93.7261 46.669 93.5561 46.2472 93.5555 45.8072Z" fill="#CE84AD"/>
<path d="M95.4074 56.2543C95.3263 56.2543 95.2451 56.2424 95.162 56.2424C94.4338 56.2429 93.7357 56.5412 93.221 57.0716C92.7063 57.602 92.4172 58.3212 92.4172 59.0711C92.4172 59.1547 92.4172 59.2403 92.4288 59.3239L88.1377 63.7412C88.0565 63.7332 87.9753 63.7292 87.8942 63.7292C87.166 63.7298 86.4679 64.028 85.9532 64.5585C85.4385 65.0889 85.1494 65.8081 85.1494 66.558C85.1494 66.6416 85.1494 66.7232 85.1591 66.8068C85.2146 67.4416 85.4765 68.0385 85.9023 68.5009C86.3282 68.9633 86.8931 69.2642 87.5057 69.3549C87.6337 69.3741 87.7629 69.3834 87.8922 69.3827C88.2536 69.3843 88.6117 69.3124 88.946 69.1712C89.2803 69.03 89.5843 68.8223 89.8406 68.5599C90.0968 68.2974 90.3002 67.9855 90.4392 67.642C90.5782 67.2985 90.65 66.9301 90.6505 66.558C90.6504 66.4248 90.6413 66.2918 90.6235 66.1598L94.7792 61.8759C94.9073 61.8944 95.0365 61.9038 95.1658 61.9038C95.5269 61.9041 95.8844 61.831 96.218 61.6889C96.5516 61.5467 96.8547 61.3382 97.11 61.0753C97.3653 60.8124 97.5677 60.5002 97.7057 60.1567C97.8438 59.8131 97.9147 59.4449 97.9145 59.0731C97.9141 58.9399 97.9051 58.8069 97.8874 58.675C97.7999 58.0425 97.5073 57.459 97.057 57.0196C96.6068 56.5801 96.0254 56.3104 95.4074 56.2543ZM86.286 66.56C86.2852 66.2314 86.3792 65.9099 86.5559 65.6363C86.7327 65.3627 86.9843 65.1493 87.2789 65.0231C87.5735 64.8969 87.8979 64.8636 88.2109 64.9273C88.5239 64.9911 88.8115 65.1491 89.0372 65.3813C89.263 65.6136 89.4168 65.9096 89.4791 66.2319C89.5414 66.5541 89.5094 66.8882 89.3872 67.1918C89.265 67.4953 89.0581 67.7547 88.7926 67.9371C88.5272 68.1195 88.2152 68.2166 87.8961 68.2162C87.4697 68.2152 87.0611 68.0404 86.7594 67.7301C86.4577 67.4197 86.2875 66.9991 86.286 66.56ZM93.5499 59.0711C93.5503 58.7433 93.645 58.423 93.8221 58.1506C93.9991 57.8782 94.2506 57.666 94.5448 57.5407C94.8389 57.4155 95.1625 57.3828 95.4746 57.4468C95.7868 57.5109 96.0735 57.6688 96.2986 57.9006C96.5236 58.1323 96.6769 58.4276 96.7391 58.7491C96.8013 59.0706 96.7696 59.4038 96.648 59.7067C96.5263 60.0097 96.3203 60.2687 96.0558 60.451C95.7913 60.6334 95.4803 60.7309 95.162 60.7313C94.7346 60.7308 94.3248 60.5557 94.0226 60.2445C93.7204 59.9332 93.5504 59.5113 93.5499 59.0711Z" fill="#CE84AD"/>
<path d="M37.019 74.2005H58.4745V77.9146C58.4745 78.6536 58.1894 79.3624 57.6819 79.885C57.1745 80.4076 56.4861 80.7011 55.7684 80.7011H39.7251C39.0074 80.7011 38.3191 80.4076 37.8116 79.885C37.3041 79.3624 37.019 78.6536 37.019 77.9146V74.2005Z" fill="#41A5DC"/>
<path d="M64.3575 83.0401H31.1402C30.3929 83.0401 29.7871 83.6634 29.7871 84.4323C29.7871 85.2013 30.3929 85.8246 31.1402 85.8246H64.3575C65.1048 85.8246 65.7105 85.2013 65.7105 84.4323C65.7105 83.6634 65.1048 83.0401 64.3575 83.0401Z" fill="#41A5DC"/>
<path d="M6.18536 0C4.5449 0 2.97163 0.671136 1.81165 1.86576C0.65167 3.06039 0 4.68066 0 6.37012L0 63.1617C0.0025606 64.8495 0.655361 66.4672 1.81506 67.6596C2.97477 68.8521 4.54657 69.5219 6.18536 69.5219H20.7867L88.2825 0H6.18536ZM19.3756 66.0104H6.18536C5.45208 66.0093 4.74913 65.7089 4.23062 65.1749C3.71211 64.6409 3.42037 63.9169 3.41934 63.1617V6.37012C3.41858 5.99534 3.48954 5.62408 3.62815 5.27755C3.76677 4.93103 3.97033 4.61603 4.2272 4.35056C4.48408 4.08509 4.78923 3.87435 5.12522 3.73038C5.46121 3.58642 5.82145 3.51205 6.18536 3.51153H80.0617L19.3756 66.0104Z" fill="#41A5DC"/>
</svg>
