<svg width="478" height="478" viewBox="0 0 478 478" fill="none" xmlns="http://www.w3.org/2000/svg">
<path d="M446.145 245.164C446.477 245.584 446.833 245.984 447.211 246.361C448.53 247.682 450.103 248.722 451.842 249.422C453.58 250.122 455.45 250.469 457.344 250.443C459.238 250.416 461.119 250.017 462.88 249.267C464.641 248.518 466.247 247.433 467.607 246.075C468.174 245.506 468.696 244.893 469.17 244.244C471.026 241.674 472.014 238.593 471.984 235.468C471.953 232.343 470.907 229.342 469.001 226.919C468.655 226.468 468.28 226.039 467.879 225.637C466.559 224.318 464.984 223.28 463.244 222.582C461.504 221.885 459.634 221.541 457.74 221.57C455.846 221.599 453.966 222.001 452.206 222.753C450.446 223.504 448.841 224.591 447.483 225.951C447.073 226.359 446.688 226.791 446.33 227.245L32.4577 233.358C32.1231 232.918 31.7602 232.502 31.3711 232.111C30.0519 230.79 28.4776 229.749 26.7381 229.049C24.9986 228.349 23.128 228.002 21.2332 228.029C19.3384 228.057 17.4565 228.457 15.6951 229.208C13.9338 229.958 12.3274 231.044 10.9679 232.404C10.5704 232.805 10.1975 233.23 9.85135 233.676C7.88475 236.157 6.7582 239.186 6.6411 242.307C6.524 245.428 7.42269 248.473 9.20201 250.985C9.36464 251.147 9.47608 251.375 9.6383 251.567C10.8802 253.137 12.4476 254.417 14.2379 255.323C16.0282 256.23 18.0009 256.742 20.027 256.827C22.0531 256.912 24.0869 256.567 25.9951 255.815C27.9033 255.063 29.643 253.921 31.1003 252.463C31.4903 252.075 31.8581 251.665 32.2018 251.235L446.145 245.164ZM463.449 241.918C462.248 243.116 460.729 243.942 459.084 244.29C457.439 244.638 455.741 244.494 454.207 243.875C452.672 243.256 451.369 242.19 450.462 240.812C449.555 239.434 449.086 237.807 449.112 236.134C449.139 234.462 449.661 232.821 450.612 231.418C451.563 230.015 452.9 228.914 454.455 228.253C456.01 227.592 457.713 227.402 459.348 227.706C460.983 228.01 462.476 228.795 463.64 229.961C464.412 230.736 465.02 231.659 465.429 232.679C465.837 233.699 466.038 234.796 466.021 235.906C466.003 237.016 465.767 238.118 465.326 239.15C464.884 240.181 464.247 241.122 463.449 241.918ZM15.1184 236.569C16.3168 235.368 17.8341 234.539 19.4785 234.186C21.123 233.834 22.8206 233.974 24.3569 234.59C25.8931 235.205 27.1988 236.267 28.1091 237.643C29.0193 239.018 29.493 240.645 29.4704 242.317C29.4478 243.989 28.9299 245.632 27.9821 247.037C27.0343 248.442 25.6992 249.547 24.1457 250.211C22.5922 250.876 20.89 251.07 19.2544 250.77C17.6188 250.47 16.1232 249.689 14.9568 248.525C13.3977 246.962 12.5394 244.827 12.5697 242.586C12.5999 240.346 13.5163 238.182 15.1184 236.569Z" fill="#CE84AD"/>
<path d="M420.444 275.377C420.077 275.009 419.76 274.576 419.378 274.194C418.06 272.875 416.486 271.837 414.749 271.139C413.011 270.44 411.142 270.095 409.249 270.123C407.357 270.151 405.477 270.551 403.718 271.301C401.959 272.051 400.354 273.136 398.996 274.494C398.596 274.895 398.217 275.273 397.895 275.708L79.5445 280.401C79.1768 280.033 78.8956 279.635 78.4785 279.218C75.8129 276.556 72.1678 275.094 68.3445 275.151C64.5213 275.209 60.8326 276.782 58.0894 279.525C57.6962 279.919 57.3102 280.305 56.9954 280.733C54.9326 283.303 53.7767 286.469 53.7145 289.718C53.6524 292.967 54.6876 296.111 56.6529 298.64C56.9993 299.086 57.3741 299.509 57.7751 299.907C59.0943 301.228 60.6686 302.269 62.4081 302.969C64.1476 303.669 66.0182 304.016 67.913 303.989C69.8078 303.961 71.6897 303.561 73.451 302.81C75.2124 302.06 76.8188 300.974 78.1783 299.614C78.5936 299.202 78.9835 298.765 79.3456 298.306L397.531 293.652C397.877 294.098 398.252 294.522 398.653 294.92C399.973 296.241 401.548 297.282 403.288 297.982C405.029 298.683 406.9 299.029 408.796 299.001C410.691 298.973 412.574 298.571 414.336 297.82C416.098 297.068 417.704 295.98 419.063 294.619C419.476 294.209 419.864 293.775 420.223 293.318C422.278 290.731 423.418 287.551 423.458 284.294C423.498 281.037 422.436 277.894 420.444 275.377ZM62.2399 283.69C63.4389 282.489 64.9572 281.659 66.6025 281.307C68.2479 280.955 69.9464 281.096 71.483 281.713C73.0196 282.33 74.3253 283.394 75.2347 284.771C76.1441 286.148 76.6164 287.776 76.5918 289.449C76.5672 291.122 76.0467 292.765 75.0964 294.169C74.146 295.573 72.8085 296.677 71.2531 297.339C69.6976 298.001 67.9942 298.192 66.3585 297.888C64.7228 297.585 63.2283 296.799 62.0642 295.632C60.5089 294.069 59.6542 291.936 59.6871 289.698C59.7201 287.46 60.6379 285.3 62.2399 283.69ZM414.935 290.432C413.736 291.634 412.217 292.463 410.572 292.815C408.927 293.167 407.228 293.026 405.691 292.41C404.155 291.793 402.849 290.729 401.94 289.352C401.03 287.975 400.558 286.347 400.583 284.674C400.607 283.001 401.128 281.358 402.078 279.954C403.028 278.549 404.366 277.446 405.921 276.784C407.477 276.122 409.18 275.931 410.816 276.234C412.452 276.538 413.946 277.323 415.11 278.49C416.666 280.053 417.52 282.187 417.487 284.425C417.454 286.663 416.537 288.823 414.935 290.432Z" fill="#CE84AD"/>
<path d="M371.852 323.828C371.537 323.443 371.202 323.074 370.849 322.723C368.186 320.06 364.543 318.596 360.72 318.652C356.898 318.708 353.21 320.281 350.467 323.023C350.104 323.385 349.758 323.763 349.432 324.158L126.624 327.466C125.369 325.924 123.797 324.672 122.01 323.788C120.224 322.905 118.261 322.411 116.248 322.337C114.235 322.264 112.217 322.612 110.322 323.36C108.428 324.108 106.699 325.24 105.247 326.682C104.888 327.039 104.547 327.413 104.226 327.802C102.145 330.357 100.966 333.513 100.88 336.762C100.793 340.01 101.803 343.16 103.747 345.704C104.115 346.185 104.516 346.639 104.947 347.064C106.266 348.385 107.84 349.426 109.58 350.126C111.319 350.826 113.19 351.173 115.085 351.145C116.979 351.118 118.861 350.718 120.623 349.967C122.384 349.217 123.99 348.131 125.35 346.771C125.794 346.328 126.208 345.857 126.59 345.361L349.032 342.051C349.398 342.534 349.796 342.991 350.225 343.419C351.544 344.74 353.119 345.781 354.86 346.481C356.6 347.182 358.472 347.528 360.368 347.5C362.263 347.472 364.146 347.071 365.908 346.319C367.669 345.567 369.276 344.479 370.635 343.118C371.08 342.681 371.492 342.212 371.868 341.715C373.881 339.108 374.974 335.923 374.971 332.677C374.968 329.431 373.869 326.313 371.852 323.828ZM109.376 330.798C110.575 329.596 112.094 328.766 113.739 328.414C115.384 328.062 117.083 328.204 118.619 328.82C120.156 329.437 121.462 330.501 122.371 331.878C123.28 333.255 123.753 334.883 123.728 336.556C123.704 338.229 123.183 339.872 122.233 341.276C121.282 342.681 119.945 343.784 118.389 344.446C116.834 345.108 115.131 345.299 113.495 344.995C111.859 344.692 110.365 343.907 109.201 342.74C107.648 341.179 106.793 339.049 106.823 336.815C106.854 334.581 107.766 332.423 109.362 330.812L109.376 330.798ZM354.611 327.167C355.812 325.969 357.33 325.144 358.974 324.795C360.618 324.446 362.315 324.59 363.849 325.208C365.383 325.826 366.686 326.89 367.594 328.266C368.502 329.642 368.973 331.269 368.948 332.94C368.924 334.611 368.404 336.252 367.456 337.656C366.507 339.059 365.172 340.163 363.619 340.826C362.066 341.489 360.365 341.683 358.73 341.382C357.095 341.082 355.601 340.301 354.435 339.138C352.871 337.574 352.011 335.434 352.044 333.189C352.077 330.944 353 328.778 354.611 327.167Z" fill="#CE84AD"/>
<path d="M323.237 372.287C322.948 371.927 322.64 371.585 322.312 371.26C319.647 368.598 316.002 367.135 312.179 367.193C308.355 367.251 304.667 368.824 301.923 371.567C301.589 371.899 301.272 372.249 300.975 372.614L173.625 374.496C173.343 374.143 173.042 373.807 172.721 373.49C170.056 370.825 166.41 369.36 162.585 369.416C158.76 369.472 155.07 371.046 152.325 373.79C151.993 374.12 151.679 374.467 151.384 374.83C149.284 377.366 148.079 380.512 147.967 383.758C147.854 387.005 148.839 390.162 150.762 392.72C151.143 393.229 151.56 393.71 152.011 394.158C154.676 396.823 158.322 398.288 162.147 398.232C165.972 398.176 169.663 396.602 172.407 393.858C172.868 393.393 173.299 392.9 173.699 392.382L300.36 390.525C300.742 391.029 301.157 391.507 301.602 391.956C302.921 393.277 304.495 394.318 306.235 395.018C307.974 395.718 309.845 396.065 311.74 396.038C313.635 396.01 315.516 395.61 317.278 394.859C319.039 394.109 320.645 393.023 322.005 391.663C322.466 391.199 322.897 390.706 323.297 390.188C325.308 387.575 326.397 384.385 326.387 381.135C326.376 377.885 325.266 374.767 323.237 372.287ZM156.476 377.927C157.675 376.725 159.193 375.896 160.837 375.544C162.482 375.191 164.18 375.332 165.717 375.948C167.253 376.564 168.559 377.627 169.469 379.004C170.379 380.38 170.852 382.007 170.828 383.68C170.804 385.353 170.285 386.995 169.336 388.4C168.387 389.805 167.051 390.908 165.496 391.572C163.942 392.235 162.239 392.428 160.603 392.126C158.968 391.824 157.473 391.041 156.307 389.876C154.749 388.313 153.892 386.179 153.923 383.939C153.955 381.699 154.873 379.537 156.476 377.927ZM306.082 375.696C307.281 374.497 308.799 373.669 310.443 373.319C312.088 372.968 313.785 373.11 315.32 373.727C316.855 374.344 318.16 375.407 319.068 376.783C319.977 378.159 320.45 379.785 320.426 381.457C320.403 383.129 319.884 384.77 318.936 386.175C317.988 387.579 316.653 388.683 315.099 389.347C313.546 390.01 311.844 390.205 310.209 389.904C308.574 389.604 307.079 388.823 305.913 387.66C304.35 386.097 303.49 383.959 303.522 381.716C303.553 379.473 304.474 377.308 306.082 375.696Z" fill="#CE84AD"/>
<path d="M274.659 420.709C274.362 420.412 274.109 420.071 273.805 419.767C271.139 417.106 267.494 415.643 263.671 415.7C259.848 415.758 256.159 417.331 253.416 420.075C253.11 420.38 252.797 420.694 252.533 421.042L220.676 421.503C220.408 421.177 220.126 420.866 219.829 420.569C217.163 417.907 213.518 416.444 209.695 416.502C205.872 416.559 202.183 418.133 199.44 420.876C199.134 421.182 198.835 421.48 198.565 421.822C196.446 424.347 195.22 427.488 195.087 430.738C194.953 433.987 195.919 437.155 197.828 439.727C198.226 440.266 198.665 440.773 199.14 441.243C200.456 442.571 202.029 443.618 203.769 444.325C205.508 445.031 207.381 445.383 209.278 445.361C211.175 445.338 213.06 444.941 214.825 444.193C216.591 443.445 218.201 442.36 219.564 441C220.051 440.512 220.504 439.993 220.922 439.445L251.796 438.976C252.197 439.512 252.635 440.019 253.108 440.492C254.428 441.814 256.003 442.855 257.743 443.555C259.484 444.255 261.355 444.601 263.251 444.573C265.147 444.546 267.029 444.144 268.791 443.392C270.553 442.641 272.159 441.553 273.519 440.192C274.005 439.704 274.458 439.184 274.876 438.636C276.87 436.003 277.934 432.798 277.894 429.543C277.855 426.288 276.715 423.175 274.659 420.709ZM203.59 425.041C204.79 423.836 206.309 423.004 207.957 422.65C209.604 422.295 211.305 422.435 212.845 423.051C214.384 423.667 215.693 424.732 216.605 426.11C217.516 427.489 217.991 429.119 217.967 430.794C217.943 432.47 217.423 434.115 216.472 435.522C215.521 436.929 214.182 438.034 212.624 438.697C211.067 439.361 209.361 439.553 207.722 439.249C206.084 438.945 204.588 438.159 203.422 436.99C201.866 435.427 201.01 433.292 201.042 431.053C201.073 428.815 201.99 426.653 203.59 425.041ZM257.559 424.218C258.76 423.02 260.278 422.195 261.923 421.846C263.567 421.498 265.263 421.641 266.797 422.259C268.332 422.877 269.635 423.941 270.542 425.317C271.45 426.693 271.921 428.32 271.897 429.991C271.872 431.662 271.353 433.304 270.404 434.707C269.456 436.111 268.121 437.214 266.568 437.877C265.014 438.54 263.313 438.734 261.678 438.433C260.044 438.133 258.549 437.352 257.383 436.189C255.822 434.623 254.963 432.484 254.996 430.24C255.029 427.996 255.951 425.83 257.559 424.218Z" fill="#CE84AD"/>
</svg>
