<svg width="67" height="67" viewBox="0 0 67 67" fill="none" xmlns="http://www.w3.org/2000/svg">
<path d="M53.7365 0.741638C53.3165 0.741638 52.8965 0.681641 52.4665 0.681641C48.6995 0.684292 45.0877 2.18256 42.425 4.84717C39.7622 7.51177 38.2665 11.1246 38.2665 14.8916C38.2665 15.3116 38.2665 15.7416 38.3265 16.1616L16.1265 38.3516C15.7065 38.3116 15.2865 38.2916 14.8665 38.2916C11.0995 38.2943 7.48771 39.7926 4.82498 42.4572C2.16225 45.1218 0.666503 48.7346 0.666504 52.5016C0.666504 52.9216 0.666492 53.3316 0.716492 53.7516C1.00365 56.9403 2.35846 59.9388 4.56165 62.2617C6.76483 64.5847 9.68747 66.0962 12.8565 66.5516C13.5187 66.6482 14.1873 66.695 14.8565 66.6916C16.726 66.6995 18.5786 66.3385 20.3082 65.6291C22.0379 64.9198 23.6106 63.8761 24.9362 62.558C26.2618 61.2398 27.3143 59.6729 28.0334 57.9473C28.7524 56.2216 29.1239 54.3711 29.1265 52.5016C29.1257 51.8325 29.0789 51.1643 28.9865 50.5016L50.4865 28.9816C51.1491 29.0745 51.8174 29.1213 52.4865 29.1216C54.3542 29.123 56.204 28.756 57.9298 28.0419C59.6557 27.3277 61.2238 26.2803 62.5445 24.9596C63.8652 23.6389 64.9126 22.0708 65.6267 20.3449C66.3409 18.6191 66.7078 16.7694 66.7065 14.9016C66.7049 14.2326 66.6581 13.5644 66.5665 12.9016C66.114 9.72435 64.5999 6.79357 62.2705 4.58585C59.9412 2.37812 56.9335 1.02329 53.7365 0.741638ZM6.54651 52.5116C6.54255 50.8609 7.02855 49.2461 7.94299 47.8717C8.85744 46.4974 10.1592 45.4253 11.6833 44.7913C13.2075 44.1573 14.8856 43.9898 16.5049 44.3102C18.1243 44.6305 19.6122 45.4242 20.7802 46.5908C21.9482 47.7574 22.7437 49.2443 23.066 50.8633C23.3883 52.4823 23.2228 54.1606 22.5907 55.6855C21.9585 57.2104 20.888 58.5135 19.5147 59.4296C18.1415 60.3457 16.5273 60.8336 14.8765 60.8316C12.6706 60.8264 10.5564 59.9484 8.99564 58.3896C7.43489 56.8307 6.55443 54.7175 6.54651 52.5116ZM44.1265 14.8916C44.1285 13.245 44.6184 11.6358 45.5345 10.2675C46.4506 8.89916 47.7516 7.83303 49.2733 7.2038C50.795 6.57456 52.4691 6.41044 54.084 6.73218C55.699 7.05391 57.1823 7.84708 58.3467 9.01144C59.511 10.1758 60.3042 11.6591 60.6259 13.2741C60.9477 14.889 60.7836 16.5631 60.1543 18.0848C59.5251 19.6065 58.459 20.9075 57.0906 21.8236C55.7223 22.7397 54.1132 23.2297 52.4665 23.2316C50.2554 23.229 48.1356 22.3495 46.5721 20.786C45.0087 19.2225 44.1291 17.1027 44.1265 14.8916Z" fill="#AB47BC" fill-opacity="0.5"/>
</svg>
