<svg width="333" height="343" viewBox="0 0 333 343" fill="none" xmlns="http://www.w3.org/2000/svg">
<path d="M317.128 29.6117C317.659 29.674 318.193 29.7049 318.728 29.7044C320.594 29.7057 322.442 29.3285 324.166 28.5943C325.891 27.8601 327.458 26.7833 328.779 25.4253C330.099 24.0673 331.147 22.4548 331.862 20.6798C332.577 18.9047 332.946 17.002 332.948 15.0802C332.946 14.2764 332.882 13.474 332.758 12.6806C332.253 9.54996 330.773 6.67334 328.542 4.48486C326.311 2.29637 323.448 0.914803 320.388 0.548665C319.824 0.47438 319.256 0.436544 318.688 0.435379C316.822 0.436731 314.974 0.816602 313.25 1.5533C311.527 2.29 309.961 3.36911 308.643 4.729C307.324 6.0889 306.278 7.70295 305.566 9.479C304.853 11.2551 304.486 13.1583 304.488 15.0802C304.486 15.6585 304.519 16.2363 304.588 16.8104L16.2577 313.784C15.7106 313.71 15.1595 313.673 14.6077 313.671C12.7408 313.67 10.8919 314.047 9.16669 314.782C7.4415 315.517 5.87382 316.595 4.55324 317.954C3.23266 319.313 2.18507 320.927 1.47032 322.703C0.755578 324.479 0.387695 326.383 0.387695 328.306C0.390412 328.87 0.427149 329.434 0.497695 329.995C0.861333 333.139 2.20644 336.078 4.33077 338.368C6.4551 340.658 9.24384 342.175 12.2777 342.693C12.5077 342.693 12.7477 342.775 12.9977 342.796C14.9861 343.028 16.9997 342.825 18.9066 342.2C20.8135 341.575 22.5707 340.542 24.0632 339.17C25.5558 337.797 26.7499 336.115 27.5675 334.234C28.3851 332.353 28.8077 330.315 28.8077 328.254C28.8088 327.703 28.7787 327.153 28.7177 326.606L317.128 29.6117ZM327.068 15.0802C327.066 16.7769 326.575 18.4349 325.658 19.8446C324.741 21.2542 323.439 22.3522 321.916 22.9996C320.393 23.647 318.718 23.8149 317.103 23.4818C315.487 23.1488 314.004 22.3299 312.84 21.1287C311.677 19.9275 310.885 18.3979 310.566 16.7334C310.246 15.0689 310.413 13.3442 311.046 11.7774C311.678 10.2106 312.747 8.87207 314.118 7.9311C315.489 6.99014 317.1 6.48899 318.748 6.49103C319.842 6.49238 320.925 6.71562 321.935 7.14799C322.945 7.58037 323.862 8.21342 324.635 9.01099C325.408 9.80857 326.02 10.7551 326.437 11.7964C326.855 12.8378 327.069 13.9536 327.068 15.0802ZM6.26769 328.316C6.26572 326.619 6.75233 324.96 7.666 323.548C8.57967 322.136 9.87935 321.035 11.4007 320.384C12.9221 319.733 14.5967 319.561 16.213 319.89C17.8292 320.219 19.3144 321.034 20.4808 322.232C21.6472 323.43 22.4423 324.958 22.7657 326.622C23.089 328.286 22.9261 330.011 22.2974 331.579C21.6688 333.147 20.6027 334.489 19.2339 335.433C17.8651 336.377 16.2552 336.882 14.6077 336.884C12.4001 336.882 10.2833 335.979 8.72039 334.373C7.15748 332.767 6.27563 330.589 6.26769 328.316Z" fill="#CE84AD"/>
<path d="M320.318 69.1484C319.798 69.1484 319.268 69.0661 318.728 69.0661C316.863 69.0661 315.017 69.4443 313.294 70.1793C311.571 70.9142 310.005 71.9914 308.687 73.3494C307.368 74.7074 306.322 76.3195 305.609 78.0938C304.895 79.8681 304.528 81.7698 304.528 83.6902C304.528 84.2567 304.528 84.7922 304.608 85.3277L82.8178 313.753C82.2978 313.753 81.8178 313.671 81.2278 313.671C77.4608 313.674 73.849 315.217 71.1863 317.961C68.5236 320.705 67.0278 324.426 67.0278 328.306C67.0278 328.862 67.0278 329.408 67.1078 329.933C67.4668 333.209 68.888 336.265 71.1417 338.606C73.3954 340.948 76.3499 342.439 79.5278 342.837C80.0885 342.908 80.653 342.942 81.2178 342.94C83.0848 342.941 84.9336 342.564 86.6588 341.829C88.384 341.094 89.9517 340.016 91.2723 338.657C92.5929 337.298 93.6405 335.685 94.3552 333.908C95.0699 332.132 95.4378 330.228 95.4378 328.306C95.44 327.72 95.4066 327.136 95.3378 326.555L317.038 98.2732C317.598 98.3441 318.163 98.3785 318.728 98.3762C320.596 98.3776 322.445 97.9997 324.171 97.2642C325.897 96.5287 327.465 95.4501 328.786 94.0899C330.107 92.7297 331.154 91.1148 331.868 89.3374C332.582 87.56 332.949 85.655 332.948 83.7314C332.95 83.1497 332.917 82.5684 332.848 81.991C332.471 78.7089 331.029 75.6542 328.754 73.3228C326.479 70.9915 323.506 69.5204 320.318 69.1484ZM72.9078 328.316C72.9059 326.618 73.393 324.958 74.3075 323.546C75.2221 322.133 76.5229 321.032 78.0455 320.382C79.568 319.731 81.2437 319.56 82.8605 319.891C84.4773 320.222 85.9625 321.039 87.128 322.239C88.2936 323.44 89.0872 324.969 89.4083 326.634C89.7294 328.3 89.5635 330.025 88.9318 331.593C88.3001 333.161 87.2309 334.501 85.8595 335.443C84.4881 336.385 82.8762 336.886 81.2278 336.884C79.0228 336.879 76.9097 335.974 75.3505 334.369C73.7914 332.763 72.9131 330.587 72.9078 328.316ZM327.068 83.6902C327.07 85.3879 326.583 87.0479 325.668 88.4603C324.754 89.8726 323.453 90.9738 321.93 91.6244C320.408 92.275 318.732 92.4457 317.115 92.115C315.498 91.7844 314.013 90.9671 312.848 89.7667C311.682 88.5663 310.888 87.0368 310.567 85.3717C310.246 83.7066 310.412 81.9808 311.044 80.4128C311.676 78.8448 312.745 77.5051 314.116 76.5632C315.488 75.6213 317.099 75.1197 318.748 75.1217C320.953 75.1271 323.066 76.0316 324.625 77.6374C326.184 79.2431 327.063 81.4194 327.068 83.6902Z" fill="#CE84AD"/>
<path d="M320.218 137.769C319.723 137.719 319.225 137.695 318.728 137.697C314.962 137.697 311.35 139.238 308.687 141.98C306.024 144.723 304.528 148.442 304.528 152.321C304.526 152.833 304.55 153.345 304.598 153.855L149.388 313.743C147.41 313.541 145.413 313.766 143.525 314.405C141.637 315.044 139.9 316.083 138.424 317.454C136.949 318.825 135.768 320.499 134.958 322.368C134.147 324.236 133.725 326.259 133.718 328.306C133.716 328.811 133.74 329.316 133.788 329.819C134.123 333.097 135.522 336.162 137.757 338.521C139.992 340.879 142.934 342.392 146.108 342.816C146.708 342.896 147.313 342.934 147.918 342.93C149.785 342.931 151.634 342.554 153.359 341.819C155.084 341.084 156.652 340.006 157.972 338.647C159.293 337.288 160.34 335.674 161.055 333.898C161.77 332.122 162.138 330.218 162.138 328.295C162.139 327.668 162.099 327.042 162.018 326.421L316.968 166.791C317.568 166.873 318.172 166.915 318.778 166.914C320.646 166.916 322.495 166.538 324.221 165.802C325.947 165.067 327.515 163.988 328.836 162.628C330.157 161.268 331.204 159.653 331.918 157.875C332.632 156.098 332.999 154.193 332.998 152.269C333.003 151.646 332.963 151.023 332.878 150.405C332.457 147.139 330.978 144.114 328.681 141.821C326.383 139.527 323.401 138.1 320.218 137.769ZM139.548 328.295C139.546 326.598 140.033 324.938 140.948 323.525C141.862 322.113 143.163 321.012 144.685 320.361C146.208 319.711 147.884 319.54 149.5 319.87C151.117 320.201 152.602 321.018 153.768 322.219C154.934 323.419 155.727 324.949 156.048 326.614C156.369 328.279 156.204 330.005 155.572 331.573C154.94 333.141 153.871 334.48 152.499 335.422C151.128 336.364 149.516 336.866 147.868 336.864C145.666 336.858 143.556 335.957 141.998 334.355C140.439 332.754 139.558 330.583 139.548 328.316V328.295ZM310.388 152.321C310.39 150.625 310.88 148.968 311.796 147.559C312.712 146.149 314.013 145.051 315.535 144.403C317.056 143.755 318.73 143.586 320.345 143.918C321.96 144.249 323.444 145.066 324.608 146.265C325.772 147.464 326.566 148.992 326.887 150.655C327.209 152.318 327.045 154.042 326.416 155.609C325.786 157.177 324.72 158.517 323.352 159.46C321.984 160.403 320.374 160.908 318.728 160.91C316.516 160.91 314.395 160.005 312.831 158.394C311.266 156.784 310.388 154.599 310.388 152.321Z" fill="#CE84AD"/>
<path d="M320.107 206.41C319.649 206.36 319.188 206.336 318.727 206.338C314.96 206.34 311.349 207.884 308.686 210.628C306.023 213.372 304.527 217.093 304.527 220.972C304.526 221.444 304.549 221.915 304.597 222.383L215.877 313.764C215.429 313.714 214.978 313.69 214.527 313.692C210.759 313.692 207.144 315.233 204.479 317.978C201.815 320.722 200.317 324.445 200.317 328.326C200.316 328.794 200.339 329.262 200.387 329.727C200.695 333.005 202.068 336.081 204.284 338.457C206.5 340.832 209.429 342.368 212.597 342.816C213.227 342.908 213.862 342.953 214.497 342.95C218.266 342.95 221.881 341.408 224.545 338.664C227.21 335.92 228.707 332.197 228.707 328.316C228.705 327.661 228.661 327.008 228.577 326.359L316.827 235.483C317.454 235.569 318.085 235.614 318.717 235.617C320.584 235.618 322.433 235.241 324.158 234.506C325.884 233.771 327.451 232.693 328.772 231.334C330.092 229.975 331.14 228.362 331.855 226.585C332.57 224.809 332.937 222.905 332.937 220.983C332.935 220.328 332.891 219.675 332.807 219.026C332.383 215.756 330.897 212.73 328.591 210.44C326.285 208.149 323.296 206.729 320.107 206.41ZM206.177 328.316C206.175 326.619 206.662 324.959 207.576 323.547C208.491 322.135 209.791 321.034 211.313 320.383C212.835 319.732 214.51 319.56 216.126 319.89C217.743 320.22 219.228 321.036 220.394 322.236C221.56 323.435 222.354 324.964 222.677 326.628C222.999 328.293 222.834 330.018 222.204 331.586C221.574 333.154 220.506 334.495 219.136 335.438C217.766 336.381 216.155 336.884 214.507 336.884C212.301 336.882 210.185 335.978 208.624 334.372C207.062 332.766 206.183 330.588 206.177 328.316ZM310.387 220.952C310.387 219.255 310.876 217.597 311.791 216.187C312.705 214.776 314.006 213.676 315.527 213.027C317.049 212.377 318.723 212.207 320.339 212.537C321.954 212.867 323.439 213.683 324.604 214.882C325.769 216.081 326.564 217.608 326.886 219.272C327.209 220.935 327.045 222.66 326.416 224.227C325.787 225.795 324.721 227.136 323.353 228.08C321.984 229.024 320.375 229.528 318.727 229.53C316.517 229.53 314.397 228.627 312.834 227.018C311.27 225.41 310.39 223.228 310.387 220.952Z" fill="#CE84AD"/>
<path d="M319.998 274.999C319.578 274.999 319.158 274.938 318.728 274.938C314.961 274.94 311.349 276.483 308.686 279.228C306.023 281.972 304.528 285.693 304.528 289.572C304.528 290.005 304.528 290.447 304.588 290.88L282.388 313.733C281.968 313.692 281.548 313.671 281.128 313.671C277.361 313.674 273.749 315.217 271.086 317.961C268.423 320.705 266.928 324.426 266.928 328.306C266.928 328.738 266.928 329.16 266.978 329.593C267.265 332.877 268.62 335.965 270.823 338.357C273.026 340.75 275.949 342.306 279.118 342.775C279.78 342.875 280.449 342.923 281.118 342.919C282.987 342.928 284.84 342.556 286.569 341.825C288.299 341.095 289.872 340.02 291.197 338.662C292.523 337.305 293.576 335.691 294.295 333.914C295.014 332.137 295.385 330.231 295.388 328.306C295.387 327.616 295.34 326.928 295.248 326.246L316.748 304.083C317.41 304.179 318.079 304.227 318.748 304.227C320.615 304.229 322.465 303.851 324.191 303.115C325.917 302.38 327.485 301.301 328.806 299.941C330.126 298.581 331.174 296.966 331.888 295.188C332.602 293.411 332.969 291.506 332.968 289.582C332.966 288.893 332.919 288.205 332.828 287.523C332.375 284.25 330.861 281.232 328.532 278.958C326.202 276.685 323.195 275.289 319.998 274.999ZM272.808 328.316C272.804 326.616 273.29 324.953 274.204 323.537C275.119 322.122 276.42 321.018 277.945 320.365C279.469 319.712 281.147 319.539 282.766 319.869C284.386 320.199 285.873 321.017 287.041 322.218C288.209 323.42 289.005 324.951 289.327 326.618C289.65 328.286 289.484 330.014 288.852 331.585C288.22 333.155 287.149 334.497 285.776 335.44C284.403 336.384 282.788 336.886 281.138 336.884C278.932 336.879 276.818 335.975 275.257 334.369C273.696 332.764 272.816 330.588 272.808 328.316ZM310.388 289.572C310.39 287.876 310.88 286.219 311.796 284.81C312.712 283.401 314.013 282.303 315.535 281.655C317.056 281.007 318.73 280.838 320.345 281.169C321.96 281.5 323.444 282.317 324.608 283.516C325.772 284.715 326.565 286.243 326.887 287.906C327.209 289.569 327.045 291.293 326.416 292.861C325.786 294.428 324.72 295.768 323.352 296.711C321.984 297.655 320.374 298.159 318.728 298.161C316.517 298.158 314.397 297.253 312.833 295.642C311.27 294.032 310.39 291.849 310.388 289.572Z" fill="#CE84AD"/>
</svg>
