<svg width="68" height="68" viewBox="0 0 68 68" fill="none" xmlns="http://www.w3.org/2000/svg">
<path d="M53.7365 0.741638C53.3165 0.741638 52.8965 0.681641 52.4665 0.681641C48.6995 0.684292 45.0877 2.18256 42.425 4.84717C39.7622 7.51177 38.2665 11.1246 38.2665 14.8916C38.2665 15.3116 38.2665 15.7416 38.3265 16.1616L16.1265 38.3516C15.7065 38.3116 15.2865 38.2916 14.8665 38.2916C11.0995 38.2943 7.48771 39.7926 4.82498 42.4572C2.16225 45.1218 0.666503 48.7346 0.666504 52.5016C0.666504 52.9216 0.666492 53.3316 0.716492 53.7516C1.00365 56.9403 2.35846 59.9388 4.56165 62.2617C6.76483 64.5847 9.68747 66.0962 12.8565 66.5516C13.5187 66.6482 14.1873 66.695 14.8565 66.6916C16.726 66.6995 18.5786 66.3385 20.3082 65.6291C22.0379 64.9198 23.6106 63.8761 24.9362 62.558C26.2618 61.2398 27.3143 59.6729 28.0334 57.9473C28.7524 56.2216 29.1239 54.3711 29.1265 52.5016C29.1257 51.8325 29.0789 51.1643 28.9865 50.5016L50.4865 28.9816C51.1491 29.0745 51.8174 29.1213 52.4865 29.1216C54.3542 29.123 56.204 28.756 57.9298 28.0419C59.6557 27.3277 61.2238 26.2803 62.5445 24.9596C63.8652 23.6389 64.9126 22.0708 65.6267 20.3449C66.3409 18.6191 66.7078 16.7694 66.7065 14.9016C66.7049 14.2326 66.6581 13.5644 66.5665 12.9016C66.114 9.72435 64.5999 6.79357 62.2705 4.58585C59.9412 2.37812 56.9335 1.02329 53.7365 0.741638ZM6.54651 52.5116C6.54255 50.8609 7.02855 49.2461 7.94299 47.8717C8.85744 46.4974 10.1592 45.4253 11.6833 44.7913C13.2075 44.1573 14.8856 43.9898 16.5049 44.3102C18.1243 44.6305 19.6122 45.4242 20.7802 46.5908C21.9482 47.7574 22.7437 49.2443 23.066 50.8633C23.3883 52.4823 23.2228 54.1606 22.5907 55.6855C21.9585 57.2104 20.888 58.5135 19.5147 59.4296C18.1415 60.3457 16.5273 60.8336 14.8765 60.8316C12.6706 60.8264 10.5564 59.9484 8.99564 58.3896C7.43489 56.8307 6.55443 54.7175 6.54651 52.5116ZM44.1265 14.8916C44.1285 13.245 44.6184 11.6358 45.5345 10.2675C46.4506 8.89916 47.7516 7.83303 49.2733 7.2038C50.795 6.57456 52.4691 6.41044 54.084 6.73218C55.699 7.05391 57.1823 7.84708 58.3467 9.01144C59.511 10.1758 60.3042 11.6591 60.6259 13.2741C60.9477 14.889 60.7836 16.5631 60.1543 18.0848C59.5251 19.6065 58.459 20.9075 57.0906 21.8236C55.7223 22.7397 54.1132 23.2297 52.4665 23.2316C50.2554 23.229 48.1356 22.3495 46.5721 20.786C45.0087 19.2225 44.1291 17.1027 44.1265 14.8916Z" fill="#AB47BC"/>
<path d="M1.06 13.9701C1.06 14.3901 1 14.8101 1 15.2401C1.00265 19.007 2.50092 22.6189 5.16553 25.2816C7.83013 27.9443 11.443 29.44 15.21 29.44C15.63 29.44 16.06 29.44 16.48 29.38L38.67 51.58C38.63 52 38.61 52.4201 38.61 52.8401C38.6126 56.6071 40.1109 60.2188 42.7755 62.8816C45.4401 65.5443 49.053 67.04 52.82 67.04C53.24 67.04 53.65 67.0401 54.07 66.9901C57.2587 66.7029 60.2571 65.3481 62.5801 63.1449C64.9031 60.9417 66.4146 58.0191 66.87 54.85C66.9665 54.1878 67.0133 53.5193 67.01 52.85C67.0179 50.9806 66.6568 49.128 65.9475 47.3983C65.2381 45.6687 64.1945 44.0959 62.8763 42.7703C61.5581 41.4447 59.9913 40.3922 58.2657 39.6732C56.54 38.9541 54.6894 38.5827 52.82 38.58C52.1509 38.5808 51.4826 38.6276 50.82 38.7201L29.3 17.2201C29.3929 16.5574 29.4397 15.8892 29.44 15.2201C29.4413 13.3523 29.0744 11.5026 28.3602 9.77673C27.6461 8.05089 26.5987 6.48276 25.278 5.16205C23.9573 3.84134 22.3891 2.79396 20.6633 2.0798C18.9375 1.36565 17.0878 0.998746 15.22 1.00006C14.5509 1.00165 13.8828 1.04841 13.22 1.14005C10.0427 1.59259 7.11193 3.10664 4.90421 5.436C2.69648 7.76537 1.34164 10.7731 1.06 13.9701ZM52.83 61.16C51.1792 61.164 49.5644 60.678 48.1901 59.7635C46.8157 58.8491 45.7437 57.5474 45.1096 56.0232C44.4756 54.499 44.3082 52.821 44.6285 51.2016C44.9489 49.5822 45.7426 48.0943 46.9092 46.9263C48.0758 45.7584 49.5627 44.9629 51.1817 44.6406C52.8007 44.3183 54.4789 44.4837 56.0039 45.1159C57.5288 45.7481 58.8318 46.8186 59.7479 48.1918C60.664 49.5651 61.152 51.1793 61.15 52.83C61.1447 55.036 60.2668 57.1502 58.7079 58.7109C57.149 60.2717 55.0359 61.1521 52.83 61.16ZM15.21 23.58C13.5633 23.5781 11.9542 23.0881 10.5858 22.172C9.21752 21.256 8.15139 19.9549 7.52216 18.4332C6.89292 16.9115 6.7288 15.2374 7.05054 13.6225C7.37227 12.0076 8.16543 10.5242 9.3298 9.35986C10.4942 8.19549 11.9775 7.40233 13.5924 7.0806C15.2074 6.75886 16.8814 6.92298 18.4031 7.55222C19.9248 8.18145 21.2259 9.24758 22.142 10.6159C23.058 11.9842 23.548 13.5934 23.55 15.2401C23.5473 17.4511 22.6678 19.5709 21.1043 21.1344C19.5409 22.6979 17.4211 23.5774 15.21 23.58Z" fill="#AB47BC"/>
</svg>
