<svg width="100" height="96" viewBox="0 0 100 96" fill="none" xmlns="http://www.w3.org/2000/svg">
<path fill-rule="evenodd" clip-rule="evenodd" d="M36.5241 36.5267C37.4322 36.2473 38.6041 37.2251 39.1314 38.7616C39.6587 40.2702 39.3364 41.7368 38.4136 42.0302C37.4908 42.3095 36.319 41.3318 35.7917 39.7953C35.279 38.2867 35.6013 36.82 36.5241 36.5267ZM63.4466 36.5267C62.5238 36.2473 61.352 37.2251 60.8247 38.7616C60.2973 40.2702 60.6196 41.7368 61.557 42.0302C62.4652 42.3095 63.637 41.3318 64.1643 39.7953C64.6917 38.2867 64.3694 36.82 63.4466 36.5267Z" fill="#DBC0B2"/>
<path fill-rule="evenodd" clip-rule="evenodd" d="M45.1221 52.66C34.356 57.1718 31.1335 59.5603 29.8592 60.6499C27.8817 62.3121 26.7978 68.5 25.6406 73.7521H74.3736C73.2018 68.5 72.1178 62.2981 70.1551 60.6499C68.8807 59.5603 65.7607 57.2276 54.9947 52.7299L45.1367 52.66H45.1221Z" fill="#FFDDCC"/>
<path fill-rule="evenodd" clip-rule="evenodd" d="M45.1221 52.66C34.356 57.1718 31.1335 59.5603 29.8592 60.6499C27.8817 62.3121 26.7978 68.5 25.6406 73.7521H74.3736C73.2018 68.5 72.1178 62.2981 70.1551 60.6499C68.8807 59.5603 65.7607 57.2276 54.9947 52.7299L45.1367 52.66H45.1221Z" fill="#212121"/>
<path fill-rule="evenodd" clip-rule="evenodd" d="M55.2295 43.6924V55.0765C52.3585 58.4289 47.6566 58.3171 44.771 55.0765V43.6924C44.771 37.5464 55.2295 37.5464 55.2295 43.6924Z" fill="#ECCEBE"/>
<path fill-rule="evenodd" clip-rule="evenodd" d="M55.2295 43.6924V51.3051C53.252 52.6879 51.3478 53.4562 50.0002 53.4562C48.6673 53.4562 46.7484 52.6879 44.771 51.3051V43.6924C44.771 37.5464 55.2295 37.5464 55.2295 43.6924Z" fill="#DFC4B6"/>
<path fill-rule="evenodd" clip-rule="evenodd" d="M50.0001 23.2429C32.4522 23.2429 38.7653 43.4689 39.9078 45.0753C41.1822 46.8632 47.1731 51.5565 50.0148 51.5565C52.8418 51.5565 58.8327 46.8632 60.0924 45.0753C61.2496 43.4689 67.5627 23.2429 50.0001 23.2429Z" fill="#ECCEBE"/>
<path fill-rule="evenodd" clip-rule="evenodd" d="M41.9875 30.0175C40.9622 35.3254 38.4135 34.8226 38.6186 41.0524C37.7983 36.1915 36.5679 29.7382 40.0394 25.4918C42.7932 22.0975 51.948 19.6671 57.8803 23.7318C64.4278 25.0728 62.3772 37.7839 61.4983 40.1864C60.8831 36.2893 59.5209 34.6689 57.7778 30.1013C55.4341 31.7077 44.9903 32.0569 41.9875 30.0175Z" fill="#293439"/>
<path fill-rule="evenodd" clip-rule="evenodd" d="M50.0294 57.549C50.0294 57.549 42.7349 59.2112 42.7349 59.6442C42.7349 60.0632 45.5179 73.7521 45.5179 73.7521H55.4198L56.5623 59.6861L50.0294 57.549Z" fill="#C7B7B7"/>
<path fill-rule="evenodd" clip-rule="evenodd" d="M44.7707 52.8137V55.0766L47.0411 73.7521H43.1448L38.8383 65.427L42.9397 62.8289L37.9302 60.594L42.5442 53.7636L44.7707 52.8137ZM55.2291 52.8277V55.0626L52.9441 73.7521H56.8404L61.1468 65.427L57.0455 62.8289L62.055 60.594L57.9536 53.9731L55.2291 52.8277Z" fill="#424242"/>
<path fill-rule="evenodd" clip-rule="evenodd" d="M44.771 51.3052L44.3315 53.0093L45.5912 61.8372L50.0295 57.549L44.771 51.3052Z" fill="white"/>
<path fill-rule="evenodd" clip-rule="evenodd" d="M47.7588 59.8537L49.0185 61.7255H50.9813L52.2556 59.8537L50.0292 57.549L47.7588 59.8537Z" fill="#BA6594"/>
<path fill-rule="evenodd" clip-rule="evenodd" d="M49.0185 61.7394L47.2168 73.7521H52.7829L50.9813 61.7394H49.0185Z" fill="#CE84AD"/>
<path fill-rule="evenodd" clip-rule="evenodd" d="M55.2292 51.3052L55.5954 52.9814L54.3943 61.921L50.0293 57.549L55.2292 51.3052Z" fill="white"/>
<path fill-rule="evenodd" clip-rule="evenodd" d="M35.5718 73.7521H36.4067C36.3628 70.2182 36.3628 67.662 36.3628 67.662C36.3628 67.662 35.9966 70.316 35.5718 73.7521ZM64.4424 73.7521H63.6075C63.6515 70.2182 63.6515 67.662 63.6515 67.662C63.6515 67.662 64.0177 70.316 64.4424 73.7521Z" fill="#757575"/>
<path fill-rule="evenodd" clip-rule="evenodd" d="M44.6831 44.4188C48.2132 45.6201 52.3146 45.4245 55.3174 44.4188C54.336 48.721 46.558 48.8328 44.6831 44.4188Z" fill="#E4B7A0"/>
</svg>
