<svg width="61" height="53" viewBox="0 0 61 53" fill="none" xmlns="http://www.w3.org/2000/svg">
<path d="M40.339 23.6558H20.1631V20.2889C20.1631 14.7236 24.6731 10.201 30.251 10.201C35.8164 10.201 40.339 14.711 40.339 20.2889V23.6558Z" fill="#6B8632"/>
<path d="M35.8795 23.6558H24.6357V15.8291C24.6357 12.7261 27.1483 10.201 30.2639 10.201C33.3669 10.201 35.892 12.7136 35.892 15.8291V23.6558H35.8795Z" fill="#B3DF54"/>
<path d="M30.251 10.201C24.6857 10.201 20.1631 14.711 20.1631 20.2889V23.6558C20.2008 18.1156 24.6983 13.6432 30.251 13.6432C35.7912 13.6432 40.2887 18.1156 40.339 23.6558V20.2889C40.339 14.711 35.8164 10.201 30.251 10.201Z" fill="#EBFDC4"/>
<path d="M30.2513 12.1731C33.6094 12.1731 36.3317 9.45078 36.3317 6.09267C36.3317 2.73456 33.6094 0.0122681 30.2513 0.0122681C26.8932 0.0122681 24.1709 2.73456 24.1709 6.09267C24.1709 9.45078 26.8932 12.1731 30.2513 12.1731Z" fill="white"/>
<path d="M30.2513 1.48241C33.3543 1.48241 35.9171 3.8191 36.2814 6.82161C36.3066 6.58292 36.3317 6.33166 36.3317 6.0804C36.3317 2.72613 33.6056 0 30.2513 0C26.897 0 24.1709 2.72613 24.1709 6.0804C24.1709 6.33166 24.1835 6.57035 24.2211 6.82161C24.5855 3.8191 27.1483 1.48241 30.2513 1.48241Z" fill="#E4E9F4"/>
<path d="M30.2514 9.22116C27.3997 9.22116 25.0127 7.26136 24.3595 4.62317C24.2464 5.10056 24.1836 5.59051 24.1836 6.09302C24.1836 9.44729 26.9097 12.1734 30.264 12.1734C33.6183 12.1734 36.3444 9.44729 36.3444 6.09302C36.3444 5.57794 36.2816 5.08799 36.1685 4.62317C35.4901 7.26136 33.1032 9.22116 30.2514 9.22116Z" fill="#CBD0DC"/>
<path d="M20.1633 52.8518H0V49.485C0 43.9196 4.51005 39.397 10.0879 39.397C15.6533 39.397 20.1759 43.9071 20.1759 49.485V52.8518H20.1633Z" fill="#6B8632"/>
<path d="M15.7032 52.8518H4.45947V45.0126C4.45947 41.9096 6.97203 39.3845 10.0876 39.3845C13.1906 39.3845 15.7158 41.897 15.7158 45.0126V52.8518H15.7032Z" fill="#B3DF54"/>
<path d="M10.0879 39.397C4.52261 39.397 0 43.9071 0 49.485V52.8518C0.0376884 47.3116 4.53517 42.8392 10.0879 42.8392C15.6281 42.8392 20.1256 47.3116 20.1759 52.8518V49.485C20.1633 43.9071 15.6533 39.397 10.0879 39.397Z" fill="#EBFDC4"/>
<path d="M10.0877 41.3691C13.4458 41.3691 16.1681 38.6468 16.1681 35.2887C16.1681 31.9306 13.4458 29.2083 10.0877 29.2083C6.72961 29.2083 4.00732 31.9306 4.00732 35.2887C4.00732 38.6468 6.72961 41.3691 10.0877 41.3691Z" fill="white"/>
<path d="M10.0882 30.6783C13.1912 30.6783 15.754 33.015 16.1184 36.0175C16.1435 35.7788 16.1686 35.5276 16.1686 35.2763C16.1686 31.9221 13.4425 29.1959 10.0882 29.1959C6.73394 29.1959 4.00781 31.9221 4.00781 35.2763C4.00781 35.5276 4.02037 35.7663 4.05806 36.0175C4.40982 33.015 6.97264 30.6783 10.0882 30.6783Z" fill="#E4E9F3"/>
<path d="M10.0883 38.4171C7.23659 38.4171 4.84965 36.4573 4.19639 33.8192C4.08332 34.2965 4.02051 34.7865 4.02051 35.289C4.02051 38.6433 6.74664 41.3694 10.1009 41.3694C13.4552 41.3694 16.1813 38.6433 16.1813 35.289C16.1813 34.7739 16.1185 34.284 16.0054 33.8192C15.327 36.4573 12.9275 38.4171 10.0883 38.4171Z" fill="#CBD0DC"/>
<path d="M60.5022 52.8521H40.3389V49.4852C40.3389 43.9199 44.8489 39.3973 50.4268 39.3973C55.9921 39.3973 60.5148 43.9073 60.5148 49.4852V52.8521H60.5022Z" fill="#6B8632"/>
<path d="M56.0425 52.852H44.7988V45.0128C44.7988 41.9098 47.3114 39.3847 50.427 39.3847C53.53 39.3847 56.0551 41.8973 56.0551 45.0128V52.852H56.0425Z" fill="#B3DF54"/>
<path d="M50.4146 39.3973C44.8493 39.3973 40.3267 43.9073 40.3267 49.4852V52.8521C40.3643 47.3119 44.8618 42.8395 50.4146 42.8395C55.9548 42.8395 60.4523 47.3119 60.5025 52.8521V49.4852C60.5025 43.9073 55.9925 39.3973 50.4146 39.3973Z" fill="#EBFDC4"/>
<path d="M50.4149 41.3696C53.773 41.3696 56.4953 38.6473 56.4953 35.2892C56.4953 31.9311 53.773 29.2088 50.4149 29.2088C47.0568 29.2088 44.3345 31.9311 44.3345 35.2892C44.3345 38.6473 47.0568 41.3696 50.4149 41.3696Z" fill="white"/>
<path d="M50.4149 30.6786C53.5179 30.6786 56.0807 33.0153 56.445 36.0178C56.4702 35.7791 56.4953 35.5278 56.4953 35.2766C56.4953 31.9223 53.7691 29.1962 50.4149 29.1962C47.0606 29.1962 44.3345 31.9223 44.3345 35.2766C44.3345 35.5278 44.347 35.7665 44.3847 36.0178C44.749 33.0153 47.3119 30.6786 50.4149 30.6786Z" fill="#E4E9F3"/>
<path d="M50.415 38.4174C47.5632 38.4174 45.1763 36.4576 44.523 33.8194C44.41 34.2968 44.3472 34.7867 44.3472 35.2892C44.3472 38.6435 47.0733 41.3696 50.4276 41.3696C53.7818 41.3696 56.508 38.6435 56.508 35.2892C56.508 34.7742 56.4452 34.2842 56.3321 33.8194C55.6537 36.4576 53.2668 38.4174 50.415 38.4174Z" fill="#CBD0DC"/>
<path d="M38.2287 38.3542L32.8016 34.6733V29.2085C32.8016 27.8014 31.6584 26.6708 30.2639 26.6708C28.8694 26.6708 27.7262 27.814 27.7262 29.2085V34.6482L22.0604 38.3291C20.8795 39.0954 20.5529 40.6658 21.3192 41.8467C21.8091 42.6004 22.6257 43.0024 23.4549 43.0024C23.9322 43.0024 24.4096 42.8642 24.8368 42.5879L30.2388 39.0703L35.3895 42.5627C35.8292 42.8642 36.3192 43.0024 36.8091 43.0024C37.6257 43.0024 38.4297 42.613 38.9197 41.8843C39.6986 40.716 39.3845 39.1331 38.2287 38.3542Z" fill="white"/>
<path d="M38.907 39.3341C38.417 40.0627 37.613 40.4522 36.7964 40.4522C36.3065 40.4522 35.804 40.314 35.3768 40.0125L30.2261 36.52L24.8241 40.0376C24.3969 40.314 23.9195 40.4522 23.4422 40.4522C22.613 40.4522 21.7964 40.0502 21.3065 39.2964C21.2814 39.2587 21.2562 39.221 21.2437 39.1833C20.7788 39.9874 20.7663 41.0175 21.3065 41.8466C21.7964 42.6004 22.613 43.0024 23.4422 43.0024C23.9195 43.0024 24.3969 42.8642 24.8241 42.5879L30.2261 39.0703L35.3768 42.5627C35.8165 42.8642 36.3065 43.0024 36.7964 43.0024C37.613 43.0024 38.417 42.613 38.907 41.8843C39.4723 41.0552 39.4723 39.9999 38.9949 39.1833C38.9698 39.2336 38.9447 39.2838 38.907 39.3341Z" fill="#CBD0DC"/>
</svg>
