<svg width="186" height="61" viewBox="0 0 186 61" fill="none" xmlns="http://www.w3.org/2000/svg">
<path d="M37.4199 0H148.42V19.2174C148.42 23.0414 146.945 26.7087 144.319 29.4127C141.694 32.1166 138.133 33.6356 134.42 33.6356H51.4199C47.7069 33.6356 44.1459 32.1166 41.5204 29.4127C38.8949 26.7087 37.4199 23.0414 37.4199 19.2174V0Z" fill="#F5F5F5"/>
<path d="M178.85 45.7368H7C3.13401 45.7368 0 48.9621 0 52.9408C0 56.9194 3.13401 60.1447 7 60.1447H178.85C182.716 60.1447 185.85 56.9194 185.85 52.9408C185.85 48.9621 182.716 45.7368 178.85 45.7368Z" fill="#F5F5F5"/>
</svg>
