<svg width="56" height="55" viewBox="0 0 56 55" fill="none" xmlns="http://www.w3.org/2000/svg">
<path d="M27.414 37.5861C27.0389 37.2111 26.5303 37.0005 26 37.0005C25.4697 37.0005 24.9611 37.2111 24.586 37.5861L17.167 45.0051C17.1114 45.0019 17.0557 45.0002 17 45.0001H7C6.20435 45.0001 5.44129 45.3161 4.87868 45.8787C4.31607 46.4414 4 47.2044 4 48.0001V55.0001H20V48.0001C20 47.9441 19.998 47.8881 19.995 47.8331L27.414 40.4141C27.7889 40.039 27.9996 39.5304 27.9996 39.0001C27.9996 38.4697 27.7889 37.9611 27.414 37.5861Z" fill="#CE84AD"/>
<path d="M8 45C8 46.0609 8.42143 47.0783 9.17157 47.8284C9.92172 48.5786 10.9391 49 12 49C13.0609 49 14.0783 48.5786 14.8284 47.8284C15.5786 47.0783 16 46.0609 16 45H8Z" fill="white"/>
<path d="M12 47C11.4696 47 10.9609 46.7893 10.5858 46.4142C10.2107 46.0391 10 45.5304 10 45V42H14V45C14 45.5304 13.7893 46.0391 13.4142 46.4142C13.0391 46.7893 12.5304 47 12 47Z" fill="#D2AA82"/>
<path d="M13 43H11C10.2044 43 9.44129 42.6839 8.87868 42.1213C8.31607 41.5587 8 40.7956 8 40V37C8 36.4696 8.21071 35.9609 8.58579 35.5858C8.96086 35.2107 9.46957 35 10 35H14C14.5304 35 15.0391 35.2107 15.4142 35.5858C15.7893 35.9609 16 36.4696 16 37V40C16 40.7956 15.6839 41.5587 15.1213 42.1213C14.5587 42.6839 13.7956 43 13 43Z" fill="#F0C8A0"/>
<path d="M14 35H10C9.46957 35 8.96086 35.2107 8.58579 35.5858C8.21071 35.9609 8 36.4696 8 37V35C8 34.4696 8.21071 33.9609 8.58579 33.5858C8.96086 33.2107 9.46957 33 10 33H14C14.5304 33 15.0391 33.2107 15.4142 33.5858C15.7893 33.9609 16 34.4696 16 35V37C16 36.4696 15.7893 35.9609 15.4142 35.5858C15.0391 35.2107 14.5304 35 14 35Z" fill="#47362C"/>
<path d="M49.0002 44.9999H39.0002C38.9442 44.9999 38.8882 45.0019 38.8332 45.0049L31.4142 37.5859C31.2297 37.3949 31.009 37.2425 30.765 37.1377C30.521 37.0329 30.2585 36.9777 29.993 36.9754C29.7274 36.9731 29.464 37.0237 29.2183 37.1243C28.9725 37.2248 28.7492 37.3733 28.5614 37.5611C28.3736 37.7489 28.2251 37.9722 28.1245 38.218C28.024 38.4638 27.9734 38.7272 27.9757 38.9927C27.978 39.2583 28.0331 39.5207 28.138 39.7647C28.2428 40.0087 28.3951 40.2294 28.5862 40.4139L36.0052 47.8329C36.002 47.8885 36.0003 47.9442 36.0002 47.9999V54.9999H52.0002V47.9999C52.0002 47.2043 51.6841 46.4412 51.1215 45.8786C50.5589 45.316 49.7958 44.9999 49.0002 44.9999Z" fill="#1B1B1C"/>
<path d="M40 45C40 46.0609 40.4214 47.0783 41.1716 47.8284C41.9217 48.5786 42.9391 49 44 49C45.0609 49 46.0783 48.5786 46.8284 47.8284C47.5786 47.0783 48 46.0609 48 45H40Z" fill="white"/>
<path d="M44 47C43.4696 47 42.9609 46.7893 42.5858 46.4142C42.2107 46.0391 42 45.5304 42 45V42H46V45C46 45.5304 45.7893 46.0391 45.4142 46.4142C45.0391 46.7893 44.5304 47 44 47Z" fill="#D2AA82"/>
<path d="M45 43H43C42.2044 43 41.4413 42.6839 40.8787 42.1213C40.3161 41.5587 40 40.7956 40 40V37C40 36.4696 40.2107 35.9609 40.5858 35.5858C40.9609 35.2107 41.4696 35 42 35H46C46.5304 35 47.0391 35.2107 47.4142 35.5858C47.7893 35.9609 48 36.4696 48 37V40C48 40.7956 47.6839 41.5587 47.1213 42.1213C46.5587 42.6839 45.7956 43 45 43Z" fill="#F0C8A0"/>
<path d="M46 35H42C41.4696 35 40.9609 35.2107 40.5858 35.5858C40.2107 35.9609 40 36.4696 40 37V35C40 34.4696 40.2107 33.9609 40.5858 33.5858C40.9609 33.2107 41.4696 33 42 33H46C46.5304 33 47.0391 33.2107 47.4142 33.5858C47.7893 33.9609 48 34.4696 48 35V37C48 36.4696 47.7893 35.9609 47.4142 35.5858C47.0391 35.2107 46.5304 35 46 35Z" fill="#DC9600"/>
<path d="M25.414 41H26.586C27.367 41 28 40.367 28 39.586V34.414C28 33.633 27.367 33 26.586 33H25.414C24.633 33 24 33.633 24 34.414V39.586C24 40.367 24.633 41 25.414 41Z" fill="#F0C8A0"/>
<path d="M29.414 41H30.586C31.367 41 32 40.367 32 39.586V34.414C32 33.633 31.367 33 30.586 33H29.414C28.633 33 28 33.633 28 34.414V39.586C28 40.367 28.633 41 29.414 41Z" fill="#D2AA82"/>
<path d="M16 23H8C3.589 23 0 19.411 0 15C0 10.589 3.589 7 8 7H16C20.411 7 24 10.589 24 15C24 19.411 20.411 23 16 23ZM8 11C5.794 11 4 12.794 4 15C4 17.206 5.794 19 8 19H16C18.206 19 20 17.206 20 15C20 12.794 18.206 11 16 11H8Z" fill="#D7B818"/>
<path d="M48 23H40C35.589 23 32 19.411 32 15C32 10.589 35.589 7 40 7H48C52.411 7 56 10.589 56 15C56 19.411 52.411 23 48 23ZM40 11C37.794 11 36 12.794 36 15C36 17.206 37.794 19 40 19H48C50.206 19 52 17.206 52 15C52 12.794 50.206 11 48 11H40Z" fill="#D7B818"/>
<path d="M24.0001 15C24.0002 14.6657 23.9795 14.3317 23.9381 14H19.8741C20.0589 14.7154 20.0418 15.468 19.8244 16.1741C19.6071 16.8803 19.1982 17.5124 18.6431 18H23.4161C23.7921 17.073 24.0001 16.06 24.0001 15ZM36.0001 15C36.0001 14.655 36.0441 14.32 36.1271 14H32.0631C31.8906 15.356 32.0701 16.7335 32.5841 18H37.3571C36.9306 17.6251 36.589 17.1637 36.355 16.6463C36.121 16.129 36 15.5678 36.0001 15Z" fill="#978110"/>
<path d="M38 17H18C17.4696 17 16.9609 16.7893 16.5858 16.4142C16.2107 16.0391 16 15.5304 16 15C16 14.4696 16.2107 13.9609 16.5858 13.5858C16.9609 13.2107 17.4696 13 18 13H38C38.5304 13 39.0391 13.2107 39.4142 13.5858C39.7893 13.9609 40 14.4696 40 15C40 15.5304 39.7893 16.0391 39.4142 16.4142C39.0391 16.7893 38.5304 17 38 17Z" fill="#CE84AD"/>
<path d="M28 4C27.7348 4 27.4804 3.89464 27.2929 3.70711C27.1054 3.51957 27 3.26522 27 3V1C27 0.734784 27.1054 0.48043 27.2929 0.292893C27.4804 0.105357 27.7348 0 28 0C28.2652 0 28.5196 0.105357 28.7071 0.292893C28.8946 0.48043 29 0.734784 29 1V3C29 3.26522 28.8946 3.51957 28.7071 3.70711C28.5196 3.89464 28.2652 4 28 4Z" fill="#B5F2B4"/>
<path d="M35.0002 5.00009C34.8023 5.00053 34.6086 4.94214 34.4439 4.83234C34.2792 4.72253 34.1508 4.56627 34.0751 4.38337C33.9993 4.20047 33.9796 3.99919 34.0184 3.80507C34.0573 3.61096 34.1529 3.43276 34.2932 3.29309L36.2932 1.29309C36.4807 1.10559 36.7351 1.00024 37.0002 1.00024C37.2654 1.00024 37.5197 1.10559 37.7072 1.29309C37.8947 1.4806 38.0001 1.73492 38.0001 2.00009C38.0001 2.26527 37.8947 2.51958 37.7072 2.70709L35.7072 4.70709C35.6145 4.80009 35.5043 4.87385 35.383 4.92413C35.2616 4.97441 35.1316 5.00023 35.0002 5.00009Z" fill="#B5F2B4"/>
<path d="M20.9998 5.00009C20.8685 5.00023 20.7384 4.97441 20.6171 4.92413C20.4958 4.87385 20.3856 4.80009 20.2928 4.70709L18.2928 2.70709C18.1053 2.51958 18 2.26527 18 2.00009C18 1.73492 18.1053 1.4806 18.2928 1.29309C18.4804 1.10559 18.7347 1.00024 18.9998 1.00024C19.265 1.00024 19.5193 1.10559 19.7069 1.29309L21.7069 3.29309C21.8471 3.43276 21.9428 3.61096 21.9816 3.80507C22.0205 3.99919 22.0008 4.20047 21.925 4.38337C21.8493 4.56627 21.7209 4.72253 21.5562 4.83234C21.3914 4.94214 21.1978 5.00053 20.9998 5.00009Z" fill="#B5F2B4"/>
<path d="M28 30C27.7348 30 27.4804 29.8946 27.2929 29.7071C27.1054 29.5196 27 29.2652 27 29V27C27 26.7348 27.1054 26.4804 27.2929 26.2929C27.4804 26.1054 27.7348 26 28 26C28.2652 26 28.5196 26.1054 28.7071 26.2929C28.8946 26.4804 29 26.7348 29 27V29C29 29.2652 28.8946 29.5196 28.7071 29.7071C28.5196 29.8946 28.2652 30 28 30Z" fill="#B5F2B4"/>
<path d="M36.9998 29.0001C36.8685 29.0002 36.7384 28.9744 36.6171 28.9241C36.4958 28.8738 36.3856 28.8001 36.2928 28.7071L34.2928 26.7071C34.2 26.6142 34.1264 26.504 34.0761 26.3827C34.0259 26.2614 34 26.1314 34 26.0001C34 25.8688 34.0259 25.7388 34.0761 25.6175C34.1264 25.4962 34.2 25.3859 34.2928 25.2931C34.3857 25.2002 34.4959 25.1266 34.6172 25.0764C34.7385 25.0261 34.8685 25.0002 34.9998 25.0002C35.1311 25.0002 35.2612 25.0261 35.3825 25.0764C35.5038 25.1266 35.614 25.2002 35.7068 25.2931L37.7068 27.2931C37.8471 27.4328 37.9428 27.611 37.9816 27.8051C38.0205 27.9992 38.0008 28.2005 37.925 28.3834C37.8493 28.5663 37.7209 28.7225 37.5562 28.8323C37.3914 28.9421 37.1978 29.0005 36.9998 29.0001Z" fill="#B5F2B4"/>
<path d="M19.0002 29.0001C18.8023 29.0005 18.6086 28.9421 18.4439 28.8323C18.2792 28.7225 18.1508 28.5663 18.0751 28.3834C17.9993 28.2005 17.9796 27.9992 18.0184 27.8051C18.0573 27.611 18.1529 27.4328 18.2932 27.2931L20.2932 25.2931C20.4807 25.1056 20.7351 25.0002 21.0002 25.0002C21.2654 25.0002 21.5197 25.1056 21.7072 25.2931C21.8947 25.4806 22.0001 25.7349 22.0001 26.0001C22.0001 26.2653 21.8947 26.5196 21.7072 26.7071L19.7072 28.7071C19.6145 28.8001 19.5043 28.8738 19.383 28.9241C19.2616 28.9744 19.1316 29.0002 19.0002 29.0001Z" fill="#B5F2B4"/>
</svg>
