<svg width="655" height="350" viewBox="0 0 655 350" fill="none" xmlns="http://www.w3.org/2000/svg">
<path d="M230 0C221.513 0 213.374 3.37142 207.373 9.37258C201.371 15.3737 198 23.5131 198 32V317.29C198.013 325.768 201.391 333.895 207.39 339.885C213.39 345.875 221.522 349.24 230 349.24H305.54L654.73 0H230ZM298.24 331.6H230C226.206 331.595 222.57 330.085 219.887 327.403C217.205 324.72 215.695 321.084 215.69 317.29V32C215.686 30.1173 216.053 28.2523 216.77 26.5116C217.487 24.7708 218.541 23.1884 219.869 21.8548C221.198 20.5213 222.777 19.4626 224.515 18.7394C226.254 18.0162 228.117 17.6426 230 17.64H612.2L298.24 331.6Z" fill="#D9D9D9"/>
<path d="M424.73 349.24C433.217 349.24 441.356 345.869 447.357 339.868C453.359 333.866 456.73 325.727 456.73 317.24L456.73 31.9502C456.717 23.472 453.339 15.3455 447.34 9.35513C441.34 3.36478 433.208 0.000233791 424.73 0.000244141H349.19L-3.05176e-05 349.24L424.73 349.24ZM356.49 17.6402H424.73C428.524 17.6455 432.16 19.1549 434.843 21.8374C437.525 24.5199 439.035 28.1566 439.04 31.9502L439.04 317.24C439.044 319.123 438.677 320.988 437.96 322.729C437.243 324.469 436.189 326.052 434.861 327.385C433.532 328.719 431.953 329.778 430.215 330.501C428.476 331.224 426.613 331.598 424.73 331.6L42.53 331.6L356.49 17.6402Z" fill="#D9D9D9"/>
</svg>
