<svg width="1151" height="1151" viewBox="0 0 1151 1151" fill="none" xmlns="http://www.w3.org/2000/svg">
<path d="M98.0203 54.7293C98.2297 52.8916 98.3336 51.0435 98.3317 49.194C98.3362 42.7383 97.069 36.3449 94.6024 30.3789C92.1358 24.4129 88.518 18.991 83.9558 14.4229C79.3935 9.85479 73.9761 6.23001 68.0127 3.75532C62.0494 1.28063 55.657 0.00454332 49.2004 1.84661e-06C46.5001 0.00694606 43.8045 0.226737 41.1388 0.657315C30.6212 2.40284 20.957 7.52166 13.6046 15.2413C6.25217 22.9609 1.61067 32.8624 0.380594 43.4513C0.131028 45.4018 0.00391404 47.366 0 49.3324C0.00454207 55.7882 1.28075 62.1797 3.75576 68.1423C6.23078 74.1049 9.85612 79.5216 14.4248 84.0832C18.9935 88.6449 24.416 92.2621 30.3828 94.7284C36.3497 97.1947 42.7439 98.4618 49.2004 98.4572C51.1433 98.4637 53.0847 98.3481 55.0131 98.1113L1052.72 1095.59C1052.47 1097.48 1052.35 1099.39 1052.34 1101.3C1052.34 1107.75 1053.61 1114.15 1056.08 1120.12C1058.54 1126.09 1062.16 1131.51 1066.73 1136.08C1071.3 1140.65 1076.72 1144.27 1082.69 1146.74C1088.65 1149.22 1095.05 1150.49 1101.51 1150.49C1103.41 1150.48 1105.3 1150.35 1107.18 1150.11C1117.75 1148.85 1127.62 1144.2 1135.31 1136.85C1143.01 1129.5 1148.11 1119.85 1149.84 1109.36C1149.84 1108.56 1150.12 1107.73 1150.19 1106.87C1150.97 1099.99 1150.29 1093.02 1148.19 1086.42C1146.09 1079.83 1142.62 1073.75 1138.01 1068.58C1133.39 1063.42 1127.74 1059.29 1121.42 1056.46C1115.1 1053.63 1108.26 1052.17 1101.34 1052.17C1099.49 1052.17 1097.64 1052.27 1095.8 1052.48L98.0203 54.7293ZM49.2004 20.3419C54.9008 20.3487 60.471 22.0454 65.2069 25.2176C69.9427 28.3899 73.6314 32.8951 75.8065 38.1634C77.9816 43.4318 78.5454 49.2267 77.4266 54.8154C76.3078 60.4041 73.5567 65.5356 69.5211 69.561C65.4855 73.5864 60.3468 76.3248 54.7546 77.43C49.1625 78.5352 43.3682 77.9576 38.1044 75.7701C32.8406 73.5827 28.3438 69.8837 25.1825 65.1409C22.0213 60.3981 20.3376 54.8245 20.3445 49.1249C20.349 45.3405 21.099 41.594 22.5516 38.0994C24.0042 34.6049 26.131 31.4306 28.8105 28.7578C31.49 26.0851 34.6698 23.9662 38.1683 22.5222C41.6668 21.0782 45.4156 20.3373 49.2004 20.3419ZM1101.54 1130.15C1095.84 1130.15 1090.27 1128.47 1085.52 1125.31C1080.78 1122.15 1077.08 1117.65 1074.89 1112.39C1072.71 1107.13 1072.13 1101.33 1073.23 1095.74C1074.34 1090.15 1077.08 1085.01 1081.1 1080.98C1085.13 1076.94 1090.26 1074.19 1095.85 1073.07C1101.44 1071.95 1107.24 1072.52 1112.51 1074.69C1117.77 1076.87 1122.28 1080.56 1125.45 1085.29C1128.63 1090.03 1130.32 1095.6 1130.33 1101.3C1130.32 1108.93 1127.29 1116.26 1121.89 1121.66C1116.5 1127.07 1109.18 1130.12 1101.54 1130.15Z" fill="#F5F5F5"/>
</svg>
