<svg width="98" height="84" viewBox="0 0 98 84" fill="none" xmlns="http://www.w3.org/2000/svg">
<path d="M94.8524 8.56581C94.9551 8.57751 95.0583 8.58332 95.1617 8.58321C95.5224 8.58346 95.8796 8.51267 96.2129 8.37487C96.5463 8.23707 96.8492 8.03496 97.1044 7.78009C97.3597 7.52522 97.5622 7.22257 97.7005 6.88942C97.8387 6.55627 97.91 6.19916 97.9103 5.83846C97.9099 5.6876 97.8976 5.53701 97.8736 5.38809C97.776 4.80052 97.49 4.26062 97.0587 3.84987C96.6274 3.43913 96.0742 3.17982 95.4825 3.11111C95.3735 3.09716 95.2638 3.09006 95.1539 3.08984C94.7932 3.0901 94.4361 3.16139 94.103 3.29966C93.7698 3.43793 93.4672 3.64046 93.2123 3.89569C92.9574 4.15093 92.7553 4.45386 92.6175 4.7872C92.4797 5.12054 92.4089 5.47776 92.4092 5.83846C92.4088 5.947 92.4153 6.05546 92.4285 6.16319L36.6965 61.9009C36.5907 61.887 36.4842 61.8799 36.3775 61.8796C36.0167 61.8794 35.6593 61.9502 35.3258 62.0882C34.9924 62.2261 34.6893 62.4284 34.4341 62.6834C34.1788 62.9385 33.9763 63.2414 33.8382 63.5748C33.7 63.9081 33.6289 64.2655 33.6289 64.6263C33.6294 64.7323 33.6365 64.8382 33.6502 64.9433C33.7205 65.5336 33.9805 66.085 34.3911 66.5148C34.8017 66.9446 35.3407 67.2295 35.9272 67.3266C35.9716 67.3266 36.018 67.3421 36.0663 67.3459C36.4507 67.3895 36.8399 67.3514 37.2085 67.2341C37.5771 67.1168 37.9167 66.923 38.2052 66.6653C38.4937 66.4077 38.7245 66.092 38.8826 65.7389C39.0406 65.3859 39.1223 65.0035 39.1223 64.6167C39.1225 64.5133 39.1167 64.4101 39.1049 64.3074L94.8524 8.56581ZM96.7737 5.83846C96.7733 6.15691 96.6785 6.4681 96.5013 6.73267C96.3241 6.99724 96.0723 7.20331 95.778 7.32482C95.4836 7.44634 95.1598 7.47783 94.8476 7.41533C94.5353 7.35283 94.2486 7.19914 94.0237 6.97369C93.7988 6.74824 93.6458 6.46116 93.584 6.14875C93.5223 5.83634 93.5546 5.51264 93.6768 5.21857C93.799 4.92451 94.0057 4.67329 94.2707 4.49668C94.5357 4.32008 94.8471 4.22602 95.1655 4.2264C95.377 4.22666 95.5863 4.26855 95.7816 4.3497C95.9768 4.43085 96.1542 4.54967 96.3035 4.69936C96.4528 4.84906 96.5712 5.0267 96.6519 5.22214C96.7326 5.41759 96.774 5.62701 96.7737 5.83846ZM34.7655 64.6283C34.7651 64.3098 34.8591 63.9984 35.0357 63.7334C35.2124 63.4684 35.4636 63.2617 35.7576 63.1395C36.0517 63.0173 36.3754 62.985 36.6878 63.0468C37.0002 63.1085 37.2873 63.2615 37.5128 63.4864C37.7382 63.7113 37.8919 63.9981 37.9544 64.3103C38.0169 64.6226 37.9854 64.9463 37.8639 65.2407C37.7424 65.5351 37.5363 65.7868 37.2717 65.964C37.0072 66.1413 36.696 66.2361 36.3775 66.2364C35.9508 66.2359 35.5417 66.0665 35.2396 65.7651C34.9375 65.4637 34.767 65.055 34.7655 64.6283Z" fill="#CE84AD"/>
<path d="M95.4736 15.9915C95.3731 15.9915 95.2707 15.9761 95.1663 15.9761C94.8059 15.9761 94.4489 16.0471 94.1159 16.185C93.7829 16.3229 93.4804 16.5251 93.2255 16.78C92.9706 17.0349 92.7684 17.3374 92.6305 17.6705C92.4926 18.0035 92.4216 18.3604 92.4216 18.7208C92.4216 18.8271 92.4216 18.9276 92.437 19.0282L49.5667 61.9003C49.4662 61.9003 49.3734 61.8849 49.2594 61.8849C48.5313 61.8854 47.8331 62.175 47.3185 62.69C46.8038 63.2051 46.5146 63.9034 46.5146 64.6316C46.5146 64.7359 46.5146 64.8384 46.5301 64.937C46.5995 65.5519 46.8742 66.1254 47.3098 66.5649C47.7454 67.0044 48.3165 67.2841 48.9308 67.3589C49.0392 67.3722 49.1483 67.3787 49.2575 67.3782C49.6183 67.3785 49.9757 67.3076 50.3092 67.1697C50.6426 67.0318 50.9457 66.8295 51.2009 66.5744C51.4562 66.3194 51.6587 66.0165 51.7968 65.6831C51.935 65.3497 52.0061 64.9924 52.0061 64.6316C52.0065 64.5217 52 64.412 51.9868 64.303L94.8396 21.4578C94.948 21.4711 95.0571 21.4776 95.1663 21.4772C95.5273 21.4774 95.8849 21.4065 96.2185 21.2685C96.5521 21.1304 96.8552 20.928 97.1104 20.6727C97.3657 20.4174 97.5682 20.1143 97.7062 19.7807C97.8443 19.4471 97.9152 19.0896 97.9149 18.7286C97.9153 18.6194 97.9089 18.5103 97.8956 18.4019C97.8228 17.7859 97.544 17.2126 97.1043 16.775C96.6646 16.3375 96.09 16.0614 95.4736 15.9915ZM47.6512 64.6335C47.6508 64.3149 47.745 64.0033 47.9218 63.7382C48.0985 63.4731 48.35 63.2665 48.6443 63.1444C48.9386 63.0223 49.2625 62.9902 49.575 63.0523C49.8875 63.1143 50.1746 63.2677 50.3999 63.493C50.6252 63.7183 50.7785 64.0054 50.8406 64.3179C50.9027 64.6304 50.8706 64.9543 50.7485 65.2486C50.6264 65.5429 50.4197 65.7944 50.1547 65.9711C49.8896 66.1479 49.578 66.2421 49.2594 66.2417C48.8332 66.2407 48.4247 66.0709 48.1234 65.7695C47.822 65.4682 47.6522 65.0597 47.6512 64.6335ZM96.7784 18.7208C96.7788 19.0394 96.6846 19.351 96.5078 19.6161C96.331 19.8812 96.0796 20.0878 95.7853 20.2099C95.491 20.332 95.1671 20.3641 94.8546 20.302C94.5421 20.24 94.255 20.0866 94.0297 19.8613C93.8044 19.636 93.651 19.3489 93.589 19.0364C93.5269 18.7239 93.5589 18.4 93.6811 18.1057C93.8032 17.8114 94.0098 17.56 94.2749 17.3832C94.54 17.2064 94.8516 17.1122 95.1702 17.1126C95.5964 17.1137 96.0048 17.2834 96.3062 17.5848C96.6076 17.8862 96.7773 18.2946 96.7784 18.7208Z" fill="#CE84AD"/>
<path d="M95.4495 28.8656C95.3537 28.8563 95.2576 28.8518 95.1615 28.8521C94.4335 28.8521 93.7354 29.1412 93.2206 29.656C92.7059 30.1707 92.4167 30.8689 92.4167 31.5968C92.4164 31.693 92.4209 31.7891 92.4302 31.8848L62.4293 61.8934C62.047 61.8555 61.6611 61.8978 61.2961 62.0177C60.9312 62.1377 60.5954 62.3326 60.3102 62.5899C60.025 62.8473 59.7967 63.1614 59.6401 63.5121C59.4834 63.8628 59.4018 64.2425 59.4004 64.6266C59.4001 64.7215 59.4046 64.8163 59.4139 64.9107C59.4788 65.5259 59.7491 66.1012 60.1811 66.5438C60.6132 66.9864 61.1819 67.2705 61.7953 67.3501C61.9113 67.365 62.0282 67.3721 62.1452 67.3713C62.506 67.3716 62.8634 67.3007 63.1969 67.1628C63.5303 67.0249 63.8333 66.8226 64.0886 66.5675C64.3439 66.3125 64.5464 66.0096 64.6845 65.6762C64.8227 65.3428 64.8938 64.9855 64.8938 64.6247C64.8939 64.507 64.8862 64.3895 64.8706 64.2729L94.8213 34.3126C94.9372 34.3281 95.0541 34.3359 95.1711 34.3358C95.5321 34.336 95.8897 34.2651 96.2233 34.1271C96.5569 33.989 96.86 33.7866 97.1153 33.5313C97.3705 33.276 97.573 32.9729 97.711 32.6393C97.8491 32.3057 97.92 31.9482 97.9197 31.5871C97.9208 31.4701 97.9131 31.3532 97.8965 31.2373C97.8152 30.6242 97.5294 30.0565 97.0853 29.6261C96.6412 29.1956 96.0648 28.9277 95.4495 28.8656ZM60.5273 64.6247C60.5269 64.306 60.6211 63.9945 60.7978 63.7294C60.9746 63.4643 61.2261 63.2576 61.5204 63.1355C61.8147 63.0134 62.1386 62.9814 62.4511 63.0434C62.7636 63.1055 63.0507 63.2589 63.276 63.4842C63.5012 63.7095 63.6546 63.9966 63.7167 64.3091C63.7788 64.6216 63.7467 64.9455 63.6246 65.2398C63.5025 65.5341 63.2958 65.7855 63.0308 65.9623C62.7657 66.1391 62.4541 66.2332 62.1355 66.2329C61.71 66.2318 61.3021 66.0626 61.0008 65.7621C60.6995 65.4615 60.5293 65.0541 60.5273 64.6285V64.6247ZM93.5494 31.5968C93.5498 31.2785 93.6445 30.9675 93.8216 30.703C93.9986 30.4385 94.2501 30.2324 94.5442 30.1108C94.8384 29.9892 95.162 29.9575 95.4741 30.0197C95.7863 30.0818 96.073 30.2352 96.298 30.4602C96.5231 30.6853 96.6764 30.972 96.7386 31.2842C96.8008 31.5963 96.7691 31.9199 96.6475 32.214C96.5258 32.5082 96.3198 32.7596 96.0553 32.9367C95.7908 33.1138 95.4797 33.2085 95.1615 33.2089C94.7339 33.2089 94.3239 33.039 94.0216 32.7367C93.7192 32.4344 93.5494 32.0244 93.5494 31.5968Z" fill="#CE84AD"/>
<path d="M95.4344 41.7494C95.3457 41.7401 95.2567 41.7355 95.1676 41.7359C94.4395 41.7364 93.7413 42.026 93.2267 42.541C92.712 43.0561 92.4229 43.7544 92.4229 44.4825C92.4225 44.571 92.427 44.6594 92.4364 44.7473L75.2874 61.8982C75.2008 61.8888 75.1137 61.8843 75.0265 61.8846C74.298 61.8846 73.5994 62.174 73.0843 62.6891C72.5692 63.2042 72.2798 63.9029 72.2798 64.6313C72.2795 64.7191 72.2841 64.8069 72.2933 64.8942C72.3528 65.5096 72.6182 66.0868 73.0465 66.5327C73.4748 66.9785 74.041 67.2668 74.6534 67.351C74.7751 67.3681 74.8978 67.3765 75.0207 67.3761C75.7492 67.3761 76.4478 67.0867 76.9629 66.5716C77.478 66.0565 77.7674 65.3579 77.7674 64.6294C77.7668 64.5066 77.7584 64.3839 77.7423 64.2621L94.8004 47.206C94.9215 47.2222 95.0435 47.2306 95.1657 47.2312C95.5265 47.2314 95.8839 47.1606 96.2174 47.0226C96.5508 46.8847 96.8539 46.6824 97.1091 46.4274C97.3644 46.1723 97.5669 45.8694 97.705 45.536C97.8432 45.2027 97.9143 44.8453 97.9143 44.4845C97.9138 44.3616 97.9054 44.239 97.8892 44.1172C97.8071 43.5035 97.5198 42.9356 97.0742 42.5057C96.6285 42.0759 96.0506 41.8093 95.4344 41.7494ZM73.4125 64.6294C73.4121 64.3109 73.5062 63.9994 73.6829 63.7343C73.8596 63.4693 74.1109 63.2626 74.4051 63.1405C74.6993 63.0183 75.0231 62.9861 75.3356 63.048C75.648 63.1099 75.9351 63.2631 76.1605 63.4883C76.3858 63.7134 76.5394 64.0002 76.6017 64.3126C76.664 64.625 76.6322 64.9489 76.5104 65.2432C76.3886 65.5375 76.1822 65.7891 75.9174 65.9661C75.6525 66.1431 75.3412 66.2376 75.0226 66.2376C74.5961 66.2371 74.1871 66.0675 73.8853 65.7661C73.5835 65.4647 73.4135 65.0559 73.4125 64.6294ZM93.5555 44.4787C93.5555 44.1603 93.6499 43.8491 93.8268 43.5843C94.0036 43.3196 94.255 43.1132 94.5491 42.9913C94.8432 42.8694 95.1668 42.8374 95.4791 42.8993C95.7914 42.9613 96.0783 43.1145 96.3035 43.3395C96.5288 43.5644 96.6823 43.8512 96.7446 44.1634C96.807 44.4756 96.7754 44.7993 96.6538 45.0935C96.5322 45.3877 96.3262 45.6394 96.0616 45.8165C95.7971 45.9937 95.486 46.0884 95.1676 46.0888C94.7404 46.0888 94.3307 45.9192 94.0284 45.6173C93.7261 45.3154 93.5561 44.9059 93.5555 44.4787Z" fill="#CE84AD"/>
<path d="M95.4074 54.6224C95.3263 54.6224 95.2451 54.6108 95.162 54.6108C94.4338 54.6114 93.7357 54.901 93.221 55.416C92.7063 55.9311 92.4172 56.6294 92.4172 57.3575C92.4172 57.4387 92.4172 57.5218 92.4288 57.603L88.1377 61.8921C88.0565 61.8844 87.9753 61.8806 87.8942 61.8806C87.166 61.8811 86.4679 62.1707 85.9532 62.6857C85.4385 63.2008 85.1494 63.8991 85.1494 64.6272C85.1494 64.7084 85.1494 64.7877 85.1591 64.8688C85.2146 65.4852 85.4765 66.0648 85.9023 66.5138C86.3282 66.9628 86.8931 67.255 87.5057 67.343C87.6337 67.3616 87.7629 67.3707 87.8922 67.37C88.2536 67.3716 88.6117 67.3018 88.946 67.1647C89.2803 67.0276 89.5843 66.8258 89.8406 66.571C90.0968 66.3162 90.3002 66.0134 90.4392 65.6798C90.5782 65.3463 90.65 64.9886 90.6505 64.6272C90.6504 64.4979 90.6413 64.3687 90.6235 64.2406L94.7792 60.081C94.9073 60.099 95.0365 60.108 95.1658 60.1081C95.5269 60.1083 95.8844 60.0374 96.218 59.8994C96.5516 59.7613 96.8547 59.5589 97.11 59.3036C97.3653 59.0483 97.5677 58.7452 97.7057 58.4116C97.8438 58.078 97.9147 57.7205 97.9145 57.3595C97.9141 57.2301 97.9051 57.101 97.8874 56.9729C97.7999 56.3587 97.5073 55.7922 97.057 55.3655C96.6068 54.9388 96.0254 54.6769 95.4074 54.6224ZM86.286 64.6292C86.2852 64.3101 86.3792 63.998 86.5559 63.7323C86.7327 63.4667 86.9843 63.2594 87.2789 63.1369C87.5735 63.0143 87.8979 62.982 88.2109 63.0439C88.5239 63.1058 88.8115 63.2592 89.0372 63.4847C89.263 63.7102 89.4168 63.9976 89.4791 64.3106C89.5414 64.6235 89.5094 64.9479 89.3872 65.2427C89.265 65.5374 89.0581 65.7893 88.7926 65.9663C88.5272 66.1434 88.2152 66.2377 87.8961 66.2374C87.4697 66.2363 87.0611 66.0666 86.7594 65.7653C86.4577 65.464 86.2875 65.0555 86.286 64.6292ZM93.5499 57.3575C93.5503 57.0392 93.645 56.7282 93.8221 56.4637C93.9991 56.1992 94.2506 55.9931 94.5448 55.8715C94.8389 55.7499 95.1625 55.7182 95.4746 55.7804C95.7868 55.8425 96.0735 55.9959 96.2986 56.2209C96.5236 56.446 96.6769 56.7327 96.7391 57.0449C96.8013 57.357 96.7696 57.6806 96.648 57.9747C96.5263 58.2689 96.3203 58.5203 96.0558 58.6974C95.7913 58.8745 95.4803 58.9692 95.162 58.9696C94.7346 58.9691 94.3248 58.7991 94.0226 58.4968C93.7204 58.1946 93.5504 57.7849 93.5499 57.3575Z" fill="#CE84AD"/>
<path d="M37.019 72.0483H58.4745V75.6552C58.4745 76.3729 58.1894 77.0612 57.6819 77.5687C57.1745 78.0762 56.4861 78.3613 55.7684 78.3613H39.7251C39.0074 78.3613 38.3191 78.0762 37.8116 77.5687C37.3041 77.0612 37.019 76.3729 37.019 75.6552V72.0483Z" fill="#F5F5F5"/>
<path d="M64.3575 80.6313H31.1402C30.3929 80.6313 29.7871 81.2367 29.7871 81.9834C29.7871 82.7302 30.3929 83.3355 31.1402 83.3355H64.3575C65.1048 83.3355 65.7105 82.7302 65.7105 81.9834C65.7105 81.2367 65.1048 80.6313 64.3575 80.6313Z" fill="#F5F5F5"/>
<path d="M6.18536 0C4.5449 0 2.97163 0.651669 1.81165 1.81165C0.65167 2.97162 0 4.54489 0 6.18535L0 61.3296C0.0025606 62.9684 0.655361 64.5392 1.81506 65.6971C2.97477 66.855 4.54657 67.5053 6.18536 67.5053H20.7867L88.2825 0H6.18536ZM19.3756 64.0957H6.18536C5.45208 64.0946 4.74913 63.8029 4.23062 63.2844C3.71211 62.7659 3.42037 62.0629 3.41934 61.3296V6.18535C3.41858 5.82144 3.48954 5.46095 3.62815 5.12447C3.76677 4.788 3.97033 4.48214 4.2272 4.22437C4.48408 3.9666 4.78923 3.76197 5.12522 3.62218C5.46121 3.48239 5.82145 3.41018 6.18536 3.40967H80.0617L19.3756 64.0957Z" fill="#F5F5F5"/>
</svg>
