<svg width="84" height="84" viewBox="0 0 84 84" fill="none" xmlns="http://www.w3.org/2000/svg">
<path d="M50.1982 4.27932C49.8011 4.41606 49.3844 4.49607 48.9778 4.63606C45.417 5.86498 42.4897 8.45752 40.8396 11.8438C39.1894 15.2302 38.9514 19.1332 40.1778 22.6949C40.3146 23.0921 40.4546 23.4986 40.648 23.8762L26.8819 52.0849C26.4717 52.1838 26.0681 52.3016 25.671 52.4384C22.1101 53.6673 19.1829 56.2598 17.5327 59.6462C15.8826 63.0325 15.6445 66.9355 16.8709 70.4972C17.0077 70.8944 17.1411 71.282 17.3252 71.6629C18.6348 74.5843 20.892 76.9784 23.7315 78.4575C26.5709 79.9366 29.8264 80.4143 32.971 79.8131C33.6286 79.6888 34.276 79.5154 34.9077 79.2943C36.6778 78.6932 38.312 77.7486 39.7164 76.5148C41.1209 75.281 42.2682 73.7822 43.0924 72.1042C43.9167 70.4263 44.4017 68.6022 44.5197 66.7365C44.6378 64.8707 44.3865 63 43.7804 61.2316C43.5618 60.5992 43.3 59.9826 42.9969 59.3861L56.3193 32.0389C56.9761 31.911 57.6232 31.7377 58.2559 31.5201C60.0223 30.9133 61.6518 29.9641 63.0511 28.727C64.4504 27.4899 65.5922 25.989 66.4109 24.3103C67.2297 22.6315 67.7095 20.8078 67.8229 18.9435C67.9362 17.0792 67.6809 15.2108 67.0716 13.4453C66.8523 12.8132 66.5905 12.1966 66.2881 11.5998C64.8258 8.74293 62.4401 6.46475 59.5188 5.13568C56.5976 3.8066 53.3127 3.50479 50.1982 4.27932ZM22.4338 68.5924C21.8927 67.0328 21.8265 65.3478 22.2436 63.7506C22.6608 62.1534 23.5426 60.7159 24.7773 59.6202C26.012 58.5246 27.5441 57.8199 29.1796 57.5956C30.8151 57.3713 32.4803 57.6373 33.9645 58.3601C35.4486 59.0828 36.6849 60.2298 37.5167 61.6557C38.3485 63.0815 38.7385 64.7222 38.6372 66.3699C38.5359 68.0175 37.948 69.5981 36.9478 70.9114C35.9476 72.2246 34.5802 73.2115 33.0187 73.7471C30.9313 74.4603 28.6464 74.3185 26.6632 73.3527C24.68 72.3869 23.1595 70.6755 22.4338 68.5924ZM45.7185 20.7871C45.1843 19.2295 45.1237 17.5485 45.5444 15.9565C45.9651 14.3645 46.8481 12.9328 48.0821 11.8425C49.316 10.7521 50.8454 10.0519 52.4771 9.83033C54.1088 9.60877 55.7696 9.87579 57.2496 10.5976C58.7296 11.3195 59.9625 12.4638 60.7925 13.886C61.6224 15.3082 62.0123 16.9445 61.9127 18.5881C61.8132 20.2318 61.2288 21.8091 60.2332 23.1207C59.2377 24.4324 57.8757 25.4195 56.3194 25.9575C54.2279 26.6749 51.9373 26.5334 49.95 25.5641C47.9626 24.5948 46.4409 22.8769 45.7185 20.7871Z" fill="white"/>
<path d="M4.27932 33.7444C4.41606 34.1416 4.49607 34.5582 4.63606 34.9648C5.86498 38.5257 8.45752 41.4529 11.8438 43.1031C15.2302 44.7532 19.1332 44.9912 22.6949 43.7648C23.0921 43.6281 23.4986 43.4881 23.8762 43.2946L52.0849 57.0608C52.1838 57.4709 52.3016 57.8746 52.4384 58.2717C53.6673 61.8326 56.2598 64.7598 59.6462 66.4099C63.0325 68.0601 66.9355 68.2981 70.4972 67.0717C70.8944 66.935 71.282 66.8015 71.6629 66.6175C74.5843 65.3078 76.9784 63.0506 78.4575 60.2112C79.9366 57.3717 80.4143 54.1162 79.8131 50.9716C79.6888 50.314 79.5154 49.6666 79.2943 49.035C78.6932 47.2648 77.7486 45.6307 76.5148 44.2262C75.281 42.8217 73.7822 41.6744 72.1042 40.8502C70.4263 40.026 68.6022 39.5409 66.7365 39.4229C64.8707 39.3048 63 39.5561 61.2316 40.1622C60.5992 40.3808 59.9826 40.6426 59.3861 40.9458L32.0389 27.6233C31.911 26.9666 31.7377 26.3195 31.5201 25.6867C30.9133 23.9203 29.9641 22.2908 28.727 20.8915C27.4899 19.4922 25.989 18.3505 24.3103 17.5317C22.6315 16.7129 20.8078 16.2331 18.9435 16.1198C17.0792 16.0064 15.2108 16.2617 13.4453 16.871C12.8132 17.0903 12.1966 17.3521 11.5998 17.6545C8.74293 19.1168 6.46475 21.5026 5.13568 24.4238C3.8066 27.345 3.50479 30.6299 4.27932 33.7444ZM68.5924 61.5088C67.0328 62.05 65.3478 62.1162 63.7506 61.699C62.1534 61.2818 60.7159 60.4 59.6202 59.1653C58.5246 57.9306 57.8199 56.3985 57.5956 54.763C57.3713 53.1276 57.6373 51.4623 58.3601 49.9782C59.0828 48.494 60.2298 47.2578 61.6557 46.4259C63.0815 45.5941 64.7222 45.2041 66.3699 45.3054C68.0175 45.4067 69.5981 45.9946 70.9114 46.9948C72.2246 47.995 73.2115 49.3624 73.7471 50.9239C74.4603 53.0113 74.3185 55.2962 73.3527 57.2794C72.3869 59.2627 70.6755 60.7831 68.5924 61.5088ZM20.7871 38.2241C19.2295 38.7583 17.5485 38.8189 15.9565 38.3982C14.3645 37.9776 12.9328 37.0945 11.8425 35.8605C10.7521 34.6266 10.0519 33.0972 9.83033 31.4655C9.60877 29.8338 9.87579 28.173 10.5976 26.693C11.3195 25.213 12.4638 23.9801 13.886 23.1502C15.3082 22.3202 16.9445 21.9303 18.5881 22.0299C20.2318 22.1294 21.8091 22.7139 23.1207 23.7094C24.4324 24.7049 25.4195 26.0669 25.9575 27.6232C26.6749 29.7147 26.5334 32.0053 25.5641 33.9927C24.5948 35.98 22.8769 37.5017 20.7871 38.2241Z" fill="white"/>
</svg>
