<svg width="67" height="50" viewBox="0 0 67 50" fill="none" xmlns="http://www.w3.org/2000/svg">
<path fill-rule="evenodd" clip-rule="evenodd" d="M66.0013 38.5927C66.0013 38.5927 64.5036 43.7663 62.5035 45.8333C59.9691 48.5474 56.9322 49.1232 55.6279 49.2818C55.2005 49.3143 54.759 49.3418 54.3174 49.3693L54.3154 49.3509C53.7333 49.3977 53.1353 49.2228 52.6915 48.7772C51.8827 47.9715 51.8827 46.6603 52.6915 45.8547C53.0578 45.4875 53.5329 45.3125 54.0112 45.2779L54.0091 45.2544C54.0793 45.2493 54.1535 45.2453 54.2217 45.2402C55.3012 45.109 57.6534 45.0978 59.7544 42.8549C61.4108 41.148 61.9479 37.2702 61.9479 37.2702C61.9479 37.2702 62.4993 32.718 62.4993 28.1659V21.8116C62.4993 17.2595 61.9479 12.7043 61.9479 12.7043C61.9479 12.7043 61.4108 8.82708 59.7544 7.11966C57.6534 4.87917 55.3012 4.86745 54.2217 4.73672C46.4956 4.16706 33.3314 4.16914 33.3314 4.16914C33.3314 4.16914 20.1691 4.16706 12.443 4.73672C11.3634 4.86745 9.01133 4.87917 6.91133 7.11966C5.25703 8.82708 4.71771 12.7043 4.71771 12.7043C4.71771 12.7043 4.16628 17.2595 4.16628 21.8116V28.1659C4.16628 32.718 4.71771 37.2702 4.71771 37.2702C4.71771 37.2702 5.25703 41.1479 6.91133 42.8549C9.0112 45.0979 11.7704 45.0277 12.9995 45.2616C17.4171 45.693 33.3312 45.8333 33.3312 45.8333C34.4829 45.8333 35.4148 46.7672 35.4148 47.9167C35.4148 49.0682 34.4829 50 33.3312 50C33.2966 50 33.2632 49.9939 33.2285 49.9919C31.913 49.9777 16.8076 49.8089 11.7073 49.3073C10.224 49.0215 6.69857 48.5474 4.1612 45.8333C2.16094 43.7663 0.666406 38.5927 0.666406 38.5927C0.666406 38.5927 0 34.1238 0 28.6115V21.3611C0 15.8486 0.666406 11.3779 0.666406 11.3779C0.666406 11.3779 2.16094 6.23424 4.1612 4.16914C6.69857 1.45521 9.73346 0.847917 11.0368 0.689193C20.3674 -1.19209e-07 33.3191 0 33.3191 0H33.3477C33.3477 0 46.2993 -1.19209e-07 55.6279 0.689193C56.9322 0.847917 59.9691 1.45521 62.5035 4.16914C64.5036 6.23411 66.0013 11.3779 66.0013 11.3779C66.0013 11.3779 66.6667 15.8486 66.6667 21.3611V28.6115C66.6667 34.1238 66.0013 38.5927 66.0013 38.5927ZM41.6669 45.8333C42.8186 45.8333 43.7505 46.7672 43.7505 47.9167C43.7505 49.0682 42.8186 50 41.6669 50C40.5152 50 39.5833 49.0682 39.5833 47.9167C39.5833 46.7672 40.5152 45.8333 41.6669 45.8333ZM32.3526 35.1747L32.3333 35.1849C32.025 35.3721 31.668 35.484 31.2823 35.484C30.1499 35.484 29.2312 34.5654 29.2312 33.4332C29.2312 32.6439 29.6819 31.9663 30.3362 31.6227L30.3341 31.6206L40.9609 25.9535C40.9548 25.9484 40.9375 25.9444 40.9477 25.9393C41.1241 25.854 41.2729 25.7207 41.377 25.5546C41.481 25.3885 41.5361 25.1964 41.5358 25.0004C41.5358 24.622 41.3263 24.2904 41.024 24.1103L28.5841 17.4626C28.4417 17.3899 28.2841 17.3522 28.1242 17.3527C27.5677 17.3527 27.1241 17.7896 27.0935 18.3339L27.0956 31.2299H27.0793C27.0793 31.2371 27.0823 31.2441 27.0823 31.2513C27.0823 32.4027 26.1473 33.3345 24.9977 33.3345C23.846 33.3345 22.9141 32.4027 22.9141 31.2513V16.7408C22.9141 14.4001 24.8135 12.5014 27.1546 12.5014C27.9252 12.5 28.6815 12.7101 29.341 13.1087C29.3664 13.1224 29.3756 13.1178 29.397 13.1271L43.7689 21.4079C44.073 21.5854 44.3538 21.7954 44.6133 22.0548C46.2411 23.6829 46.2411 26.3207 44.6133 27.9483C44.3741 28.1863 44.1107 28.3857 43.8349 28.5556L32.4368 35.1238C32.4085 35.1422 32.3801 35.1564 32.3526 35.1747Z" fill="#E62D27"/>
</svg>
